<?xml version="1.0" standalone="no"?>
<!DOCTYPE svg PUBLIC "-//W3C//DTD SVG 20010904//EN"
 "http://www.w3.org/TR/2001/REC-SVG-20010904/DTD/svg10.dtd">
<svg version="1.0" xmlns="http://www.w3.org/2000/svg"
 width="700.000000pt" height="700.000000pt" viewBox="0 0 700.000000 700.000000"
 preserveAspectRatio="xMidYMid meet">
<metadata>
Created by potrace 1.11, written by Peter Selinger 2001-2013
</metadata>
<g transform="translate(0.000000,700.000000) scale(0.100000,-0.100000)"
fill="#000000" stroke="none">
<path d="M1195 6984 c-320 -49 -580 -185 -808 -423 -186 -194 -298 -408 -359
-684 l-23 -102 0 -2275 0 -2275 23 -102 c64 -291 179 -501 386 -708 209 -208
420 -323 708 -387 l103 -23 2275 0 2275 0 103 23 c288 64 499 179 708 387 207
207 322 417 386 708 l23 102 0 2275 0 2275 -23 102 c-61 277 -173 490 -361
685 -206 215 -431 341 -729 410 l-97 22 -2250 2 c-1884 2 -2265 0 -2340 -12z
m2336 -1091 c30 -9 86 -17 126 -17 68 -1 74 -3 107 -35 19 -18 59 -45 88 -60
44 -22 57 -35 78 -77 14 -28 42 -70 63 -93 20 -22 37 -51 38 -64 3 -66 -1
-304 -7 -379 l-6 -87 33 -3 c25 -2 39 -12 57 -38 22 -31 23 -42 18 -104 -4
-38 -15 -88 -25 -110 -19 -43 -82 -106 -106 -106 -8 0 -17 -12 -21 -27 -11
-52 -27 -98 -45 -135 -24 -47 -24 -109 -1 -137 9 -11 55 -37 102 -56 91 -39
219 -107 287 -153 41 -27 44 -28 125 -19 157 16 319 -9 375 -57 l28 -24 49 51
c132 133 315 198 522 183 92 -6 245 -40 317 -71 l37 -15 0 32 c0 110 -21 433
-32 483 -21 105 -239 503 -331 603 -26 28 -87 30 -148 3 -72 -32 -135 -43
-179 -31 -35 9 -42 8 -60 -10 -13 -13 -33 -20 -59 -20 -22 0 -43 -4 -46 -10
-3 -5 -19 -10 -35 -10 -16 0 -32 5 -35 10 -3 6 -26 10 -50 10 -148 0 -169 218
-41 443 56 98 92 117 226 117 216 0 446 -66 587 -169 23 -17 65 -64 93 -106
90 -133 193 -246 470 -516 415 -403 539 -574 650 -894 42 -122 48 -179 29
-247 -11 -44 -60 -85 -284 -244 -92 -65 -185 -143 -270 -226 -188 -184 -284
-257 -432 -331 -151 -75 -286 -104 -428 -91 -162 14 -187 12 -229 -19 -20 -16
-48 -50 -62 -75 -14 -26 -59 -110 -101 -187 -132 -245 -158 -278 -368 -465
-82 -74 -162 -148 -177 -165 -87 -95 -125 -354 -114 -765 3 -135 9 -255 12
-268 l6 -22 -862 0 -862 0 6 33 c4 17 9 136 13 262 10 415 -27 656 -119 760
-23 26 -104 103 -182 172 -78 69 -160 148 -184 176 -51 60 -125 182 -224 371
-88 168 -120 199 -200 200 -29 0 -94 -4 -143 -8 -149 -14 -280 16 -449 102
-139 71 -313 210 -449 358 -31 33 -124 109 -209 170 -247 177 -295 218 -307
261 -19 69 -13 126 29 248 110 317 238 495 627 872 276 267 397 398 483 524
74 107 101 131 215 185 136 65 263 95 426 101 168 7 210 -7 258 -84 143 -227
130 -473 -24 -473 -24 0 -47 -4 -50 -10 -3 -5 -19 -10 -35 -10 -16 0 -32 5
-35 10 -3 6 -24 10 -46 10 -26 0 -46 7 -59 20 -18 18 -25 19 -60 10 -44 -12
-107 -1 -179 31 -61 27 -122 25 -148 -3 -68 -75 -245 -375 -299 -506 -38 -91
-46 -153 -59 -455 l-7 -158 53 21 c142 56 340 82 469 60 148 -24 313 -111 378
-199 l23 -32 30 25 c60 51 218 75 377 59 l83 -9 49 33 c68 46 223 127 303 158
37 15 74 37 82 48 21 29 19 90 -4 135 -18 37 -34 83 -45 135 -4 15 -13 27 -21
27 -24 0 -87 63 -106 105 -27 62 -35 164 -15 203 20 38 51 61 76 55 16 -4 18
0 13 39 -2 23 -9 65 -14 91 -6 31 -5 80 1 135 6 48 14 126 19 174 10 103 44
172 94 193 17 7 42 30 57 51 31 46 76 69 174 90 54 11 156 43 172 54 0 0 25
-8 55 -17z"/>
<path d="M1786 5820 c-87 -22 -268 -102 -304 -134 -58 -51 -71 -135 -29 -185
31 -38 41 -79 27 -115 -5 -15 -10 -39 -10 -53 0 -24 4 -21 63 32 34 32 66 64
70 72 5 9 -1 30 -17 57 -20 34 -23 46 -13 54 38 30 106 20 163 -26 47 -37 85
-48 113 -32 19 10 21 8 21 -25 l0 -35 -37 20 c-21 11 -50 20 -66 20 -26 0 -28
-3 -25 -32 4 -41 40 -67 105 -75 100 -11 139 29 137 141 -1 54 0 58 13 40 11
-14 14 -37 9 -96 l-5 -78 25 0 c31 0 54 48 54 115 0 31 4 44 11 39 7 -4 10
-37 8 -93 -4 -86 -4 -86 21 -86 33 0 50 36 50 110 0 37 3 56 10 49 6 -6 6 -33
0 -74 -8 -53 -6 -68 6 -80 38 -38 83 57 84 177 0 83 -45 226 -83 261 -32 29
-88 42 -212 47 -89 4 -125 1 -189 -15z"/>
<path d="M4960 5834 c-83 -13 -130 -27 -149 -48 -11 -12 -35 -59 -51 -104 -23
-64 -30 -99 -30 -155 1 -79 25 -164 52 -181 24 -15 50 10 44 43 -14 76 -17
121 -7 121 7 0 11 -24 11 -57 0 -72 17 -108 50 -108 25 0 25 0 21 88 -2 59 0
87 8 87 6 0 11 -17 11 -40 0 -62 24 -110 54 -110 l25 0 -5 78 c-4 57 -2 82 8
95 12 16 14 12 13 -40 0 -112 38 -151 138 -140 65 8 101 34 105 75 3 29 0 32
-23 32 -14 0 -42 -7 -62 -15 -45 -19 -43 -20 -43 15 0 28 2 30 21 20 28 -16
66 -5 113 32 57 46 125 56 163 26 10 -8 7 -20 -13 -54 -16 -27 -22 -48 -17
-57 4 -8 36 -40 71 -72 57 -53 62 -55 62 -33 0 14 -5 39 -11 56 -13 37 1 90
31 117 24 22 27 92 6 133 -22 43 -54 65 -162 115 -155 72 -305 100 -434 81z"/>
<path d="M3184 5499 c-70 -16 -81 -38 -93 -170 -5 -63 -17 -135 -25 -160 -10
-28 -16 -81 -16 -144 -1 -92 -2 -98 -16 -80 -8 11 -18 33 -21 48 -10 48 -73
65 -94 25 -7 -13 -10 -48 -7 -90 7 -87 39 -142 96 -159 37 -11 39 -13 49 -74
30 -172 138 -299 307 -361 116 -42 202 -29 359 53 140 73 209 169 224 313 5
57 6 58 44 69 58 17 90 72 97 159 3 42 0 77 -7 90 -21 40 -84 23 -94 -25 -3
-15 -13 -37 -21 -48 -14 -18 -15 -12 -16 80 0 61 -6 116 -15 143 -8 23 -20 95
-25 159 -6 64 -16 123 -22 130 -24 29 -73 46 -138 47 -60 1 -72 -2 -121 -34
-48 -31 -61 -35 -119 -35 -54 1 -74 6 -120 32 -62 35 -140 48 -206 32z"/>
<path d="M1290 5131 c-324 -121 -589 -334 -708 -567 -49 -96 -66 -311 -29
-368 16 -24 23 -26 85 -26 82 0 134 22 181 75 43 49 66 102 106 237 33 111 76
194 133 256 38 42 38 40 -16 -83 -62 -142 -86 -243 -86 -365 -1 -157 30 -212
97 -173 69 41 97 133 128 424 28 273 73 434 154 555 24 35 40 64 37 64 -4 -1
-41 -14 -82 -29z"/>
<path d="M5665 5096 c81 -121 126 -282 154 -555 31 -291 59 -383 128 -424 67
-39 98 16 97 173 0 122 -24 223 -86 365 -54 123 -54 125 -16 83 57 -62 100
-145 133 -256 40 -135 63 -188 106 -237 47 -53 99 -75 181 -75 62 0 69 2 85
26 37 57 20 272 -29 368 -77 151 -222 302 -404 418 -87 56 -354 178 -389 178
-2 0 16 -29 40 -64z"/>
<path d="M2975 4292 c-188 -66 -352 -160 -439 -251 -17 -17 -36 -31 -43 -31
-26 0 -12 29 30 64 41 35 41 37 22 52 -21 16 -80 14 -198 -8 -59 -11 -107 -39
-107 -63 0 -36 135 -136 195 -142 51 -6 87 11 216 102 126 89 262 157 308 153
40 -3 36 9 59 -167 16 -116 55 -184 165 -285 68 -62 111 -92 158 -112 35 -15
84 -42 108 -61 24 -18 48 -33 52 -33 5 0 24 14 43 30 19 17 67 44 106 60 57
23 93 48 166 115 131 121 147 156 181 395 8 54 9 55 44 58 46 4 182 -64 308
-153 129 -91 165 -108 216 -102 60 6 195 106 195 142 0 24 -48 52 -107 63
-118 22 -177 24 -198 8 -19 -15 -19 -17 23 -52 41 -35 55 -64 29 -64 -7 0 -26
14 -43 31 -87 91 -259 189 -445 253 -58 20 -110 36 -115 36 -5 0 -20 -33 -32
-74 -15 -48 -36 -88 -57 -113 l-34 -38 -1 113 c0 61 -4 112 -8 112 -22 0 -42
-39 -42 -81 0 -62 -25 -161 -57 -225 -29 -60 -83 -115 -138 -141 -33 -16 -37
-16 -70 0 -55 26 -109 81 -138 141 -32 65 -57 163 -57 227 0 42 -20 79 -43 79
-4 0 -7 -51 -7 -112 l-1 -113 -35 40 c-24 27 -42 64 -57 112 -11 40 -26 73
-32 73 -5 0 -59 -17 -120 -38z"/>
<path d="M1475 4285 c-81 -22 -151 -52 -219 -95 -69 -44 -83 -62 -60 -81 14
-12 42 -10 134 10 50 11 252 13 288 3 54 -16 11 -27 -103 -27 -90 -1 -134 -5
-175 -19 -80 -27 -128 -53 -140 -77 -25 -46 28 -124 153 -225 139 -111 215
-139 382 -138 159 1 240 36 284 121 14 28 14 91 0 131 -17 48 -7 58 28 28 17
-14 38 -26 46 -26 44 0 55 96 20 165 -47 90 -201 192 -346 231 -66 17 -226 17
-292 -1z"/>
<path d="M5229 4286 c-102 -29 -241 -109 -301 -172 -42 -45 -71 -119 -63 -163
13 -67 38 -77 88 -35 35 30 45 20 28 -28 -14 -40 -14 -103 0 -131 6 -12 25
-37 43 -55 66 -70 269 -90 438 -42 95 27 313 210 337 283 15 46 4 70 -47 96
-87 44 -144 55 -267 56 -114 0 -157 11 -103 27 44 12 242 8 303 -7 76 -18 110
-19 124 -2 8 10 7 18 -2 29 -22 29 -129 90 -211 121 -70 26 -97 30 -201 33
-79 2 -136 -1 -166 -10z"/>
<path d="M952 3981 c-81 -14 -130 -72 -117 -139 l7 -37 20 40 c11 22 30 51 42
64 25 28 91 60 126 61 20 0 22 2 10 10 -17 11 -25 11 -88 1z"/>
<path d="M5962 3981 c-9 -5 -1 -10 25 -14 55 -9 118 -58 146 -114 l24 -47 7
32 c12 53 -12 100 -64 127 -33 16 -121 27 -138 16z"/>
<path d="M2213 3889 c-64 -19 -79 -103 -44 -240 10 -41 55 -164 100 -274 52
-131 91 -245 111 -330 45 -188 82 -240 219 -309 167 -85 393 -143 516 -133
108 9 158 31 235 103 115 109 136 200 74 315 -60 109 -216 222 -344 249 -39 8
-33 9 40 6 97 -4 163 -26 263 -86 95 -58 101 -56 95 33 -6 85 -31 148 -83 205
-49 55 -112 84 -275 128 -179 48 -325 106 -554 220 -163 82 -274 126 -311 123
-5 0 -25 -5 -42 -10z"/>
<path d="M4674 3885 c-28 -7 -136 -56 -240 -109 -228 -114 -374 -172 -554
-220 -74 -20 -158 -48 -187 -62 -103 -50 -173 -165 -173 -284 0 -74 6 -75 97
-20 100 60 166 82 263 86 73 3 79 2 40 -6 -128 -27 -284 -140 -344 -249 -62
-115 -41 -206 74 -315 77 -72 127 -94 235 -103 123 -10 349 48 516 133 137 69
174 121 219 309 20 85 60 202 115 340 109 273 136 389 104 458 -22 48 -85 64
-165 42z"/>
<path d="M770 3652 c0 -15 72 -120 127 -184 115 -135 265 -233 425 -278 83
-24 260 -37 298 -22 22 8 20 10 -25 16 -70 10 -211 59 -297 102 -149 75 -351
214 -473 326 -30 27 -55 46 -55 40z"/>
<path d="M6199 3634 c-39 -42 -187 -157 -291 -227 -175 -117 -371 -204 -503
-223 -45 -6 -47 -8 -25 -16 38 -15 215 -2 298 22 131 37 263 114 364 214 81
79 198 239 186 252 -3 2 -15 -8 -29 -22z"/>
<path d="M2223 2636 c13 -78 89 -153 173 -171 44 -9 68 16 60 63 -6 38 -19 52
-51 52 -22 0 -125 49 -164 77 l-24 18 6 -39z"/>
<path d="M2555 2658 c-22 -57 189 -319 297 -368 75 -34 113 -27 256 44 146 73
240 108 332 125 109 20 230 -14 457 -128 139 -69 177 -75 251 -39 99 47 289
270 295 343 2 27 -1 30 -26 28 -15 -1 -67 -20 -116 -42 -212 -98 -376 -105
-581 -26 -36 14 -77 18 -215 18 -168 0 -173 0 -265 -33 -180 -62 -339 -52
-530 35 -117 54 -148 62 -155 43z"/>
<path d="M4732 2640 c-43 -28 -102 -53 -154 -64 -29 -6 -45 -48 -33 -85 20
-66 169 -2 214 93 13 25 21 54 19 65 -3 19 -5 19 -46 -9z"/>
<path d="M2480 2362 c0 -17 113 -114 155 -133 60 -28 165 -21 165 11 0 18 -63
50 -170 84 -151 48 -150 48 -150 38z"/>
<path d="M3300 2351 c-30 -10 -85 -33 -122 -50 -36 -17 -98 -39 -136 -50 -83
-23 -131 -46 -139 -68 -9 -23 48 -128 102 -190 63 -72 129 -103 220 -103 61 0
81 5 135 33 99 50 104 62 108 229 2 77 1 151 -2 164 -7 26 -53 54 -88 53 -13
0 -48 -8 -78 -18z"/>
<path d="M3568 2354 c-37 -19 -40 -38 -36 -202 4 -167 9 -179 108 -229 54 -28
74 -33 135 -33 91 0 157 31 220 103 54 62 111 167 102 190 -8 22 -56 45 -139
68 -37 11 -108 37 -156 58 -139 63 -186 72 -234 45z"/>
<path d="M4385 2330 c-121 -40 -185 -71 -185 -90 0 -32 105 -39 165 -11 61 27
182 143 148 140 -5 0 -62 -18 -128 -39z"/>
<path d="M2950 1885 c-23 -28 -30 -116 -24 -287 l7 -167 86 -32 c116 -42 264
-79 317 -79 50 0 92 16 98 39 27 89 36 483 12 516 -13 18 -15 18 -38 3 -37
-24 -126 -48 -177 -48 -59 0 -141 22 -184 49 -41 25 -80 27 -97 6z"/>
<path d="M3953 1879 c-42 -26 -125 -49 -184 -49 -51 0 -140 24 -176 47 -19 12
-26 13 -38 3 -25 -21 -17 -434 10 -520 20 -64 200 -44 434 47 l68 26 6 166 c6
175 -1 259 -22 285 -18 22 -60 20 -98 -5z"/>
</g>
</svg>
