<?xml version="1.0" encoding="utf-8"?>
<!-- Generator: Adobe Illustrator 24.1.0, SVG Export Plug-In . SVG Version: 6.00 Build 0)  -->
<svg version="1.1" id="Warstwa_1" xmlns="http://www.w3.org/2000/svg" xmlns:xlink="http://www.w3.org/1999/xlink" x="0px" y="0px"
	 viewBox="0 0 100 100" style="enable-background:new 0 0 100 100;" xml:space="preserve">
<g>
	<path d="M52.44,63.34c0-8.87-7.22-16.09-16.09-16.09v1.81c7.88,0,14.28,6.41,14.28,14.28H52.44z M8.5,62.74h14.74V45.56h7.39v7.12
		c0,4.55,1.91,8.95,5.24,12.06c3.5,3.27,5.51,7.8,5.51,12.42v8.85h1.81v-8.85c0-5.12-2.22-10.12-6.08-13.74
		c-2.97-2.77-4.67-6.69-4.67-10.74v-9.27c0-2.46,2.01-4.47,4.47-4.47h10.99c0.46,0,0.83,0.37,0.83,0.83c0,2.27-1.85,4.12-4.12,4.12
		h-8.17v1.81h8.17c1.61,0,3.07-0.65,4.14-1.69c0.86,0.77,1.99,1.22,3.19,1.22c1.6,0,3.02-0.79,3.89-2c0.87,1.21,2.29,2,3.89,2
		c1.98,0,3.68-1.2,4.41-2.92h1.69v17.54c0,1.64-0.52,3.2-1.5,4.51c-1.78,2.37-2.71,5.11-2.71,7.93v13.73h1.81V72.29
		c0-2.42,0.81-4.79,2.35-6.84c1.22-1.62,1.86-3.56,1.86-5.59V42.32h9.15v1.44h-6.7v1.81h6.7v17.17H91.5V51.85l3.5-4.31V29.18
		l-3.5-4.31V13.98H76.76V34.4H64.5v-4.76c0-1.28-0.5-2.48-1.4-3.39c-0.9-0.91-2.11-1.41-3.39-1.41c-1.14,0-2.19,0.4-3.01,1.07
		c-0.11-1.1-0.59-2.12-1.38-2.9c-0.91-0.91-2.11-1.4-3.39-1.4c-1.6,0-3.02,0.79-3.89,2c-0.15-0.21-0.32-0.41-0.5-0.59
		c-0.91-0.91-2.11-1.4-3.39-1.4c-2.48,0-4.52,1.89-4.77,4.3c-0.85-0.69-1.9-1.06-3.01-1.06c-2.64,0-4.79,2.15-4.79,4.79v5.66h1.81
		v-5.66c0-1.65,1.34-2.99,2.99-2.99c0.8,0,1.55,0.31,2.11,0.88c0.56,0.56,0.87,1.31,0.87,2.11h1.81V26.4c0-1.65,1.34-2.99,2.99-2.99
		c0.8,0,1.54,0.31,2.11,0.88c0.56,0.56,0.88,1.31,0.88,2.11v2.34h1.81V26.4c0-1.65,1.34-2.99,2.98-2.99c0.8,0,1.55,0.31,2.11,0.88
		c0.56,0.56,0.88,1.31,0.88,2.11v3.24h1.81c0-1.65,1.34-2.99,2.98-2.99c0.8,0,1.55,0.31,2.11,0.88c0.56,0.56,0.88,1.31,0.88,2.11
		v10.8c0,1.65-1.34,2.98-2.99,2.98c-1.65,0-2.98-1.34-2.98-2.98v-7.15h-1.81v7.15c0,1.65-1.34,2.98-2.99,2.98
		c-0.81,0-1.55-0.32-2.1-0.87c0.44-0.83,0.7-1.78,0.7-2.78c0-1.08-0.65-2-1.58-2.41v-6.08h-1.81v5.86h-5.97v-3.87h-1.81v3.87H36.9
		c-2.41,0-4.51,1.37-5.56,3.37h-8.1v-4.31h5.96V34.4h-5.96V13.98H8.5v10.89L5,29.18v18.36l3.5,4.31V62.74z M93.19,29.82V46.9
		l-1.7,2.09V27.73L93.19,29.82z M78.57,15.79h4.66v39.13h1.81V15.79h4.66v6.86v31.42v6.86h-4.66V57.5h-1.81v3.43h-4.66V42.32V34.4
		V15.79z M76.76,36.21v4.31H64.5l0-0.07v-4.24H76.76z M30.73,42.32c-0.06,0.36-0.1,0.73-0.1,1.1v0.34h-7.39v-1.44H30.73z
		 M10.31,15.79h4.66v3.43h1.81v-3.43h4.66V34.4v7.92v18.61h-4.66V21.8h-1.81v39.13h-4.66v-6.86V22.65V15.79z M6.81,46.9V29.82
		l1.7-2.09v21.25L6.81,46.9z"/>
	<path d="M52.44,63.34h0.5c0-9.15-7.44-16.59-16.59-16.59h-0.5v2.81h0.5c3.8,0,7.24,1.54,9.74,4.04c2.5,2.5,4.04,5.94,4.04,9.74v0.5
		h2.81v-0.5H52.44v-0.5h-1.81v0.5h0.5c0-8.15-6.63-14.78-14.78-14.78v0.5h0.5v-1.81h-0.5v0.5c4.3,0,8.19,1.75,11.02,4.57
		c2.82,2.82,4.57,6.72,4.57,11.02H52.44v-0.5V63.34z M8.5,62.74v0.5h15.24V46.06h6.39l0,6.62c0,4.69,1.97,9.22,5.4,12.43
		c3.41,3.18,5.35,7.58,5.35,12.05v9.35h2.81v-9.35c0-5.26-2.28-10.4-6.24-14.1c-2.86-2.68-4.51-6.46-4.51-10.38v-9.27
		c0-1.1,0.44-2.09,1.16-2.81c0.72-0.72,1.71-1.16,2.81-1.16h10.99c0.18,0,0.33,0.15,0.33,0.33c0,1-0.41,1.9-1.06,2.56
		c-0.66,0.66-1.56,1.06-2.56,1.06h-8.67v2.81h8.67c1.75,0,3.33-0.7,4.49-1.83l-0.35-0.36l-0.33,0.37c0.95,0.85,2.2,1.35,3.53,1.35
		c1.77,0,3.34-0.87,4.3-2.2l-0.41-0.29l-0.41,0.29c0.96,1.33,2.53,2.2,4.29,2.2c2.18,0,4.06-1.33,4.87-3.22l-0.46-0.2v0.5h1.19
		l0,17.04c0,1.54-0.48,2.98-1.4,4.21c-1.84,2.45-2.81,5.3-2.81,8.23v14.23h2.81V72.29c0-2.31,0.77-4.57,2.25-6.54l0,0
		c1.28-1.71,1.96-3.75,1.96-5.89V42.82h8.15v0.44l-6.7,0v2.81h6.7l0,17.17H92V52.03l3.5-4.31V29L92,24.69l0-11.21H76.26V33.9H65
		l0-4.26c0-1.41-0.55-2.74-1.55-3.74l0,0c-1-1-2.33-1.55-3.74-1.55c-1.26,0-2.42,0.44-3.32,1.18l0.31,0.39l0.5-0.05
		c-0.12-1.21-0.65-2.34-1.52-3.21l0,0c-1-1-2.33-1.55-3.74-1.55c-1.77,0-3.33,0.87-4.29,2.2l0.41,0.29l0.41-0.29
		c-0.17-0.23-0.35-0.45-0.55-0.65c-1-1-2.33-1.55-3.74-1.55c-2.74,0-4.99,2.08-5.27,4.75l0.5,0.05l0.32-0.39
		c-0.94-0.76-2.1-1.18-3.32-1.18c-2.92,0-5.29,2.37-5.29,5.29v6.16h2.81v-6.16c0-1.37,1.12-2.48,2.49-2.49
		c0.67,0,1.29,0.26,1.76,0.73l0,0c0.47,0.47,0.73,1.09,0.73,1.76v0.5h2.81V26.4c0-1.37,1.12-2.48,2.49-2.49
		c0.66,0,1.28,0.26,1.76,0.73l0,0c0.47,0.47,0.73,1.09,0.73,1.76v2.84h2.81V26.4c0-1.37,1.12-2.48,2.48-2.49
		c0.67,0,1.28,0.26,1.76,0.73l0,0c0.47,0.47,0.73,1.09,0.73,1.76v3.74h2.81v-0.5c0-1.37,1.12-2.48,2.48-2.49
		c0.67,0,1.29,0.26,1.76,0.73l0,0c0.47,0.47,0.73,1.09,0.73,1.76v10.8c0,1.37-1.12,2.48-2.49,2.48c-1.37,0-2.48-1.12-2.48-2.48
		v-7.65h-2.81v7.65c0,1.37-1.12,2.48-2.49,2.48c-0.67,0-1.29-0.27-1.75-0.72l-0.35,0.35l0.44,0.24c0.48-0.9,0.76-1.93,0.76-3.02
		c0-1.28-0.77-2.38-1.88-2.87l-0.2,0.46h0.5v-6.58h-2.81v5.86h-4.97v-3.87h-2.81v3.87l-1.96,0c-2.6,0-4.87,1.48-6,3.64l0.44,0.23
		v-0.5h-7.6l0-3.31h5.96V33.9h-5.96l0-20.42H8v11.21L4.5,29v18.71L8,52.03l0,11.21h0.5V62.74H9V51.67l-3.5-4.31v-18L9,25.05V14.48
		h13.74l0,20.42h5.96l0,0.81l-5.96,0v5.31h8.91l0.14-0.27c0.97-1.84,2.9-3.1,5.12-3.1h2.96v-3.87h0.81l0,3.87h6.97v-5.86l0.81,0
		l0,5.91l0.3,0.13c0.75,0.33,1.28,1.08,1.28,1.95c0,0.92-0.23,1.79-0.64,2.55l-0.17,0.33l0.26,0.26c0.64,0.64,1.52,1.01,2.46,1.01
		c1.92,0,3.49-1.56,3.49-3.48v-6.65h0.81l0,6.65c0,1.92,1.56,3.48,3.48,3.48c1.92,0,3.49-1.56,3.49-3.48v-10.8
		c0-0.93-0.36-1.81-1.02-2.46l0,0c-0.65-0.66-1.54-1.02-2.47-1.02c-1.92,0-3.48,1.56-3.48,3.49h0.5v-0.5h-1.31l0-2.74
		c0-0.93-0.36-1.81-1.02-2.46l0,0c-0.66-0.66-1.54-1.02-2.47-1.02c-1.92,0-3.48,1.56-3.48,3.49v1.84h-0.81V26.4
		c0-0.93-0.37-1.81-1.02-2.46l-0.01-0.01l0.01,0.01c-0.66-0.66-1.54-1.02-2.46-1.02c-1.92,0-3.49,1.56-3.49,3.49v2.74h-1.31v0.5h0.5
		c0-0.93-0.36-1.81-1.02-2.46l0,0c-0.65-0.66-1.54-1.02-2.47-1.02c-1.92,0-3.49,1.56-3.49,3.49v5.16h-0.81v-5.16
		c0-1.18,0.48-2.25,1.26-3.03c0.78-0.78,1.85-1.26,3.03-1.26c1,0,1.93,0.33,2.69,0.95l0.72,0.58l0.09-0.92
		c0.22-2.16,2.05-3.86,4.27-3.85c1.15,0,2.22,0.44,3.03,1.26c0.17,0.17,0.32,0.34,0.45,0.53l0.41,0.56l0.41-0.56
		c0.78-1.08,2.05-1.79,3.48-1.79c1.15,0,2.22,0.45,3.04,1.26l0,0c0.71,0.71,1.14,1.61,1.24,2.6l0.09,0.92l0.72-0.58
		c0.74-0.6,1.67-0.96,2.69-0.96c1.15,0,2.22,0.45,3.04,1.26l0,0c0.81,0.81,1.26,1.88,1.26,3.03v5.26h13.26V14.48H91l0,10.57
		l3.5,4.31v18L91,51.67v10.57H77.26V45.07h-6.7v-0.81l6.7,0v-2.44H67.11v18.04c0,1.93-0.61,3.75-1.76,5.29l0,0
		c-1.6,2.13-2.45,4.61-2.45,7.14v13.23h-0.81l0-13.23c0-2.7,0.9-5.34,2.61-7.63c1.05-1.39,1.6-3.06,1.6-4.81V41.82h-2.52l-0.13,0.3
		c-0.65,1.53-2.18,2.61-3.95,2.61c-1.43,0-2.7-0.71-3.48-1.79l-0.41-0.56l-0.41,0.56c-0.78,1.08-2.05,1.79-3.48,1.79
		c-1.08,0-2.09-0.4-2.86-1.09l-0.35-0.31l-0.34,0.33c-0.98,0.96-2.32,1.55-3.79,1.55h-7.67l0-0.81h7.67c2.55,0,4.62-2.07,4.62-4.62
		c0-0.73-0.59-1.32-1.33-1.33H36.9c-2.74,0-4.97,2.23-4.97,4.97v9.27c0,4.2,1.76,8.24,4.82,11.11c3.77,3.52,5.93,8.4,5.93,13.37
		v8.35h-0.81v-8.35c0-4.76-2.07-9.42-5.67-12.78c-3.23-3.02-5.08-7.28-5.08-11.7v-7.62h-8.39v17.17l-14.24,0V62.74H9H8.5z
		 M93.19,29.82h-0.5v16.9L92,47.58l0-18.44l0.81,1L93.19,29.82h-0.5H93.19l0.39-0.32L91,26.32v24.07l2.7-3.32V29.64l-0.11-0.14
		L93.19,29.82z M78.57,15.79v0.5h4.16l0,39.13h2.81V16.29h3.66l0,6.36v31.42v6.36h-3.66l0-3.43h-2.81v3.43h-3.66V42.32V34.4V15.79
		H78.57v0.5V15.79h-0.5V34.4v7.92v19.11h5.66V58h0.81l0,3.43h5.66v-7.36V22.65v-7.36h-5.66v39.13h-0.81V15.29h-5.66v0.5H78.57z
		 M76.76,36.21h-0.5v3.81l-11.76,0v0.5l0.5,0.01l0-0.07l0-0.01v-3.75l11.76,0V36.21h-0.5H76.76v-0.5H64v4.73l0,0.06l-0.01,0.51
		h13.28v-5.31h-0.5V36.21z M30.73,42.32l-0.49-0.09c-0.07,0.38-0.11,0.78-0.11,1.19v0.34h0.5v-0.5h-6.89l0-0.44l6.98,0V42.32
		l-0.49-0.09L30.73,42.32v-0.5h-7.98v2.44h8.39v-0.84c0-0.35,0.03-0.68,0.09-1.02l0.1-0.59h-0.6V42.32z M10.31,15.79v0.5h4.16
		l0,3.43h2.81v-3.43h3.66l0,18.11v7.92v18.11h-3.66l0-39.13h-2.81v39.13h-3.66l0-6.36V22.65v-6.86H10.31v0.5V15.79h-0.5v6.86v31.42
		v7.36h5.66V22.3h0.81l0,39.13h5.66V42.32V34.4V15.29h-5.66v3.43h-0.81v-3.43H9.81v0.5H10.31z M6.81,46.9h0.5V30L8,29.14l0,18.44
		l-0.81-1L6.81,46.9h0.5H6.81l-0.39,0.32L9,50.39V26.32l-2.7,3.32v17.43l0.11,0.14L6.81,46.9z"/>
</g>
<g>
</g>
<g>
</g>
<g>
</g>
<g>
</g>
<g>
</g>
<g>
</g>
<g>
</g>
<g>
</g>
<g>
</g>
<g>
</g>
<g>
</g>
<g>
</g>
<g>
</g>
<g>
</g>
<g>
</g>
</svg>
