<?xml version="1.0" encoding="utf-8"?>
<!-- Generator: Adobe Illustrator 24.1.0, SVG Export Plug-In . SVG Version: 6.00 Build 0)  -->
<svg version="1.1" id="Warstwa_1" xmlns="http://www.w3.org/2000/svg" xmlns:xlink="http://www.w3.org/1999/xlink" x="0px" y="0px"
	 viewBox="0 0 100 100" style="enable-background:new 0 0 100 100;" xml:space="preserve">
<g>
	<path d="M80.77,42.4v38.13c0,1.21-0.49,2.29-1.28,3.09c-0.8,0.79-1.88,1.28-3.09,1.28H23.6c-1.21,0-2.29-0.49-3.09-1.28
		c-0.79-0.8-1.28-1.88-1.28-3.09V42.4h-3l0,38.13c0,4.07,3.3,7.37,7.37,7.37h52.8c4.07,0,7.37-3.3,7.37-7.37V42.4H80.77L80.77,42.4z
		 M17.73,42.4h1.5c0-0.39,0.11-0.78,0.42-1.26c0.52-0.83,1.7-1.83,3.45-2.74c2.62-1.38,6.48-2.59,11.11-3.43
		c4.63-0.85,10.03-1.33,15.79-1.33c8.78,0,16.73,1.14,22.36,2.93c2.81,0.89,5.05,1.96,6.47,3.03c0.71,0.53,1.22,1.07,1.52,1.54
		c0.3,0.48,0.42,0.87,0.42,1.26h1.5v-1.5H17.73V42.4h1.5H17.73v1.5h66.03v-1.5c0-1.03-0.34-2.02-0.89-2.88
		c-0.98-1.51-2.56-2.71-4.58-3.77c-3.04-1.59-7.13-2.84-11.96-3.73c-4.83-0.88-10.4-1.38-16.33-1.38c-9.04,0-17.23,1.16-23.27,3.08
		c-3.03,0.97-5.52,2.11-7.36,3.49c-0.92,0.69-1.68,1.45-2.24,2.32c-0.56,0.86-0.9,1.85-0.89,2.88v1.5h1.5V42.4z M47.07,32.14h1.5
		v-3.04l0-0.02c-0.02-0.91-0.48-1.76-1.23-2.28l-0.86,1.23l0.9-1.2c-1.12-0.84-1.75-2.14-1.75-3.5c0-0.36,0.04-0.73,0.14-1.09
		l0-0.01l0-0.01c0.38-1.54,1.58-2.75,3.12-3.12l0.01,0l0.01,0c0.37-0.1,0.74-0.14,1.1-0.14c1.94,0,3.72,1.31,4.22,3.28l0,0
		c0.09,0.36,0.14,0.72,0.14,1.09l0,0.01v0c0,1.38-0.66,2.68-1.77,3.5l0.89,1.21l-0.85-1.23c-0.74,0.51-1.19,1.35-1.2,2.25l0,0.01
		v1.56l-4.37,0V32.14h1.5H47.07v1.5h7.37v-4.55h-1.5l1.5,0.02l-0.21,0l0.12,0.17l0.09-0.17l-0.21,0l0.12,0.17l0.02-0.01l0.02-0.01
		c1.88-1.39,2.98-3.58,2.98-5.91v0l0-0.01c0-0.62-0.08-1.24-0.23-1.84l0,0l0,0c-0.86-3.32-3.85-5.53-7.13-5.53
		c-0.61,0-1.23,0.08-1.85,0.24l0.37,1.45l-0.36-1.46c-2.63,0.64-4.68,2.7-5.32,5.32l1.46,0.36l-1.45-0.37
		c-0.16,0.61-0.23,1.22-0.23,1.83c0,2.29,1.07,4.49,2.96,5.9l0.02,0.02l0.02,0.01l0.08-0.11l-0.13,0l0.06,0.11l0.08-0.11l-0.13,0
		l1.5-0.04h-1.5v4.52h1.5V32.14z M7.47,48.3h10.27v-3H7.47V48.3z M17.73,57.04c-1.62,0-3.06-0.65-4.12-1.71
		c-1.06-1.06-1.71-2.51-1.71-4.12v-4.4h-3l0,4.4c0,4.88,3.95,8.83,8.83,8.83V57.04L17.73,57.04z M92.53,45.3H82.27v3h10.27V45.3z
		 M82.27,60.04c4.88,0,8.83-3.95,8.83-8.83v-4.4h-3l0,4.4c0,1.62-0.65,3.06-1.71,4.12c-1.06,1.06-2.51,1.71-4.12,1.71V60.04
		L82.27,60.04z M17.73,49.77h64.53v-3H17.73V49.77z M33.83,9.59c-0.01,0.26-0.04,0.3-0.15,0.47c-0.09,0.12-0.25,0.28-0.49,0.47
		c-0.35,0.29-0.86,0.64-1.36,1.21c-0.25,0.29-0.49,0.65-0.66,1.07c-0.17,0.42-0.27,0.91-0.27,1.41c-0.01,0.9,0.33,1.73,0.76,2.28
		c0.32,0.43,0.68,0.73,0.98,0.98c0.46,0.37,0.82,0.64,0.98,0.84c0.08,0.1,0.13,0.17,0.16,0.24c0.03,0.07,0.05,0.14,0.05,0.29
		c-0.01,0.26-0.04,0.3-0.15,0.47c-0.09,0.12-0.25,0.28-0.49,0.47c-0.35,0.29-0.86,0.64-1.36,1.21c-0.25,0.29-0.49,0.65-0.66,1.07
		c-0.17,0.42-0.27,0.91-0.27,1.41h3c0.01-0.26,0.04-0.3,0.15-0.47c0.09-0.12,0.25-0.28,0.49-0.47c0.35-0.29,0.86-0.64,1.36-1.21
		c0.25-0.29,0.49-0.65,0.66-1.07c0.17-0.42,0.27-0.91,0.27-1.41c0.01-0.9-0.33-1.73-0.76-2.28c-0.32-0.43-0.68-0.73-0.98-0.98
		c-0.46-0.37-0.82-0.64-0.98-0.84c-0.08-0.1-0.13-0.17-0.16-0.24c-0.03-0.07-0.05-0.14-0.05-0.29c0.01-0.26,0.04-0.3,0.15-0.47
		c0.09-0.12,0.25-0.28,0.49-0.47c0.35-0.29,0.86-0.64,1.36-1.21c0.25-0.29,0.49-0.65,0.66-1.07c0.17-0.42,0.27-0.91,0.27-1.41H33.83
		L33.83,9.59z M66.1,9.59c-0.01,0.26-0.04,0.3-0.15,0.47c-0.09,0.12-0.25,0.28-0.49,0.47c-0.35,0.29-0.86,0.64-1.36,1.21
		c-0.25,0.29-0.49,0.65-0.66,1.07c-0.17,0.42-0.27,0.91-0.27,1.41c-0.01,0.9,0.33,1.73,0.76,2.28c0.32,0.43,0.68,0.73,0.98,0.98
		c0.46,0.37,0.82,0.64,0.98,0.84c0.08,0.1,0.13,0.17,0.16,0.24c0.03,0.07,0.05,0.14,0.05,0.29c-0.01,0.26-0.04,0.3-0.15,0.47
		c-0.09,0.12-0.25,0.28-0.49,0.47c-0.35,0.29-0.86,0.64-1.36,1.21c-0.25,0.29-0.49,0.65-0.66,1.07c-0.17,0.42-0.27,0.91-0.27,1.41h3
		c0.01-0.26,0.04-0.3,0.15-0.47c0.09-0.12,0.25-0.28,0.49-0.47c0.35-0.29,0.86-0.64,1.36-1.21c0.25-0.29,0.49-0.65,0.66-1.07
		c0.17-0.42,0.27-0.91,0.27-1.41c0.01-0.9-0.33-1.73-0.76-2.28c-0.32-0.43-0.68-0.73-0.98-0.98c-0.46-0.37-0.82-0.64-0.98-0.84
		c-0.08-0.1-0.13-0.17-0.16-0.24c-0.03-0.07-0.05-0.14-0.05-0.29c0.01-0.26,0.04-0.3,0.15-0.47c0.09-0.12,0.25-0.28,0.49-0.47
		c0.35-0.29,0.86-0.64,1.36-1.21c0.25-0.29,0.49-0.65,0.66-1.07c0.17-0.42,0.27-0.91,0.27-1.41H66.1L66.1,9.59z M6,91.91h88v-3H6
		V91.91z M23.57,60v14.67h3V60H23.57z M23.57,54.14v1.47h3v-1.47H23.57z M42.67,86.4h1.5c0-1.8,0.41-3.54,1.04-5.16
		c0.95-2.43,2.41-4.55,3.63-6.05c0.61-0.75,1.16-1.34,1.55-1.75c0.2-0.2,0.35-0.35,0.46-0.45l0.12-0.11L51,72.86l0,0l-0.26-0.29
		L51,72.85l0,0l-0.26-0.29L51,72.85l-1-1.12l-1,1.12l0.02-0.02L49,72.85l0,0l0.02-0.02L49,72.85c0.05,0.05,1.81,1.65,3.51,4.15
		c1.71,2.5,3.33,5.87,3.32,9.4h1.5v-1.5H42.67V86.4h1.5H42.67v1.5h16.17v-1.5c0-2.25-0.51-4.36-1.25-6.25
		c-1.11-2.84-2.75-5.19-4.1-6.85c-1.36-1.66-2.44-2.64-2.48-2.68l-1-0.9l-1,0.9c-0.06,0.05-1.96,1.76-3.9,4.56
		c-0.97,1.4-1.94,3.08-2.68,4.97c-0.74,1.89-1.25,4-1.25,6.25v1.5h1.5V86.4z M47.53,86.4l1.5,0.06c0.1-2.37,0.86-4.66,2.2-6.62
		L50,79l-1.23,0.85c1.35,1.95,2.11,4.24,2.2,6.61l1.5-0.06v-1.5h-4.94V86.4l1.5,0.06L47.53,86.4v1.5h6.49l-0.06-1.56
		c-0.11-2.94-1.06-5.78-2.73-8.2L50,76.36l-1.23,1.79c-1.67,2.42-2.61,5.26-2.73,8.19l-0.06,1.56h1.56V86.4z M25.07,86.4h1.5
		c0-0.99,0.22-1.96,0.58-2.88c0.54-1.37,1.38-2.61,2.09-3.47c0.35-0.43,0.67-0.78,0.9-1.01c0.11-0.12,0.2-0.2,0.26-0.26l0.06-0.06
		l0.01-0.01l-0.12-0.13l0.12,0.13l0,0l-0.12-0.13l0.12,0.13l-1-1.12l-1,1.12l0.41-0.46l-0.41,0.45l0,0l0.41-0.46l-0.41,0.45
		c0.01,0.01,1.03,0.94,2.02,2.39c0.49,0.72,0.97,1.56,1.32,2.47c0.35,0.9,0.57,1.86,0.57,2.83h1.5v-1.5h-8.8V86.4h1.5H25.07v1.5
		h10.3v-1.5c0-1.44-0.33-2.78-0.79-3.97c-0.7-1.78-1.71-3.24-2.55-4.27c-0.84-1.03-1.51-1.64-1.55-1.67l-1-0.9l-1,0.9
		c-0.06,0.05-1.23,1.11-2.43,2.84c-0.6,0.87-1.21,1.91-1.67,3.1c-0.47,1.19-0.79,2.53-0.79,3.97v1.5h1.5V86.4z M74.93,86.4h1.5
		c0-1.44-0.33-2.78-0.79-3.97c-0.7-1.78-1.72-3.24-2.55-4.27c-0.84-1.03-1.51-1.64-1.55-1.67l-1-0.9l-1,0.9
		c-0.06,0.05-1.23,1.11-2.43,2.84c-0.6,0.87-1.21,1.91-1.67,3.1c-0.47,1.19-0.79,2.53-0.79,3.97v1.5h11.8v-1.5H74.93v-1.5h-8.8v1.5
		h1.5c0-0.99,0.22-1.96,0.58-2.88c0.54-1.37,1.38-2.61,2.09-3.47c0.35-0.43,0.67-0.78,0.9-1.01c0.11-0.12,0.2-0.2,0.26-0.26
		l0.06-0.06l0.01-0.01l-0.12-0.13l0.12,0.13l0,0l-0.12-0.13l0.12,0.13l-1-1.12l-1,1.12l0.41-0.46l-0.41,0.45l0,0l0.41-0.46
		l-0.41,0.45c0.01,0.01,1.03,0.94,2.02,2.39c0.49,0.72,0.97,1.56,1.32,2.47c0.35,0.9,0.57,1.86,0.57,2.83H74.93v-1.5V86.4z"/>
</g>
<g>
</g>
<g>
</g>
<g>
</g>
<g>
</g>
<g>
</g>
<g>
</g>
<g>
</g>
<g>
</g>
<g>
</g>
<g>
</g>
<g>
</g>
<g>
</g>
<g>
</g>
<g>
</g>
<g>
</g>
</svg>
