<?xml version="1.0" encoding="utf-8"?>
<!-- Generator: Adobe Illustrator 24.1.0, SVG Export Plug-In . SVG Version: 6.00 Build 0)  -->
<svg version="1.1" id="Warstwa_1" xmlns="http://www.w3.org/2000/svg" xmlns:xlink="http://www.w3.org/1999/xlink" x="0px" y="0px"
	 viewBox="0 0 100 100" style="enable-background:new 0 0 100 100;" xml:space="preserve">
<g>
	<path d="M75.64,79.38c-0.72,0-1.31,0.59-1.31,1.31v2.72c0,3.57-2.9,6.47-6.47,6.47H21.17c1.54-1.39,2.71-3.38,2.71-6.12V70.94
		c0-0.72-0.59-1.31-1.31-1.31c-0.72,0-1.31,0.59-1.31,1.31v12.82c0,5.04-5.66,6.1-5.9,6.14l-0.11,0.03
		c-0.11-0.03-0.22-0.05-0.34-0.05c-2.8,0-5.08-2.28-5.08-5.08v-8.56h7.08c0.72,0,1.31-0.59,1.31-1.31c0-0.72-0.59-1.31-1.31-1.31
		H8.53c-0.72,0-1.31,0.59-1.31,1.31v9.87c0,4.25,3.45,7.7,7.7,7.7c0.12,0,0.23-0.02,0.33-0.05c0.11,0.03,0.22,0.05,0.33,0.05h52.27
		c5.01,0,9.09-4.08,9.09-9.09v-2.72C76.95,79.97,76.36,79.38,75.64,79.38z M22.57,26.79c0.72,0,1.31-0.59,1.31-1.31V10.12h50.44
		v17.13c0,0.72,0.59,1.31,1.31,1.31s1.31-0.59,1.31-1.31V8.81c0-0.72-0.59-1.31-1.31-1.31H22.57c-0.72,0-1.31,0.59-1.31,1.31v16.67
		C21.26,26.21,21.85,26.79,22.57,26.79z M47.12,18.48c-0.72,0-1.31,0.59-1.31,1.31c0,0.72,0.59,1.31,1.31,1.31h21.14
		c0.72,0,1.31-0.59,1.31-1.31s-0.59-1.31-1.31-1.31H47.12z M29.69,18.48c-0.72,0-1.31,0.59-1.31,1.31c0,0.72,0.59,1.31,1.31,1.31
		h9.37c0.72,0,1.31-0.59,1.31-1.31s-0.59-1.31-1.31-1.31H29.69z M68.26,84.37c0.72,0,1.31-0.59,1.31-1.31s-0.59-1.31-1.31-1.31h-9.1
		c-0.72,0-1.31,0.59-1.31,1.31s0.59,1.31,1.31,1.31H68.26z M28.38,83.06c0,0.72,0.59,1.31,1.31,1.31h20.57
		c0.72,0,1.31-0.59,1.31-1.31s-0.59-1.31-1.31-1.31H29.69C28.96,81.75,28.38,82.34,28.38,83.06z M39.96,72.48H29.69
		c-0.72,0-1.31,0.59-1.31,1.31c0,0.72,0.59,1.31,1.31,1.31h10.28c0.72,0,1.31-0.59,1.31-1.31C41.27,73.06,40.69,72.48,39.96,72.48z
		 M69.32,53.73H48.13l-0.02,0l-0.14,0.01l-0.12,0.01l-0.1,0.03l-0.14,0.05l-0.08,0.04l-0.14,0.08l-0.09,0.07l-0.1,0.09l-0.08,0.09
		l-0.09,0.11l-0.05,0.09l-0.07,0.14l-0.01,0.01c-0.21,0.54-0.45,1.07-0.71,1.59c-0.33,0.64-0.07,1.43,0.57,1.76
		c0.19,0.1,0.4,0.14,0.6,0.14c0.48,0,0.94-0.26,1.17-0.71c0.17-0.33,0.32-0.66,0.47-1h20.32c0.72,0,1.31-0.59,1.31-1.31
		C70.63,54.32,70.04,53.73,69.32,53.73z M54.24,48.16h3.45c0.72,0,1.31-0.59,1.31-1.31v-3.57c0-0.35,0.29-0.64,0.64-0.64h4.31
		c0.23,0,0.38,0.12,0.45,0.19c0.07,0.07,0.19,0.22,0.19,0.46l-0.03,3.64c0,0.35,0.13,0.69,0.38,0.93s0.58,0.39,0.93,0.39h3.58
		c0.72,0,1.31-0.59,1.31-1.31s-0.59-1.31-1.31-1.31h-2.25l0.02-2.32c0.01-0.88-0.33-1.7-0.95-2.32c-0.62-0.62-1.44-0.96-2.31-0.96
		h-4.31c-1.8,0-3.26,1.46-3.26,3.26v2.26h-2.14c-0.72,0-1.31,0.59-1.31,1.31S53.51,48.16,54.24,48.16z M30.72,68.25
		c1.53,0,3.06-0.17,4.54-0.52c0.71-0.16,1.14-0.87,0.98-1.57c-0.16-0.71-0.87-1.14-1.57-0.98c-1.29,0.3-2.61,0.45-3.94,0.45
		c-9.58,0-17.37-7.79-17.37-17.37c0-9.58,7.79-17.37,17.37-17.37c2.28,0,4.49,0.43,6.57,1.29c0.67,0.27,1.44-0.05,1.71-0.72
		c0.27-0.67-0.05-1.44-0.72-1.71c-2.4-0.98-4.95-1.48-7.57-1.48c-11.02,0-19.99,8.97-19.99,19.99
		C10.73,59.29,19.69,68.25,30.72,68.25z M30.72,43.47c0.21,0,0.41,0.01,0.62,0.04c0.72,0.09,1.37-0.42,1.47-1.13
		c0.09-0.72-0.42-1.37-1.13-1.47c-0.31-0.04-0.63-0.06-0.95-0.06c-4.09,0-7.42,3.33-7.42,7.42c0,4.09,3.33,7.42,7.42,7.42
		c0.72,0,1.31-0.59,1.31-1.31s-0.59-1.31-1.31-1.31c-2.64,0-4.79-2.15-4.79-4.79S28.07,43.47,30.72,43.47z M91.3,76.42l-9.21-9.21
		c-0.51-0.51-1.34-0.51-1.85,0c-0.51,0.51-0.51,1.34,0,1.85l9.21,9.21c0.95,0.95,0.95,2.5,0,3.46c-0.95,0.95-2.51,0.96-3.46,0
		L73.77,69.52c5.52-4.52,9.04-11.38,9.04-19.06c0-13.59-11.05-24.64-24.64-24.64S33.54,36.87,33.54,50.46
		c0,13.59,11.05,24.64,24.64,24.64c4.96,0,9.58-1.48,13.46-4.02l12.5,12.5c0.99,0.99,2.29,1.48,3.58,1.48s2.59-0.49,3.58-1.48
		C93.27,81.61,93.27,78.39,91.3,76.42z M58.17,72.48c-12.14,0-22.02-9.88-22.02-22.02c0-12.14,9.88-22.02,22.02-22.02
		c12.14,0,22.02,9.88,22.02,22.02C80.19,62.6,70.31,72.48,58.17,72.48z M58.17,32.43c-9.94,0-18.02,8.09-18.02,18.02
		s8.09,18.02,18.02,18.02c9.94,0,18.03-8.09,18.03-18.02S68.11,32.43,58.17,32.43z M58.17,65.86c-8.49,0-15.4-6.91-15.4-15.4
		s6.91-15.4,15.4-15.4c8.49,0,15.4,6.91,15.4,15.4S66.67,65.86,58.17,65.86z M47.79,45.1c0.02,0.13,0.04,0.25,0.06,0.37
		c0.08,0.51,0.14,1.02,0.18,1.54l0,0.05c0.01,0.18,0.02,0.35,0.03,0.53c0.01,0.22,0.01,0.45,0.01,0.68c0,0.31-0.01,0.62-0.03,0.94
		c-0.01,0.17-0.02,0.34-0.03,0.51c-0.06,0.72,0.48,1.35,1.2,1.41l0.11,0c0.67,0,1.25-0.52,1.3-1.2c0.01-0.13,0.02-0.26,0.02-0.4
		l0.01-0.04l0-0.14c0.02-0.36,0.03-0.72,0.03-1.08c0-0.26-0.01-0.52-0.02-0.79c-0.01-0.2-0.02-0.39-0.03-0.58l-0.01-0.09
		c-0.04-0.59-0.11-1.16-0.2-1.74c-0.02-0.15-0.05-0.3-0.08-0.45l-0.01-0.04l0-0.01c-0.12-0.64-0.27-1.27-0.45-1.9
		c-0.2-0.69-0.93-1.09-1.62-0.89c-0.69,0.2-1.09,0.93-0.89,1.62C47.56,43.96,47.69,44.52,47.79,45.1z"/>
	<path d="M75.64,79.38v-0.5c-1,0-1.81,0.81-1.81,1.81v2.72c0,1.65-0.67,3.14-1.75,4.22c-1.08,1.08-2.57,1.75-4.22,1.75H21.17v0.5
		l0.34,0.37c1.62-1.46,2.88-3.6,2.88-6.49V70.94c0-1-0.81-1.81-1.81-1.81c-1,0-1.81,0.81-1.81,1.81v12.82c0,1.17-0.32,2.07-0.81,2.8
		c-0.72,1.1-1.85,1.81-2.82,2.25c-0.98,0.43-1.79,0.59-1.85,0.6l-0.02,0l-0.13,0.04l0.13,0.48l0.13-0.48
		c-0.14-0.04-0.29-0.07-0.47-0.07c-1.26,0-2.4-0.51-3.23-1.34c-0.83-0.83-1.34-1.97-1.34-3.24v-8.06l6.58,0c1,0,1.81-0.81,1.81-1.81
		c0-1-0.81-1.81-1.81-1.81H8.53c-1,0-1.81,0.81-1.81,1.81v9.87c0,4.52,3.68,8.2,8.2,8.2c0.18,0,0.33-0.03,0.46-0.07l-0.13-0.48
		l-0.13,0.48c0.13,0.03,0.29,0.07,0.46,0.07h52.27c5.29,0,9.59-4.3,9.59-9.59v-2.72c0-1-0.81-1.81-1.81-1.81V79.38v0.5
		c0.45,0,0.81,0.36,0.81,0.81v2.72c0,2.37-0.96,4.52-2.52,6.07c-1.56,1.56-3.7,2.52-6.07,2.52H15.59l-0.21-0.03l-0.13-0.03
		l-0.13,0.03L14.92,92c-1.99,0-3.78-0.81-5.09-2.11c-1.3-1.31-2.11-3.1-2.11-5.09v-9.87c0-0.45,0.36-0.81,0.81-0.81h8.39
		c0.45,0,0.81,0.36,0.81,0.81c0,0.45-0.36,0.81-0.81,0.81H9.34v9.06c0,3.08,2.5,5.58,5.58,5.58l0.2,0.03l0.13,0.04l0.24-0.07
		l-0.13-0.48l0.09,0.49c0.16-0.03,1.68-0.31,3.21-1.26c0.77-0.48,1.54-1.13,2.12-2.01c0.59-0.88,0.97-2,0.97-3.36V70.94
		c0-0.45,0.36-0.81,0.81-0.81c0.45,0,0.81,0.36,0.81,0.81v12.82c0,2.6-1.1,4.43-2.55,5.75l-0.96,0.87h47.98
		c3.85,0,6.97-3.13,6.97-6.97v-2.72c0-0.45,0.36-0.81,0.81-0.81V79.38z M22.57,26.79v0.5c1,0,1.81-0.81,1.81-1.81V10.62h49.44
		l0,16.63c0,1,0.81,1.81,1.81,1.81c1,0,1.81-0.81,1.81-1.81V8.81c0-1-0.81-1.81-1.81-1.81H22.57c-1,0-1.81,0.81-1.81,1.81v16.68v0
		c0,1,0.81,1.81,1.81,1.81V26.79v-0.5c-0.45,0-0.81-0.36-0.81-0.81v0V8.81c0-0.45,0.36-0.81,0.81-0.81h53.06
		c0.45,0,0.81,0.36,0.81,0.81v18.44c0,0.45-0.36,0.81-0.81,0.81c-0.45,0-0.81-0.36-0.81-0.81V9.62H23.38v15.86
		c0,0.45-0.36,0.81-0.81,0.81V26.79z M47.12,18.48v-0.5c-1,0-1.81,0.81-1.81,1.81c0,1,0.81,1.81,1.81,1.81h21.14
		c1,0,1.81-0.81,1.81-1.81c0-1-0.81-1.81-1.81-1.81H47.12V18.48v0.5h21.14c0.45,0,0.81,0.36,0.81,0.81c0,0.45-0.36,0.81-0.81,0.81
		H47.12c-0.45,0-0.81-0.36-0.81-0.81c0-0.45,0.36-0.81,0.81-0.81V18.48z M29.69,18.48v-0.5c-1,0-1.81,0.81-1.81,1.81
		c0,1,0.81,1.81,1.81,1.81h9.37c1,0,1.81-0.81,1.81-1.81c0-1-0.81-1.81-1.81-1.81h-9.37V18.48v0.5h9.37c0.45,0,0.81,0.36,0.81,0.81
		c0,0.45-0.36,0.81-0.81,0.81h-9.37c-0.45,0-0.81-0.36-0.81-0.81c0-0.45,0.36-0.81,0.81-0.81V18.48z M68.26,84.37v0.5
		c1,0,1.81-0.81,1.81-1.81c0-1-0.81-1.81-1.81-1.81h-9.1c-1,0-1.81,0.81-1.81,1.81c0,1,0.81,1.81,1.81,1.81h9.1V84.37v-0.5h-9.1
		c-0.45,0-0.81-0.36-0.81-0.81c0-0.45,0.36-0.81,0.81-0.81h9.1c0.45,0,0.81,0.36,0.81,0.81c0,0.45-0.36,0.81-0.81,0.81V84.37z
		 M28.38,83.06h-0.5c0,1,0.81,1.81,1.81,1.81h20.57c1,0,1.81-0.81,1.81-1.81c0-1-0.81-1.81-1.81-1.81H29.69
		c-1,0-1.81,0.81-1.81,1.81H28.38h0.5c0-0.45,0.36-0.81,0.81-0.81h20.57c0.45,0,0.81,0.36,0.81,0.81c0,0.45-0.36,0.81-0.81,0.81
		H29.69c-0.45,0-0.81-0.36-0.81-0.81H28.38z M39.96,72.48v-0.5H29.69c-1,0-1.81,0.81-1.81,1.81c0,1,0.81,1.81,1.81,1.81h10.28
		c1,0,1.81-0.81,1.81-1.81c0-1-0.81-1.81-1.81-1.81V72.48v0.5c0.45,0,0.81,0.36,0.81,0.81c0,0.45-0.36,0.81-0.81,0.81H29.69
		c-0.45,0-0.81-0.36-0.81-0.81c0-0.45,0.36-0.81,0.81-0.81h10.28V72.48z M69.32,53.73v-0.5H48.1l-0.04,0l0,0l-0.14,0.01l-0.01,0
		l-0.12,0.02l-0.04,0.01l-0.14,0.04l0,0l-0.15,0.05l-0.04,0.01l-0.12,0.06l0,0l-0.14,0.08l-0.04,0.02l-0.12,0.1l0,0l-0.11,0.09
		l-0.03,0.03l-0.1,0.12l0,0l-0.09,0.11l-0.03,0.03l-0.07,0.13l0,0.01l-0.08,0.15l0,0l-0.01,0.02l-0.01,0.02l-0.01,0.02
		c-0.2,0.52-0.44,1.04-0.69,1.54l0,0c-0.13,0.26-0.2,0.55-0.2,0.82c0,0.66,0.36,1.29,0.99,1.61l0,0c0.26,0.13,0.54,0.2,0.82,0.2
		c0.66,0,1.29-0.36,1.61-0.99l0,0c0.17-0.34,0.33-0.68,0.48-1.02L49,56.35v0.5h20.32c1,0,1.81-0.81,1.81-1.81l0,0
		c0-1-0.81-1.81-1.81-1.81V53.73v0.5c0.45,0,0.81,0.36,0.81,0.81l0,0c0,0.45-0.36,0.81-0.81,0.81H48.67l-0.13,0.3
		c-0.15,0.33-0.3,0.65-0.46,0.97l0,0c-0.14,0.28-0.43,0.44-0.72,0.44c-0.12,0-0.25-0.03-0.37-0.09l0,0
		c-0.28-0.14-0.44-0.43-0.44-0.72c0-0.12,0.03-0.25,0.09-0.37l0,0c0.27-0.53,0.52-1.08,0.73-1.64l-0.47-0.18l0.45,0.22l0.01-0.01
		l0,0l0.07-0.14l0.02-0.04l0.06-0.07l0.04-0.05l0.07-0.06l0.05-0.04l0.1-0.06l0.03-0.02l0.1-0.03l0.05-0.02l0.07-0.01l0.14-0.01l0,0
		l0.02,0l-0.05-0.5v0.5h21.19V53.73z M54.24,48.16v0.5h3.45c1,0,1.81-0.81,1.81-1.81v-3.57l0.14-0.14h4.31l0.1,0.04l0.35-0.35
		l-0.36,0.35l0.04,0.1l0,0.01l0.5,0l-0.5,0l-0.03,3.64l0,0l0,0.02c0,0.48,0.19,0.94,0.52,1.27c0.34,0.34,0.8,0.54,1.29,0.54h3.58
		c1,0,1.81-0.81,1.81-1.81c0-1-0.81-1.81-1.81-1.81h-1.75l0.01-1.81l0,0l0-0.03c0-1-0.39-1.94-1.09-2.65l0,0
		c-0.71-0.72-1.66-1.11-2.67-1.11h-4.31c-2.07,0-3.76,1.69-3.76,3.76v1.76l-1.64,0c-1,0-1.81,0.81-1.81,1.81
		c0,1,0.81,1.81,1.81,1.81V48.16v-0.5c-0.45,0-0.81-0.36-0.81-0.81c0-0.45,0.36-0.81,0.81-0.81h2.64v-2.76
		c0-1.52,1.24-2.76,2.76-2.76h4.31c0.74,0,1.43,0.29,1.96,0.82l0,0c0.52,0.52,0.8,1.21,0.8,1.94l0,0.02l0,0l-0.02,2.82h2.76
		c0.45,0,0.81,0.36,0.81,0.81c0,0.45-0.36,0.81-0.81,0.81h-3.58c-0.22,0-0.42-0.09-0.58-0.24c-0.15-0.15-0.23-0.36-0.23-0.57l0-0.01
		l0,0l0.03-3.64v0l0,0c0-0.41-0.21-0.68-0.33-0.8l0,0l0,0c-0.12-0.12-0.4-0.33-0.81-0.33h-4.31c-0.63,0-1.14,0.51-1.14,1.14v3.57
		c0,0.45-0.36,0.81-0.81,0.81h-3.45V48.16z M30.72,68.25v0.5c1.57,0,3.13-0.18,4.65-0.53l0,0c0.84-0.2,1.4-0.94,1.4-1.76
		c0-0.14-0.02-0.27-0.05-0.41l0,0c-0.19-0.84-0.94-1.4-1.76-1.4c-0.14,0-0.27,0.02-0.41,0.05l0,0c-1.25,0.29-2.54,0.44-3.83,0.44
		c-4.65,0-8.87-1.89-11.92-4.95c-3.06-3.06-4.95-7.27-4.95-11.92c0-4.65,1.89-8.87,4.95-11.92c3.06-3.06,7.27-4.95,11.92-4.95
		c2.21,0,4.36,0.42,6.38,1.25c0.22,0.09,0.46,0.14,0.69,0.14c0.71,0,1.39-0.42,1.68-1.12l0,0c0.09-0.22,0.14-0.46,0.14-0.68
		c0-0.71-0.42-1.39-1.13-1.68c-2.46-1.01-5.07-1.52-7.76-1.52c-11.3,0-20.49,9.19-20.49,20.49c0,11.3,9.19,20.49,20.49,20.49V68.25
		v-0.5c-5.37,0-10.24-2.18-13.77-5.71c-3.53-3.53-5.71-8.4-5.72-13.77c0-5.37,2.18-10.24,5.71-13.77c3.53-3.53,8.4-5.71,13.77-5.71
		c2.55,0,5.03,0.49,7.38,1.45c0.31,0.13,0.5,0.43,0.5,0.75c0,0.1-0.02,0.2-0.06,0.31l0,0c-0.13,0.31-0.43,0.5-0.75,0.5
		c-0.1,0-0.2-0.02-0.31-0.06c-2.15-0.88-4.42-1.32-6.76-1.32c-9.85,0-17.87,8.01-17.87,17.87c0,9.85,8.01,17.87,17.87,17.87
		c1.37,0,2.73-0.15,4.06-0.46l0,0l0.18-0.02c0.37,0,0.7,0.25,0.79,0.63l0,0l0.02,0.18c0,0.37-0.25,0.7-0.63,0.79l0,0
		c-1.44,0.33-2.93,0.5-4.42,0.5V68.25z M30.72,43.47v0.5c0.18,0,0.37,0.01,0.55,0.04l0,0l0.23,0.02c0.9,0,1.67-0.67,1.79-1.58l0,0
		l0.01-0.23c0-0.9-0.67-1.68-1.58-1.79l0,0c-0.33-0.04-0.67-0.06-1.01-0.06c-4.37,0-7.92,3.55-7.92,7.92c0,4.37,3.55,7.92,7.92,7.92
		c1,0,1.81-0.81,1.81-1.81c0-1-0.81-1.81-1.81-1.81c-1.19,0-2.26-0.48-3.04-1.26c-0.78-0.78-1.26-1.85-1.26-3.04
		c0-1.19,0.48-2.26,1.26-3.04c0.78-0.78,1.85-1.26,3.04-1.26V43.47v-0.5c-2.92,0-5.29,2.37-5.29,5.3c0,2.92,2.37,5.29,5.29,5.29
		c0.45,0,0.81,0.36,0.81,0.81c0,0.45-0.36,0.81-0.81,0.81c-1.91,0-3.63-0.77-4.89-2.03c-1.25-1.25-2.03-2.98-2.03-4.89
		c0-1.91,0.77-3.63,2.03-4.89c1.25-1.25,2.98-2.03,4.89-2.03c0.3,0,0.59,0.02,0.88,0.06l0,0c0.41,0.05,0.71,0.4,0.71,0.8l-0.01,0.1
		l0,0c-0.05,0.41-0.4,0.71-0.8,0.71l-0.11-0.01l0,0c-0.22-0.03-0.45-0.04-0.68-0.04V43.47z M91.3,76.42l0.35-0.35l-9.21-9.21l0,0
		c-0.35-0.35-0.82-0.53-1.28-0.53c-0.46,0-0.93,0.18-1.28,0.53l0,0c-0.35,0.35-0.53,0.82-0.53,1.28c0,0.46,0.18,0.93,0.53,1.28l0,0
		l9.21,9.21C89.47,79,89.66,79.5,89.66,80c0,0.5-0.19,1-0.57,1.38c-0.38,0.38-0.88,0.57-1.38,0.57c-0.5,0-1-0.19-1.38-0.57l0,0
		L74.13,69.16l-0.35,0.35l0.32,0.39c5.63-4.61,9.23-11.62,9.22-19.44c0-13.86-11.28-25.14-25.14-25.14
		c-13.86,0-25.14,11.28-25.14,25.14c0,13.86,11.28,25.14,25.14,25.14c5.06,0,9.78-1.51,13.73-4.1l-0.27-0.42l-0.35,0.35l12.5,12.5
		c1.08,1.09,2.51,1.63,3.94,1.63c1.42,0,2.85-0.54,3.94-1.63c1.08-1.08,1.63-2.51,1.63-3.94c0-1.42-0.54-2.85-1.63-3.94L91.3,76.42
		l-0.35,0.35c0.89,0.89,1.33,2.06,1.34,3.23c0,1.17-0.44,2.34-1.34,3.23c-0.89,0.89-2.06,1.33-3.23,1.33
		c-1.17,0-2.34-0.44-3.23-1.33L71.7,70.44l-0.34,0.22c-3.79,2.48-8.32,3.93-13.18,3.93c-6.66,0-12.69-2.71-17.06-7.08
		c-4.37-4.37-7.08-10.4-7.08-17.06c0-6.66,2.71-12.69,7.08-17.06c4.37-4.37,10.4-7.08,17.06-7.08c6.66,0,12.69,2.71,17.06,7.08
		c4.37,4.37,7.08,10.4,7.08,17.06c0,7.52-3.45,14.24-8.86,18.67l-0.43,0.35l12.6,12.6l0,0c0.57,0.57,1.33,0.86,2.08,0.86
		c0.75,0,1.51-0.29,2.08-0.86c0.57-0.57,0.86-1.33,0.86-2.08c0-0.75-0.29-1.51-0.86-2.08l-9.21-9.21l0,0
		c-0.16-0.16-0.24-0.36-0.24-0.57c0-0.21,0.08-0.41,0.24-0.57l0,0c0.16-0.16,0.36-0.24,0.57-0.24c0.21,0,0.41,0.08,0.57,0.24l0,0
		l9.21,9.21L91.3,76.42z M58.17,72.48v-0.5c-5.93,0-11.31-2.41-15.21-6.31c-3.9-3.9-6.31-9.27-6.31-15.21
		c0-5.93,2.41-11.31,6.31-15.21c3.9-3.9,9.27-6.31,15.21-6.31c5.93,0,11.31,2.41,15.21,6.31c3.9,3.9,6.31,9.27,6.31,15.21
		c0,5.93-2.41,11.31-6.31,15.21c-3.9,3.9-9.28,6.31-15.21,6.31V72.48v0.5c12.42,0,22.52-10.1,22.52-22.52
		c0-12.42-10.1-22.52-22.52-22.52c-12.42,0-22.52,10.1-22.52,22.52c0,12.42,10.1,22.52,22.52,22.52V72.48z M58.17,32.43v-0.5
		c-10.22,0-18.52,8.31-18.52,18.52c0,10.22,8.31,18.52,18.52,18.52c10.22,0,18.52-8.31,18.53-18.52c0-10.22-8.31-18.52-18.53-18.52
		V32.43v0.5c4.83,0,9.21,1.96,12.39,5.14c3.17,3.18,5.14,7.55,5.14,12.39c0,4.83-1.96,9.21-5.14,12.39
		c-3.18,3.17-7.55,5.14-12.39,5.14c-4.83,0-9.21-1.96-12.39-5.14c-3.17-3.18-5.14-7.55-5.14-12.39c0-4.83,1.96-9.21,5.14-12.39
		c3.18-3.17,7.55-5.14,12.39-5.14V32.43z M58.17,65.86v-0.5c-4.11,0-7.83-1.67-10.53-4.37c-2.7-2.7-4.37-6.42-4.37-10.53
		c0-4.11,1.67-7.83,4.37-10.53c2.7-2.7,6.42-4.37,10.53-4.37c4.11,0,7.83,1.67,10.53,4.37c2.7,2.7,4.37,6.42,4.37,10.53
		c0,4.11-1.67,7.83-4.37,10.53c-2.7,2.7-6.42,4.37-10.53,4.37V65.86v0.5c8.77,0,15.9-7.13,15.9-15.9c0-8.77-7.13-15.9-15.9-15.9
		c-8.77,0-15.9,7.13-15.9,15.9c0,8.77,7.13,15.9,15.9,15.9V65.86z M47.79,45.1l-0.49,0.09c0.02,0.11,0.04,0.23,0.06,0.36l0,0
		c0.08,0.49,0.14,0.99,0.18,1.49l0,0l0,0.05l0,0c0.01,0.17,0.02,0.34,0.03,0.51l0,0c0.01,0.22,0.01,0.44,0.01,0.66
		c0,0.3-0.01,0.6-0.03,0.91l0,0c-0.01,0.17-0.02,0.34-0.03,0.49l0,0l-0.01,0.15c0,0.93,0.72,1.72,1.66,1.8l0.01,0l0.12,0l0.01,0
		h0.01c0.93,0,1.72-0.72,1.8-1.66l0,0c0.01-0.14,0.02-0.28,0.03-0.41l-0.5-0.03l0.49,0.08l0.01-0.04l0-0.03l0-0.17l-0.5-0.01
		l0.5,0.03c0.02-0.36,0.03-0.73,0.03-1.1c0-0.27-0.01-0.54-0.02-0.81l0,0c-0.01-0.21-0.02-0.41-0.03-0.6l0,0l-0.01-0.09
		c-0.04-0.6-0.11-1.19-0.21-1.78l0,0c-0.02-0.15-0.05-0.31-0.08-0.46l-0.49,0.09l0.49-0.08l-0.01-0.04l0-0.03l-0.01-0.04l-0.48,0.14
		l0.49-0.09c-0.12-0.65-0.28-1.3-0.46-1.94c-0.23-0.79-0.95-1.3-1.74-1.3c-0.17,0-0.34,0.02-0.51,0.07c-0.79,0.23-1.3,0.95-1.3,1.74
		c0,0.17,0.02,0.34,0.07,0.51l0,0c0.16,0.54,0.29,1.09,0.39,1.65l0,0l0,0L47.79,45.1l0.49-0.09c-0.11-0.59-0.25-1.17-0.41-1.75l0,0
		l-0.03-0.23c0-0.35,0.23-0.68,0.58-0.78l0.23-0.03c0.35,0,0.68,0.23,0.78,0.58c0.18,0.61,0.32,1.22,0.44,1.85l0,0.02l0,0.01l0,0.01
		l0,0.01l0,0.01c0.03,0.14,0.05,0.29,0.07,0.44l0,0l0,0c0.09,0.56,0.16,1.12,0.2,1.69l0.01,0.09l0,0c0.01,0.19,0.02,0.38,0.03,0.57
		l0,0l0,0c0.01,0.26,0.02,0.51,0.02,0.77c0,0.35-0.01,0.7-0.03,1.05l0,0.01l0,0.11l0,0.01l0,0.02l0,0.02
		c-0.01,0.14-0.01,0.27-0.02,0.39l0,0c-0.03,0.42-0.39,0.74-0.81,0.74v0.5l0.02-0.5l-0.11,0l-0.02,0.5l0.04-0.5
		c-0.42-0.03-0.74-0.39-0.74-0.81l0-0.07l0,0c0.01-0.18,0.02-0.35,0.03-0.52l0,0c0.02-0.32,0.03-0.64,0.03-0.96
		c0-0.24-0.01-0.47-0.01-0.7l0,0c-0.01-0.18-0.02-0.36-0.03-0.55l0,0l0-0.05l0,0c-0.04-0.53-0.1-1.06-0.19-1.58l0,0l0,0
		c-0.02-0.12-0.04-0.24-0.06-0.38l0,0L47.79,45.1z"/>
</g>
<g>
</g>
<g>
</g>
<g>
</g>
<g>
</g>
<g>
</g>
<g>
</g>
<g>
</g>
<g>
</g>
<g>
</g>
<g>
</g>
<g>
</g>
<g>
</g>
<g>
</g>
<g>
</g>
<g>
</g>
</svg>
