<?xml version="1.0" encoding="utf-8"?>
<!-- Generator: Adobe Illustrator 24.1.0, SVG Export Plug-In . SVG Version: 6.00 Build 0)  -->
<svg version="1.1" id="Warstwa_1" xmlns="http://www.w3.org/2000/svg" xmlns:xlink="http://www.w3.org/1999/xlink" x="0px" y="0px"
	 viewBox="0 0 100 100" style="enable-background:new 0 0 100 100;" xml:space="preserve">
<g>
	<path d="M33.79,58.98c4.54-2.53,10.06-2.56,14.63-0.08L61.8,66.1c2.61,1.41,2.48,5.21-0.21,6.39c-2.88,1.27-6.14,1.37-9.09,0.27
		l-8.27-3.05c-0.77-0.25-1.59,0.16-1.84,0.93c-0.24,0.73,0.12,1.52,0.83,1.81l8.27,3.05c3.66,1.36,7.71,1.24,11.28-0.34
		c4.92-2.16,5.16-9.08,0.42-11.63l-13.38-7.21c-5.44-2.95-12.02-2.91-17.43,0.1l-2.59,1.43c-0.88,0.49-1.76,0.97-2.65,1.46
		l-6.25,3.47H7.67c-0.81,0-1.46,0.65-1.46,1.46c0,0.81,0.65,1.46,1.46,1.46c14.8,0,13.84,0.07,14.31-0.18L33.79,58.98z M89.7,59.83
		c-1.56-0.55-3.27-0.43-4.74,0.32l-13.89,7.01c-0.72,0.36-1.01,1.24-0.65,1.96s1.24,1.01,1.96,0.65l13.88-7
		c1.57-0.79,3.49-0.15,4.27,1.42c0.65,1.3,0.33,2.89-0.77,3.84L69.06,85.88c-3.35,2.89-7.8,4.19-12.18,3.55l-31.06-4.51
		c-0.8-0.1-1.53,0.47-1.63,1.27c-0.1,0.78,0.44,1.49,1.21,1.62c33.89,4.91,31.88,4.69,33.69,4.69c4.36,0,8.57-1.57,11.87-4.42
		l20.71-17.86C95.2,67.18,94.16,61.38,89.7,59.83z M18.92,84.29h-7.6c-0.81,0-1.46,0.65-1.46,1.46c0,0.81,0.65,1.46,1.46,1.46h7.6
		c0.81,0,1.46-0.65,1.46-1.46C20.38,84.94,19.73,84.29,18.92,84.29z"/>
	<path d="M33.79,58.98l0.13,0.23c2.26-1.26,4.76-1.89,7.26-1.89c2.45,0,4.9,0.6,7.12,1.8l0,0l13.38,7.21
		c1.18,0.63,1.75,1.78,1.75,2.93c0,1.23-0.65,2.43-1.94,2.99l0,0c-1.52,0.67-3.15,1.01-4.78,1.01c-1.39,0-2.79-0.25-4.12-0.74l0,0
		l-8.27-3.05l0,0c-0.18-0.06-0.36-0.09-0.54-0.09c-0.72,0-1.39,0.46-1.63,1.18c-0.06,0.18-0.09,0.36-0.09,0.54
		c0,0.68,0.41,1.32,1.07,1.59l0,0l8.27,3.05l0,0c1.72,0.64,3.52,0.95,5.31,0.95c2.1,0,4.2-0.43,6.16-1.3l0,0l0,0
		c2.64-1.16,3.99-3.65,3.99-6.14c0-2.33-1.17-4.67-3.55-5.95l-13.38-7.21l0,0c-2.73-1.48-5.74-2.22-8.75-2.22
		c-3.08,0-6.15,0.77-8.93,2.32l-2.59,1.43l0,0c-0.88,0.49-1.76,0.97-2.65,1.46l-6.2,3.43l-13.16,0c-0.95,0-1.72,0.77-1.72,1.72
		c0,0.95,0.77,1.72,1.72,1.72c5.42,0,8.72,0.01,10.76,0.01c1.76,0,2.57-0.01,3-0.04c0.21-0.01,0.34-0.03,0.45-0.07
		c0.11-0.04,0.17-0.09,0.22-0.12l0,0l11.82-6.54l0,0L33.79,58.98l-0.12-0.23l-11.82,6.54l0,0c-0.1,0.05-0.12,0.07-0.15,0.08
		c-0.05,0.02-0.21,0.05-0.69,0.06c-0.48,0.01-1.26,0.02-2.58,0.02c-2.04,0-5.34-0.01-10.76-0.01c-0.66,0-1.2-0.54-1.2-1.2
		c0-0.66,0.54-1.2,1.2-1.2h13.29l6.31-3.5l0,0c0.88-0.49,1.76-0.97,2.65-1.46l2.59-1.43l0,0c2.7-1.5,5.69-2.25,8.68-2.25
		c2.92,0,5.85,0.72,8.5,2.16l0,0l13.38,7.21c2.2,1.19,3.28,3.34,3.28,5.5c0,2.31-1.24,4.6-3.68,5.67l0,0
		c-1.89,0.83-3.92,1.25-5.95,1.25c-1.74,0-3.48-0.31-5.14-0.92l0,0l-8.27-3.05l-0.09,0.24l0.1-0.24c-0.46-0.19-0.75-0.64-0.75-1.11
		c0-0.13,0.02-0.25,0.06-0.38c0.17-0.51,0.64-0.82,1.14-0.83c0.12,0,0.25,0.02,0.38,0.06l0.08-0.24l-0.09,0.24L52.41,73l0,0
		c1.39,0.52,2.85,0.77,4.3,0.77c1.7,0,3.4-0.35,4.99-1.05l0,0c1.49-0.65,2.25-2.06,2.25-3.47c0-1.32-0.67-2.66-2.02-3.38
		l-13.38-7.21l0,0c-2.3-1.24-4.83-1.87-7.36-1.87c-2.59,0-5.18,0.65-7.52,1.95l0,0L33.79,58.98z M89.7,59.83l0.09-0.24
		c-0.68-0.24-1.38-0.36-2.09-0.36c-0.98,0-1.96,0.23-2.86,0.68l0,0l-13.89,7.01c-0.6,0.3-0.94,0.91-0.94,1.54
		c0,0.26,0.06,0.53,0.18,0.77c0.3,0.6,0.91,0.94,1.53,0.94c0.26,0,0.53-0.06,0.77-0.18l13.88-7l0,0c0.42-0.21,0.87-0.31,1.31-0.31
		c1.07,0,2.11,0.59,2.62,1.62c0.21,0.42,0.31,0.86,0.31,1.31c0,0.83-0.35,1.65-1.02,2.22L68.89,85.69c-2.74,2.37-6.23,3.64-9.8,3.64
		c-0.72,0-1.45-0.05-2.17-0.16l0,0l-31.06-4.51l0,0l-0.21-0.01c-0.86,0-1.59,0.64-1.7,1.51l-0.01,0.21c0,0.83,0.6,1.55,1.43,1.69
		l0,0l0,0c31.11,4.51,31.95,4.69,33.34,4.69c0.12,0,0.24,0,0.39,0c4.42,0,8.69-1.59,12.04-4.48l20.71-17.86
		c1.49-1.29,2.2-3.06,2.2-4.8c0-2.55-1.51-5.07-4.26-6.03l0,0L89.7,59.83l-0.08,0.24c2.54,0.88,3.91,3.19,3.92,5.54
		c0,1.61-0.65,3.23-2.02,4.41L70.8,87.89c-3.25,2.81-7.41,4.35-11.7,4.35c-0.15,0-0.27,0-0.39,0c-1.28,0-2.16-0.18-33.27-4.69
		l-0.04,0.25l0.04-0.25c-0.59-0.1-1-0.61-1-1.18l0.01-0.15c0.07-0.61,0.59-1.06,1.19-1.06l0.15,0.01l0.03-0.26l-0.04,0.25
		l31.06,4.51l0,0c0.75,0.11,1.5,0.16,2.25,0.16c3.7,0,7.3-1.32,10.14-3.77l20.71-17.86c0.78-0.67,1.2-1.63,1.2-2.61
		c0-0.52-0.12-1.05-0.36-1.54c-0.6-1.21-1.82-1.9-3.08-1.9c-0.52,0-1.04,0.12-1.54,0.36l-13.88,7c-0.17,0.09-0.36,0.13-0.54,0.13
		c-0.44,0-0.86-0.24-1.07-0.66c-0.09-0.17-0.13-0.36-0.13-0.54c0-0.44,0.24-0.86,0.66-1.08l13.89-7.01l0,0
		c0.82-0.42,1.72-0.63,2.62-0.63c0.65,0,1.3,0.11,1.92,0.33l0,0L89.7,59.83z M18.92,84.29v-0.26h-7.6c-0.95,0-1.72,0.77-1.72,1.72
		c0,0.95,0.77,1.72,1.72,1.72h7.6c0.95,0,1.72-0.77,1.72-1.72c0-0.95-0.77-1.72-1.72-1.72V84.29v0.26c0.66,0,1.2,0.54,1.2,1.2
		c0,0.66-0.54,1.2-1.2,1.2h-7.6c-0.66,0-1.2-0.54-1.2-1.2c0-0.66,0.54-1.2,1.2-1.2h7.6V84.29z"/>
	<path d="M40.34,48.7c-0.36,0-0.64-0.29-0.64-0.64l0.02-0.17l2.64-9.66c-5.59-9.91-2.08-22.48,7.83-28.07
		c9.91-5.59,22.48-2.08,28.06,7.83s2.08,22.48-7.83,28.07c-6.24,3.52-13.87,3.54-20.13,0.06l-9.78,2.58L40.34,48.7z M50.38,44.77
		c0.11,0,0.22,0.03,0.32,0.08c9.25,5.31,21.06,2.12,26.37-7.13c5.31-9.25,2.12-21.06-7.13-26.37c-9.25-5.31-21.06-2.12-26.37,7.13
		c-3.44,5.99-3.42,13.35,0.04,19.32c0.09,0.15,0.11,0.33,0.06,0.49l-2.41,8.85l8.96-2.36L50.38,44.77z"/>
	<path d="M40.34,48.7v-1v0.36l0.36,0c0-0.2-0.16-0.35-0.36-0.36v0.36l0.36,0l-1,0l0.99,0.14l0.01-0.11l2.73-9.99l-0.2-0.36
		c-1.72-3.05-2.53-6.35-2.53-9.61c0-6.85,3.59-13.49,9.98-17.1c3.05-1.72,6.35-2.53,9.61-2.53c6.85,0,13.49,3.59,17.1,9.98
		c1.72,3.05,2.53,6.35,2.53,9.61c0,6.85-3.59,13.49-9.98,17.09c-2.99,1.68-6.31,2.53-9.63,2.53c-3.28,0-6.57-0.82-9.53-2.47
		l-0.35-0.2l-10.08,2.65l-0.06,0L40.34,48.7v-1V48.7l0.06,1l0.16-0.01l0.1-0.01l9.88-2.6l-0.25-0.97l-0.49,0.87
		c3.27,1.82,6.88,2.72,10.5,2.72c3.66,0,7.32-0.93,10.61-2.78c7.04-3.97,11-11.3,11-18.84c0-3.59-0.9-7.24-2.79-10.59
		c-3.97-7.04-11.3-11-18.84-11c-3.59,0-7.24,0.9-10.59,2.79c-7.04,3.97-11,11.3-11,18.84c0,3.59,0.9,7.24,2.79,10.59l0.87-0.49
		l-0.96-0.26l-2.65,9.72l-0.03,0.24l-0.01,0.07l0,0.07c0,0.91,0.74,1.64,1.64,1.64h0.03l0.03,0L40.34,48.7z M50.38,44.77l0.01,1
		l0-0.46l0,0.46l0,0l0-0.46l0,0.46v-0.36l-0.18,0.31l0.18,0.05v-0.36l-0.18,0.31l0,0c3.19,1.83,6.67,2.7,10.1,2.7
		c7.03,0,13.88-3.66,17.63-10.2c1.83-3.19,2.7-6.67,2.7-10.1c0-7.03-3.66-13.88-10.2-17.63c-3.19-1.83-6.67-2.7-10.1-2.7
		c-7.03,0-13.88,3.66-17.63,10.2c-1.8,3.13-2.7,6.63-2.7,10.12c0,3.52,0.92,7.05,2.75,10.2l0,0l0.31-0.18l-0.36,0l0.05,0.18
		l0.31-0.18l-0.36,0h0.35l-0.34-0.09l-0.01,0.09h0.35l-0.34-0.09l0,0l-2.87,10.52l10.57-2.78l0.08-0.01L50.38,44.77l0.01,1
		L50.38,44.77l-0.13-0.99l-0.15,0.02l-0.06,0.01l-7.35,1.94l1.96-7.18l0,0c0.04-0.14,0.06-0.29,0.06-0.43
		c0-0.29-0.07-0.57-0.22-0.83l0,0c-1.65-2.84-2.48-6.02-2.48-9.2c0-3.15,0.81-6.3,2.43-9.12c3.39-5.9,9.55-9.19,15.9-9.19
		c3.09,0,6.23,0.78,9.11,2.44c5.9,3.39,9.19,9.55,9.19,15.9c0,3.09-0.78,6.23-2.44,9.11c-3.39,5.9-9.55,9.19-15.9,9.19
		c-3.09,0-6.23-0.78-9.11-2.44l0,0l0,0c-0.25-0.14-0.53-0.21-0.81-0.21l-0.02,0l-0.06,0l-0.06,0.01L50.38,44.77z"/>
	<path d="M60.3,22.3c-2.31,0-4.19-1.87-4.19-4.18c0-2.31,1.87-4.19,4.19-4.19s4.18,1.87,4.18,4.19C64.49,20.43,62.62,22.3,60.3,22.3
		z M60.3,15.22c-1.6,0-2.9,1.3-2.9,2.9c0,1.6,1.3,2.9,2.9,2.9c1.6,0,2.9-1.3,2.9-2.9C63.2,16.51,61.9,15.22,60.3,15.22z"/>
	<path d="M60.3,22.3v-1c-1.76,0-3.18-1.43-3.19-3.18c0-1.76,1.43-3.18,3.19-3.19c1.76,0,3.18,1.43,3.18,3.19
		c0,1.76-1.43,3.18-3.18,3.18V22.3v1c2.86,0,5.18-2.32,5.18-5.18c0-2.86-2.32-5.18-5.18-5.19c-2.86,0-5.18,2.32-5.19,5.19
		c0,2.86,2.32,5.18,5.19,5.18V22.3z M60.3,15.22v-1c-2.15,0-3.9,1.74-3.9,3.9c0,2.15,1.74,3.9,3.9,3.9c2.15,0,3.9-1.74,3.9-3.9
		c0-2.15-1.75-3.9-3.9-3.9V15.22v1c1.05,0,1.9,0.85,1.9,1.9c0,1.05-0.85,1.9-1.9,1.9c-1.05,0-1.9-0.85-1.9-1.9
		c0-1.05,0.85-1.9,1.9-1.9V15.22z"/>
	<path d="M60.3,42.26c-2.31,0-4.19-1.87-4.19-4.19v-8.69c0-2.31,1.87-4.19,4.19-4.19s4.18,1.87,4.18,4.19v8.69
		C64.49,40.38,62.62,42.26,60.3,42.26z M60.3,26.48c-1.6,0-2.9,1.3-2.9,2.9v8.69c0,1.6,1.3,2.9,2.9,2.9c1.6,0,2.9-1.3,2.9-2.9v-8.69
		C63.2,27.78,61.9,26.48,60.3,26.48z"/>
	<path d="M60.3,42.26v-1c-1.76,0-3.18-1.43-3.19-3.19v-8.69c0-1.76,1.43-3.18,3.19-3.19c1.76,0,3.18,1.43,3.18,3.19v8.69
		c0,1.76-1.43,3.18-3.18,3.19V42.26v1c2.86,0,5.18-2.32,5.18-5.19v-8.69c0-2.86-2.32-5.18-5.18-5.19c-2.86,0-5.18,2.32-5.19,5.19
		v8.69c0,2.86,2.32,5.18,5.19,5.19V42.26z M60.3,26.48v-1c-2.15,0-3.9,1.74-3.9,3.9v8.69c0,2.15,1.74,3.9,3.9,3.9
		c2.15,0,3.9-1.74,3.9-3.9v-8.69c0-2.15-1.75-3.9-3.9-3.9V26.48v1c1.05,0,1.9,0.85,1.9,1.9v8.69c0,1.05-0.85,1.9-1.9,1.9
		c-1.05,0-1.9-0.85-1.9-1.9v-8.69c0-1.05,0.85-1.9,1.9-1.9V26.48z"/>
</g>
<g>
</g>
<g>
</g>
<g>
</g>
<g>
</g>
<g>
</g>
<g>
</g>
<g>
</g>
<g>
</g>
<g>
</g>
<g>
</g>
<g>
</g>
<g>
</g>
<g>
</g>
<g>
</g>
<g>
</g>
</svg>
