<?xml version="1.0" encoding="utf-8"?>
<!-- Generator: Adobe Illustrator 24.1.0, SVG Export Plug-In . SVG Version: 6.00 Build 0)  -->
<svg version="1.1" id="Warstwa_1" xmlns="http://www.w3.org/2000/svg" xmlns:xlink="http://www.w3.org/1999/xlink" x="0px" y="0px"
	 viewBox="0 0 100 100" style="enable-background:new 0 0 100 100;" xml:space="preserve">
<style type="text/css">
	.st0{fill:none;stroke:#000000;stroke-width:3;stroke-miterlimit:10;}
</style>
<path id="icons" class="st0" d="M56.05,18.76c17.25,5.13,27.08,23.28,21.94,40.53c-5.13,17.25-23.28,27.08-40.53,21.94
	C20.2,76.1,10.38,57.96,15.51,40.7c3.77-12.67,14.82-21.81,27.97-23.13 M79.99,29.4c3.84,6.18,5.88,13.32,5.87,20.6 M65.92,15.91
	c3.12,1.73,5.99,3.88,8.52,6.39 M25.16,82.59c-2.2-1.42-4.25-3.06-6.13-4.89 M67.01,38.59L26.47,94l0,0L51.6,48.37H28.78L49.01,6
	h14.67L44.2,38.59H67.01z"/>
<g>
</g>
<g>
</g>
<g>
</g>
<g>
</g>
<g>
</g>
<g>
</g>
<g>
</g>
<g>
</g>
<g>
</g>
<g>
</g>
<g>
</g>
<g>
</g>
<g>
</g>
<g>
</g>
<g>
</g>
</svg>
