<?xml version="1.0" encoding="utf-8"?>
<!-- Generator: Adobe Illustrator 24.1.0, SVG Export Plug-In . SVG Version: 6.00 Build 0)  -->
<svg version="1.1" id="Warstwa_1" xmlns="http://www.w3.org/2000/svg" xmlns:xlink="http://www.w3.org/1999/xlink" x="0px" y="0px"
	 viewBox="0 0 100 100" style="enable-background:new 0 0 100 100;" xml:space="preserve">
<path d="M50,92.5C26.57,92.5,7.5,73.43,7.5,50S26.57,7.5,50,7.5S92.5,26.57,92.5,50S73.43,92.5,50,92.5z M50,11.04
	c-21.48,0-38.96,17.48-38.96,38.96S28.52,88.96,50,88.96S88.96,71.48,88.96,50S71.48,11.04,50,11.04z M50,81.88
	c-15.62,0-28.33-12.71-28.33-28.33c0-0.98,0.79-1.77,1.77-1.77s1.77,0.79,1.77,1.77c0,13.67,11.12,24.79,24.79,24.79
	s24.79-11.12,24.79-24.79c0-0.98,0.79-1.77,1.77-1.77s1.77,0.79,1.77,1.77C78.33,69.16,65.62,81.88,50,81.88z M41.15,44.69
	c-0.98,0-1.77-0.79-1.77-1.77c0-2.93-2.38-5.31-5.31-5.31s-5.31,2.38-5.31,5.31c0,0.98-0.79,1.77-1.77,1.77
	c-0.98,0-1.77-0.79-1.77-1.77c0-4.88,3.97-8.85,8.85-8.85s8.85,3.97,8.85,8.85C42.92,43.9,42.12,44.69,41.15,44.69z M73.02,44.69
	c-0.98,0-1.77-0.79-1.77-1.77c0-2.93-2.38-5.31-5.31-5.31c-2.93,0-5.31,2.38-5.31,5.31c0,0.98-0.79,1.77-1.77,1.77
	c-0.98,0-1.77-0.79-1.77-1.77c0-4.88,3.97-8.85,8.85-8.85s8.85,3.97,8.85,8.85C74.79,43.9,74,44.69,73.02,44.69z"/>
<g>
</g>
<g>
</g>
<g>
</g>
<g>
</g>
<g>
</g>
<g>
</g>
<g>
</g>
<g>
</g>
<g>
</g>
<g>
</g>
<g>
</g>
<g>
</g>
<g>
</g>
<g>
</g>
<g>
</g>
</svg>
