<?xml version="1.0" encoding="utf-8"?>
<!-- Generator: Adobe Illustrator 24.1.0, SVG Export Plug-In . SVG Version: 6.00 Build 0)  -->
<svg version="1.1" id="Warstwa_1" xmlns="http://www.w3.org/2000/svg" xmlns:xlink="http://www.w3.org/1999/xlink" x="0px" y="0px"
	 viewBox="0 0 100 100" style="enable-background:new 0 0 100 100;" xml:space="preserve">
<path d="M84.8,7.5H15.2c-4.3,0-7.7,3.5-7.7,7.7v69.5c0,4.3,3.5,7.7,7.7,7.7h38.6V57.7H42.3V46.1h11.6v-6.2c0-11.8,5.7-17,15.5-17
	c4.7,0,7.2,0.3,8.3,0.5v11.1h-6.7c-4.2,0-5.6,2.2-5.6,6.6v5h12.2L76,57.7H65.4v34.8h19.3c4.3,0,7.7-3.5,7.7-7.7V15.2
	C92.5,11,89,7.5,84.8,7.5z"/>
</svg>
