<?xml version="1.0" standalone="no"?>
<!DOCTYPE svg PUBLIC "-//W3C//DTD SVG 20010904//EN"
 "http://www.w3.org/TR/2001/REC-SVG-20010904/DTD/svg10.dtd">
<svg version="1.0" xmlns="http://www.w3.org/2000/svg"
 width="700.000000pt" height="700.000000pt" viewBox="0 0 700.000000 700.000000"
 preserveAspectRatio="xMidYMid meet">
<metadata>
Created by potrace 1.11, written by Peter Selinger 2001-2013
</metadata>
<g transform="translate(0.000000,700.000000) scale(0.100000,-0.100000)"
fill="#000000" stroke="none">
<path d="M0 3500 l0 -3500 3500 0 3500 0 0 3500 0 3500 -3500 0 -3500 0 0
-3500z m3548 2135 c27 -10 57 -13 78 -9 47 9 78 -1 118 -37 19 -16 54 -40 78
-52 33 -17 49 -35 68 -74 14 -28 37 -63 51 -77 15 -15 29 -41 32 -59 4 -28 2
-195 -6 -359 -2 -54 -1 -57 19 -52 15 4 29 -3 49 -27 25 -31 27 -38 23 -100
-7 -92 -37 -152 -94 -185 -29 -17 -44 -33 -44 -46 0 -11 -11 -47 -24 -81 -54
-136 -47 -153 90 -211 55 -23 140 -67 190 -97 l89 -54 126 4 c143 4 221 -9
274 -45 l37 -25 61 57 c98 91 256 153 389 154 101 0 259 -33 362 -75 18 -8 19
-3 12 166 -10 229 -20 305 -52 381 -34 83 -110 218 -197 351 -94 143 -98 144
-257 82 -42 -17 -94 -19 -120 -5 -15 8 -24 6 -40 -10 -12 -12 -33 -20 -54 -20
-19 0 -38 -4 -41 -10 -3 -5 -17 -10 -30 -10 -13 0 -27 5 -30 10 -3 6 -24 10
-46 10 -57 0 -93 38 -109 113 -14 68 2 141 51 239 64 129 94 148 231 148 149
0 320 -43 457 -115 79 -42 83 -46 154 -148 82 -119 215 -265 390 -428 352
-327 500 -528 602 -819 32 -90 36 -114 32 -168 -6 -81 -14 -89 -222 -240 -100
-72 -207 -162 -285 -237 -197 -191 -350 -294 -515 -345 -86 -26 -218 -36 -307
-22 -87 14 -126 3 -172 -48 -20 -22 -58 -84 -85 -139 -71 -140 -143 -260 -193
-319 -24 -28 -109 -110 -191 -182 -94 -84 -154 -145 -168 -171 -59 -116 -85
-337 -75 -651 3 -119 9 -223 12 -232 6 -15 -66 -16 -766 -16 -678 0 -771 2
-766 15 3 8 8 108 12 222 10 311 -17 547 -75 662 -14 27 -78 91 -186 187 -187
166 -222 211 -349 453 -109 209 -146 240 -264 220 -151 -24 -294 0 -449 76
-122 60 -232 143 -383 290 -77 74 -186 165 -285 237 -88 63 -172 127 -186 142
-51 50 -51 128 -3 268 98 283 245 486 562 780 194 180 351 350 429 466 65 97
90 118 204 171 119 55 231 81 374 88 112 4 123 3 165 -19 36 -19 51 -36 81
-92 47 -88 73 -168 72 -227 -1 -101 -43 -159 -114 -159 -21 0 -41 -4 -44 -10
-3 -5 -17 -10 -30 -10 -13 0 -27 5 -30 10 -3 6 -22 10 -41 10 -21 0 -42 8 -54
20 -16 16 -25 18 -40 10 -26 -14 -78 -12 -120 5 -161 63 -164 62 -258 -83
-100 -153 -179 -299 -207 -379 -19 -54 -27 -106 -35 -229 -5 -87 -10 -189 -10
-225 l0 -67 88 28 c91 30 211 50 290 50 134 -1 291 -63 390 -155 l63 -58 22
21 c40 38 128 53 278 50 132 -3 137 -2 175 23 62 41 183 105 254 134 113 47
125 77 77 197 -15 36 -27 75 -27 86 0 14 -14 28 -42 44 -57 31 -91 98 -96 188
-4 60 -2 69 23 99 22 26 33 31 52 26 18 -4 23 -2 17 6 -18 30 -21 160 -7 331
9 109 14 134 38 173 17 29 38 50 55 57 16 5 38 25 49 43 24 42 63 62 153 81
38 8 84 21 101 28 42 19 73 19 125 1z"/>
<path d="M1942 5570 c-35 -10 -107 -41 -160 -67 -87 -43 -99 -53 -120 -93 -27
-53 -24 -81 13 -136 19 -28 25 -47 21 -66 -3 -16 -9 -41 -12 -58 -4 -16 -2
-30 3 -30 5 0 35 27 67 59 l59 59 -22 43 c-22 41 -22 43 -4 57 26 20 88 7 131
-27 46 -36 76 -45 102 -31 18 10 20 8 20 -19 l0 -30 -44 20 c-50 22 -76 17
-76 -16 0 -29 26 -51 78 -64 100 -27 147 10 147 117 0 58 1 61 12 35 8 -18 10
-51 6 -90 -5 -58 -4 -63 14 -63 32 0 44 24 53 102 6 61 8 66 9 28 2 -25 2 -68
1 -96 -2 -59 18 -76 49 -45 16 16 20 17 25 5 10 -25 49 -12 65 21 23 49 26
173 6 236 -49 148 -68 161 -250 166 -106 2 -141 -1 -193 -17z m375 -347 c-2
-16 -4 -5 -4 22 0 28 2 40 4 28 2 -13 2 -35 0 -50z"/>
<path d="M4740 5579 c-54 -10 -80 -37 -112 -116 -28 -71 -33 -228 -8 -278 17
-33 56 -46 66 -21 5 12 9 11 25 -5 36 -36 49 -15 48 78 0 47 2 87 5 91 3 3 6
-19 6 -49 0 -65 17 -103 49 -107 24 -4 24 -3 18 60 -4 40 -2 73 6 91 11 26 12
23 12 -35 0 -107 47 -144 147 -117 52 13 78 35 78 64 0 33 -26 38 -76 16 l-44
-20 0 30 c0 27 2 29 20 19 26 -14 56 -5 102 31 44 34 105 47 132 26 18 -13 18
-15 -5 -55 l-24 -41 60 -61 c33 -33 63 -60 68 -60 5 0 7 12 4 28 -4 15 -9 41
-12 57 -5 23 0 39 20 69 37 55 40 83 13 136 -21 41 -33 50 -124 95 -135 67
-208 85 -331 84 -54 -1 -118 -5 -143 -10z m-53 -356 c-2 -16 -4 -5 -4 22 0 28
2 40 4 28 2 -13 2 -35 0 -50z"/>
<path d="M3235 5294 c-42 -10 -76 -27 -84 -43 -5 -9 -12 -54 -16 -101 -3 -47
-16 -119 -27 -160 -16 -58 -19 -91 -14 -145 5 -65 5 -68 -10 -50 -8 11 -18 32
-21 47 -4 23 -25 37 -55 38 -22 0 -38 -36 -38 -83 1 -89 50 -167 106 -167 18
0 22 -7 27 -56 13 -127 103 -248 232 -309 121 -58 190 -56 330 11 155 74 222
157 232 288 5 59 8 66 27 66 56 0 105 78 106 167 0 59 -20 88 -54 79 -12 -3
-24 -6 -27 -6 -4 0 -9 -12 -12 -27 -3 -16 -13 -37 -21 -48 -15 -18 -15 -15
-10 50 5 54 2 87 -14 145 -11 41 -24 114 -27 162 -8 102 -25 125 -102 139 -59
12 -94 4 -159 -32 -68 -39 -123 -39 -195 0 -53 28 -134 44 -174 35z"/>
<path d="M1488 4946 c-123 -50 -205 -94 -303 -164 -134 -95 -266 -246 -305
-350 -25 -68 -43 -187 -36 -245 8 -71 26 -87 98 -87 133 0 193 66 255 278 27
94 64 166 113 222 l30 35 -16 -40 c-9 -22 -27 -66 -40 -98 -82 -196 -84 -457
-5 -457 30 0 77 45 95 90 17 44 41 181 51 300 20 230 73 413 152 518 14 18 23
35 21 37 -2 2 -52 -15 -110 -39z"/>
<path d="M5400 4984 c0 -3 11 -20 24 -37 83 -112 124 -260 161 -597 18 -169
37 -234 80 -277 68 -68 107 -30 113 111 4 109 -25 238 -82 361 -20 43 -34 80
-32 82 5 6 58 -64 89 -117 14 -25 36 -81 48 -125 42 -156 94 -240 166 -271 49
-21 146 -18 167 5 34 38 29 193 -10 305 -57 161 -290 376 -525 485 -97 44
-199 83 -199 75z"/>
<path d="M3031 4210 c-166 -58 -307 -137 -380 -214 -34 -35 -61 -47 -61 -26 0
9 16 26 55 58 13 11 14 16 3 29 -10 13 -27 14 -85 9 -145 -12 -207 -41 -183
-85 13 -25 104 -96 142 -110 47 -18 84 -2 229 95 132 88 225 134 270 134 25 0
34 -26 43 -117 8 -89 35 -165 77 -217 53 -64 175 -162 221 -177 23 -7 62 -28
85 -46 24 -18 48 -33 54 -33 6 0 26 13 45 30 18 16 57 37 85 47 35 12 80 42
136 91 123 108 157 169 170 306 8 90 17 116 42 116 45 0 138 -46 270 -134 145
-97 182 -113 229 -95 38 14 129 85 142 110 24 44 -38 73 -183 85 -58 5 -75 4
-85 -9 -11 -13 -10 -18 3 -29 39 -32 55 -49 55 -58 0 -21 -27 -9 -61 26 -48
51 -138 110 -233 154 -81 38 -227 90 -251 90 -8 0 -20 -24 -29 -52 -15 -53
-64 -138 -78 -138 -5 0 -8 43 -8 95 0 52 -3 95 -7 95 -22 -1 -31 -22 -41 -96
-21 -150 -81 -257 -167 -298 -41 -20 -68 -11 -125 40 -66 59 -99 141 -116 279
-6 55 -16 74 -36 75 -5 0 -8 -43 -8 -95 0 -53 -4 -95 -9 -95 -15 0 -60 80 -77
138 -11 36 -20 52 -32 51 -9 0 -55 -13 -101 -29z"/>
<path d="M1715 4210 c-115 -24 -285 -114 -285 -150 0 -26 38 -32 94 -15 49 15
268 21 300 9 39 -15 6 -22 -116 -26 -124 -3 -137 -5 -199 -34 -42 -20 -68 -39
-71 -52 -10 -36 27 -96 100 -162 142 -130 236 -166 410 -157 135 7 186 30 221
101 24 48 24 51 10 108 -9 32 -13 58 -9 58 4 0 19 -9 33 -20 33 -26 53 -25 68
1 18 34 5 106 -28 153 -36 51 -164 137 -246 166 -69 24 -216 35 -282 20z"/>
<path d="M5050 4204 c-177 -47 -330 -178 -330 -283 0 -68 31 -88 77 -51 38 30
43 25 26 -25 -28 -82 4 -157 84 -196 43 -21 62 -24 173 -24 154 0 200 14 308
95 95 71 147 124 165 170 21 51 8 72 -65 105 -57 27 -75 30 -195 33 -123 4
-156 11 -117 26 32 12 251 6 300 -9 110 -33 126 15 25 76 -151 91 -310 120
-451 83z"/>
<path d="M1224 3931 c-82 -14 -122 -62 -109 -131 l7 -35 19 40 c26 55 84 104
132 112 26 4 34 9 25 14 -14 9 -15 9 -74 0z"/>
<path d="M5701 3931 c-8 -5 1 -10 26 -14 48 -8 106 -57 132 -112 l19 -40 7 37
c9 46 -10 86 -50 109 -35 20 -115 32 -134 20z"/>
<path d="M2350 3847 c-48 -17 -62 -48 -56 -128 5 -73 36 -173 98 -318 58 -135
84 -215 107 -319 39 -180 91 -233 310 -317 132 -50 226 -68 339 -63 114 5 159
24 231 96 58 59 81 106 81 169 0 124 -135 265 -305 319 l-40 13 46 0 c66 1
164 -32 237 -80 73 -48 86 -44 85 24 -2 104 -51 189 -140 243 -31 18 -100 43
-173 62 -153 40 -309 102 -520 207 -91 45 -181 86 -200 89 -19 4 -42 9 -50 11
-8 2 -31 -2 -50 -8z"/>
<path d="M4564 3850 c-23 -5 -117 -46 -210 -93 -214 -107 -370 -169 -524 -209
-73 -19 -142 -44 -173 -62 -89 -54 -138 -139 -140 -243 -1 -68 12 -72 85 -24
73 48 171 81 237 80 l46 0 -40 -13 c-169 -54 -305 -193 -305 -314 0 -70 19
-112 78 -171 76 -76 119 -94 234 -99 113 -5 205 12 339 63 117 45 163 69 210
112 52 48 76 95 99 201 28 124 32 135 115 341 77 193 104 297 91 364 -11 58
-63 83 -142 67z"/>
<path d="M1080 3593 c154 -251 392 -393 658 -393 58 0 103 3 100 6 -3 3 -35
11 -70 19 -183 38 -408 163 -630 350 -43 36 -80 65 -83 65 -3 0 8 -21 25 -47z"/>
<path d="M5915 3620 c-38 -42 -233 -187 -331 -246 -119 -71 -225 -118 -321
-141 -114 -27 -114 -32 -2 -32 173 -1 318 50 461 163 62 50 152 152 198 229
30 48 28 63 -5 27z"/>
<path d="M2350 2743 c1 -35 38 -101 71 -126 48 -35 114 -54 134 -37 16 13 20
57 7 76 -4 6 -32 19 -63 27 -30 9 -74 30 -97 47 -49 35 -52 36 -52 13z"/>
<path d="M2653 2744 c-21 -55 181 -296 280 -333 59 -23 101 -13 221 48 161 82
241 106 346 106 105 0 185 -24 346 -106 130 -66 170 -73 241 -38 59 28 148
118 211 213 82 122 59 150 -68 86 -114 -57 -176 -73 -295 -74 -98 0 -118 3
-190 29 -77 29 -87 30 -245 30 -158 0 -168 -1 -245 -30 -72 -26 -92 -29 -190
-29 -118 1 -180 16 -294 73 -77 39 -110 46 -118 25z"/>
<path d="M4596 2729 c-22 -16 -65 -37 -95 -46 -31 -8 -59 -21 -63 -27 -13 -19
-9 -63 7 -76 20 -17 86 1 131 36 32 24 74 96 74 127 0 23 -8 21 -54 -14z"/>
<path d="M2625 2439 c61 -62 114 -91 169 -91 46 -1 90 17 80 34 -12 19 -249
108 -290 108 -5 0 14 -23 41 -51z"/>
<path d="M3325 2476 c-22 -8 -70 -28 -107 -45 -36 -17 -98 -39 -136 -50 -75
-21 -109 -38 -117 -60 -7 -19 29 -92 76 -152 78 -97 166 -131 272 -104 76 19
123 48 144 88 21 41 30 229 14 279 -18 55 -66 70 -146 44z"/>
<path d="M3563 2478 c-12 -6 -28 -27 -34 -46 -16 -50 -7 -238 14 -279 21 -40
68 -69 144 -88 127 -33 232 25 320 175 49 83 36 104 -84 139 -42 12 -115 40
-163 62 -95 42 -162 55 -197 37z"/>
<path d="M4284 2452 c-116 -39 -169 -66 -159 -82 10 -17 73 -28 109 -20 19 4
50 17 68 28 44 28 126 112 108 111 -8 0 -65 -17 -126 -37z"/>
<path d="M3008 2053 c-23 -27 -30 -108 -22 -263 l7 -140 81 -31 c162 -62 309
-86 349 -56 10 7 22 38 28 72 15 83 17 400 3 415 -9 9 -23 6 -55 -12 -37 -19
-59 -23 -139 -23 -85 0 -102 3 -149 28 -62 32 -82 34 -103 10z"/>
<path d="M3885 2042 c-44 -24 -61 -27 -145 -27 -80 0 -102 4 -139 23 -32 18
-46 21 -55 12 -14 -15 -12 -332 3 -415 6 -34 18 -65 28 -72 40 -30 187 -6 349
56 l81 31 7 140 c10 210 -5 281 -58 279 -12 0 -43 -13 -71 -27z"/>
</g>
</svg>
