<?xml version="1.0" encoding="utf-8"?>
<!-- Generator: Adobe Illustrator 24.1.0, SVG Export Plug-In . SVG Version: 6.00 Build 0)  -->
<svg version="1.1" id="Warstwa_1" xmlns="http://www.w3.org/2000/svg" xmlns:xlink="http://www.w3.org/1999/xlink" x="0px" y="0px"
	 viewBox="0 0 100 100" style="enable-background:new 0 0 100 100;" xml:space="preserve">
<style type="text/css">
	.st0{stroke:#FFFFFF;stroke-width:0.2576;stroke-miterlimit:10;}
</style>
<g id="Layer_1_1_">
	<path class="st0" d="M7.29,75.12H58.9V92.5l10.68-6.41l10.68,6.41V75.12h12.46V7.5H7.29V75.12z M77.16,63.05
		c-0.16,0.16-0.33,0.31-0.5,0.46c-0.1,0.09-0.19,0.18-0.28,0.26c-0.11,0.09-0.23,0.17-0.34,0.26c-1.5,1.15-3.31,1.91-5.28,2.13
		c-0.03,0-0.06,0.01-0.1,0.01c-0.36,0.04-0.72,0.06-1.09,0.06c-0.37,0-0.73-0.02-1.09-0.06c-0.03,0-0.06-0.01-0.1-0.01
		c-1.97-0.22-3.78-0.98-5.28-2.13c-0.11-0.09-0.23-0.17-0.34-0.26c-0.1-0.08-0.19-0.17-0.28-0.26c-0.17-0.15-0.34-0.3-0.5-0.46
		c-1.91-1.93-3.09-4.58-3.09-7.5c0-5.89,4.79-10.68,10.68-10.68s10.68,4.79,10.68,10.68C80.25,58.47,79.07,61.11,77.16,63.05z
		 M76.69,86.21l-7.12-4.27l-7.12,4.27V75.12v-7.24c0.06,0.04,0.13,0.06,0.19,0.09c0.47,0.26,0.96,0.51,1.46,0.72
		c0.02,0.01,0.04,0.02,0.07,0.02c1.67,0.69,3.49,1.07,5.4,1.07c1.91,0,3.74-0.38,5.4-1.07c0.02-0.01,0.04-0.02,0.07-0.02
		c0.5-0.21,0.99-0.45,1.46-0.72c0.06-0.03,0.13-0.06,0.19-0.09v7.24L76.69,86.21L76.69,86.21z M10.85,11.06h78.3v60.5h-8.9v-6.63
		c2.21-2.51,3.56-5.79,3.56-9.39c0-7.85-6.39-14.24-14.24-14.24S55.34,47.7,55.34,55.55c0,3.6,1.35,6.88,3.56,9.39v6.63H10.85V11.06
		z"/>
	<rect x="26.87" y="18.18" class="st0" width="46.27" height="3.56"/>
	<rect x="35.76" y="28.85" class="st0" width="28.47" height="3.56"/>
	<rect x="17.97" y="60.89" class="st0" width="19.57" height="3.56"/>
</g>
<g>
</g>
<g>
</g>
<g>
</g>
<g>
</g>
<g>
</g>
<g>
</g>
<g>
</g>
<g>
</g>
<g>
</g>
<g>
</g>
<g>
</g>
<g>
</g>
<g>
</g>
<g>
</g>
<g>
</g>
</svg>
