<?xml version="1.0" encoding="utf-8"?>
<!-- Generator: Adobe Illustrator 24.1.0, SVG Export Plug-In . SVG Version: 6.00 Build 0)  -->
<svg version="1.1" id="Warstwa_1" xmlns="http://www.w3.org/2000/svg" xmlns:xlink="http://www.w3.org/1999/xlink" x="0px" y="0px"
	 viewBox="0 0 100 100" style="enable-background:new 0 0 100 100;" xml:space="preserve">
<g>
	<path d="M70.71,57.08h1.97v1.97h-1.97V57.08z M78.77,50.97h1.97v1.97h-1.97V50.97z M64.69,36.45h1.97v1.97h-1.97V36.45z
		 M69.2,44.07h1.97v1.97H69.2V44.07z M77.79,64.64h1.97v1.97h-1.97V64.64z M27.86,63.7l1.39,1.39l-1.39,1.39l-1.39-1.39L27.86,63.7z
		 M26.46,82.76l1.39-1.39l1.39,1.39l-1.39,1.39L26.46,82.76z M29.25,47.58l-1.39,1.39l-1.39-1.39l1.39-1.39L29.25,47.58z
		 M17.71,56.34l1.39-1.39l1.39,1.39l-1.39,1.39L17.71,56.34z M38.08,56.34l-1.39,1.39l-1.39-1.39l1.39-1.39L38.08,56.34z
		 M20.5,74.26l-1.39,1.39l-1.39-1.39l1.39-1.39L20.5,74.26z M36.68,75.66l-1.39-1.39l1.39-1.39l1.39,1.39L36.68,75.66z M61.59,27.14
		h-0.92v4.47v21.09h1.83V33.45c12.39,0.48,22.32,10.71,22.32,23.22c0,8.54-4.69,16.35-12.1,20.4c0.26-1.22,0.43-2.36,0.5-3.32
		c0.25-3.41-0.84-6.78-2.97-9.26c-1.33-1.54-2.95-2.62-4.72-3.2c1.5-2.46,1.27-5.58,1.25-5.73l-0.06-0.77l-0.77-0.07
		c-0.18-0.01-4.4-0.34-6.9,2.16c-0.4,0.4-0.76,0.81-1.07,1.23c-0.48-2.76-1.82-5.35-3.83-7.33l-1.29,1.3
		c2.21,2.19,3.49,5.22,3.49,8.34v1.41c-1.14-0.57-2.35-0.91-3.61-1c-0.25-0.02-0.49-0.03-0.74-0.03c-2.93,0-5.67,1.31-7.72,3.68
		c-1.13,1.31-1.97,2.88-2.47,4.58l-3.97-3.97l6.93-6.93v2.44h1.83v-8.79c0-3.84-1.51-7.44-4.25-10.13c-1.87-1.84-4.17-3.1-6.66-3.68
		c0.16-10.88,5.29-15.06,5.34-15.1l2.13-1.64h-2.69c-1.81,0-3.46,0.22-4.95,0.67c0.93-9.15,5.37-12.74,5.41-12.78l2.13-1.64h-2.69
		c-7.34,0-11.02,3.53-12.87,7c-2.13-2.56-5.26-3.86-9.35-3.86h-2.68l2.12,1.64c0.03,0.02,2.31,1.83,3.61,6.38
		c-2.03-0.72-4.33-1.09-6.89-1.09h-2.69l2.13,1.64c0.06,0.04,5.55,4.41,6.5,15.84l1.83-0.15c-0.68-8.22-3.59-13.05-5.5-15.39
		c3.9,0.39,7,1.84,9.23,4.33c4.1,4.57,4.19,11.47,4.09,13.78h-6.84c-3.73,0-7.26,1.44-9.93,4.05c-2.75,2.69-4.27,6.3-4.27,10.15
		V78.3c0,3.87,1.53,7.49,4.31,10.19c2.66,2.59,6.18,4.01,9.9,4.01h9.34c3.72,0,7.24-1.43,9.91-4.03c0.85-0.83,1.59-1.75,2.2-2.76
		c2.05,4.5,4.52,6.78,7.37,6.78c1.79,0,3.47-1.11,4.91-2.15c0.29-0.21,0.65-0.2,0.94,0.01c1.19,0.9,2.83,2.14,4.69,2.14
		c3,0,5.63-2.55,7.82-7.59c5.85-1.79,11.11-5.46,14.84-10.35c3.95-5.18,6.03-11.36,6.03-17.89C91.13,40.39,77.88,27.14,61.59,27.14z
		 M25.59,21.09c-0.7-0.57-1.44-1.07-2.24-1.5c-0.72-3.32-1.96-5.58-2.97-6.97c2.78,0.42,4.89,1.69,6.3,3.79
		C26.07,18.05,25.75,19.68,25.59,21.09z M60.35,58.18c1.33-1.33,3.46-1.6,4.62-1.64c-0.04,1.08-0.27,2.99-1.38,4.33
		c-0.35-0.04-0.7-0.06-1.06-0.06c-0.24,0-0.49,0.01-0.74,0.03c-1.25,0.1-2.45,0.43-3.58,0.98C58.39,60.82,59.09,59.45,60.35,58.18z
		 M36.56,63.8l-7.5-7.5l7.5-7.5l7.5,7.5L36.56,63.8z M26.46,73.89l-7.5,7.5l-7.5-7.5l7.5-7.5L26.46,73.89z M11.46,56.29l7.5-7.5
		l7.5,7.5l-7.5,7.5L11.46,56.29z M20.26,65.09l7.5-7.5l7.5,7.5l-7.5,7.5L20.26,65.09z M44.79,51.81v2.62l-6.93-6.93l3.85-3.85
		C43.7,45.9,44.79,48.77,44.79,51.81z M27.3,22.73c0.08-1.62,0.36-3.89,1.24-6.09c1.7-4.21,4.92-6.62,9.61-7.19
		c-1.66,2.12-4.01,6.28-4.52,13.18c-0.88,0.41-1.68,0.92-2.41,1.51l1.15,1.42c1.56-1.27,3.53-2.05,5.88-2.35
		c-1.74,2.25-4.22,6.79-4.38,14.46c-0.48-0.05-0.97-0.07-1.46-0.07h-0.66C31.87,34.99,31.73,27.8,27.3,22.73z M32.42,39.44
		c2.95,0,5.75,1.03,7.98,2.92l-3.84,3.84l-6.76-6.76H32.42z M35.26,47.5l-7.5,7.5l-7.5-7.5l7.5-7.5L35.26,47.5z M23.08,39.44h2.65
		l-6.76,6.76l-3.85-3.85C17.34,40.47,20.13,39.44,23.08,39.44z M10.71,51.81c0-3.05,1.1-5.92,3.1-8.18l3.87,3.87l-6.96,6.96V51.81z
		 M10.71,58.13l6.96,6.96l-6.96,6.96V58.13z M10.71,78.3v-2.57l6.96,6.96l-3.83,3.83C11.81,84.25,10.71,81.37,10.71,78.3z
		 M23.08,90.67c-2.92,0-5.7-1.02-7.92-2.88l3.81-3.81l6.69,6.69H23.08z M20.26,82.69l7.5-7.5l7.5,7.5l-7.5,7.5L20.26,82.69z
		 M32.42,90.67h-2.54l6.68-6.69l3.8,3.8C38.13,89.65,35.35,90.67,32.42,90.67z M41.67,86.5l-3.81-3.81l2.91-2.91l-1.29-1.29
		l-2.91,2.91l-7.5-7.5l7.5-7.5l4.82,4.82c-0.1,0.83-0.12,1.68-0.06,2.54c0.16,2.19,0.94,6.09,2.31,9.77
		C43.12,84.61,42.46,85.61,41.67,86.5z M68.78,83.69c-1.32,3.18-3.49,6.97-6.35,6.97c-1.16,0-2.31-0.8-3.58-1.77
		c-0.47-0.36-1.03-0.54-1.59-0.54c-0.54,0-1.07,0.17-1.53,0.5c-1.2,0.87-2.59,1.8-3.83,1.8c-2.86,0-4.97-3.8-6.24-6.99
		c-1.49-3.74-2.34-7.84-2.5-10.06c-0.21-2.93,0.71-5.82,2.53-7.93c1.83-2.12,4.32-3.22,6.93-3.02c1.21,0.09,2.36,0.46,3.44,1.08
		c0.1,0.06,0.21,0.11,0.31,0.15v2.46h1.83V63.9c0.11-0.04,0.21-0.09,0.31-0.15c1.08-0.63,2.23-0.99,3.44-1.08
		c2.61-0.2,5.09,0.9,6.92,3.02c1.82,2.11,2.75,5,2.53,7.93C71.21,76.29,70.13,80.44,68.78,83.69z M71.13,82.68
		c0.38-1.07,0.73-2.18,1.03-3.28c8.82-4.11,14.5-12.98,14.5-22.73c0-13.52-10.75-24.56-24.15-25.05v-2.64
		c14.85,0.49,26.79,12.72,26.79,27.69C89.29,68.29,81.91,78.72,71.13,82.68z M66.21,67.59c1.32,1.53,1.99,3.65,1.83,5.82
		c-0.07,0.98-0.29,2.25-0.63,3.67l1.78,0.43c0.37-1.52,0.6-2.89,0.68-3.97c0.19-2.64-0.64-5.25-2.27-7.14L66.21,67.59z M65.64,82.58
		l1.69,0.7c0.39-0.93,0.76-1.96,1.1-3.05l-1.75-0.55C66.36,80.72,66,81.69,65.64,82.58z M82.03,27.01h1.83v-2.27h2.27v-1.83h-2.27
		v-2.27h-1.83v2.27h-2.27v1.83h2.27V27.01z M50.12,41.71h1.83v-2.27h2.27v-1.83h-2.27v-2.27h-1.83v2.27h-2.27v1.83h2.27V41.71z
		 M57.67,20.2h1.83v-2.27h2.27V16.1H59.5v-2.27h-1.83v2.27H55.4v1.83h2.27V20.2z"/>
	<path d="M70.71,57.08v0.5h1.47v0.97h-0.97l0-1.47H70.71v0.5V57.08h-0.5v2.47h2.97v-2.97h-2.97v0.5H70.71z M78.77,50.97v0.5h1.47
		v0.97h-0.97v-1.47H78.77v0.5V50.97h-0.5v2.47h2.97v-2.97h-2.97v0.5H78.77z M64.69,36.45v0.5h1.47l0,0.97h-0.97v-1.47H64.69v0.5
		V36.45h-0.5v2.47h2.97v-2.97h-2.97v0.5H64.69z M69.2,44.07v0.5h1.47v0.97H69.7l0-1.47H69.2v0.5V44.07h-0.5v2.47h2.97v-2.97H68.7
		v0.5H69.2z M77.79,64.64v0.5h1.47v0.97h-0.97v-1.47H77.79v0.5V64.64h-0.5v2.47h2.97v-2.97h-2.97v0.5H77.79z M27.86,63.7l-0.35,0.35
		l1.04,1.04l-0.69,0.69l-0.69-0.69l1.04-1.04L27.86,63.7l-0.35,0.35L27.86,63.7l-0.35-0.35l-1.75,1.75l2.1,2.1l2.1-2.1l-2.1-2.1
		l-0.35,0.35L27.86,63.7z M26.46,82.76l0.35,0.35l1.04-1.04l0.69,0.69l-0.69,0.69l-1.04-1.04L26.46,82.76l0.35,0.35L26.46,82.76
		l-0.35,0.35l1.75,1.75l2.1-2.1l-2.1-2.1l-2.1,2.1l0.35,0.35L26.46,82.76z M29.25,47.58l-0.35-0.35l-1.04,1.04l-0.69-0.69l0.69-0.69
		l1.04,1.04L29.25,47.58l-0.35-0.35L29.25,47.58l0.35-0.35l-1.75-1.75l-2.1,2.1l2.1,2.1l2.1-2.1l-0.35-0.35L29.25,47.58z
		 M17.71,56.34l0.35,0.35l1.04-1.04l0.69,0.69l-0.69,0.69l-1.04-1.04L17.71,56.34l0.35,0.35L17.71,56.34l-0.35,0.35l1.75,1.75
		l2.1-2.1l-2.1-2.1l-2.1,2.1l0.35,0.35L17.71,56.34z M38.08,56.34l-0.35-0.35l-1.04,1.04L36,56.34l0.69-0.69l1.04,1.04L38.08,56.34
		l-0.35-0.35L38.08,56.34l0.35-0.35l-1.75-1.75l-2.1,2.1l2.1,2.1l2.1-2.1l-0.35-0.35L38.08,56.34z M20.5,74.26l-0.35-0.35
		l-1.04,1.04l-0.69-0.69l0.69-0.69l1.04,1.04L20.5,74.26l-0.35-0.35L20.5,74.26l0.35-0.35l-1.75-1.75l-2.1,2.1l2.1,2.1l2.1-2.1
		l-0.35-0.35L20.5,74.26z M36.68,75.66l0.35-0.35L36,74.26l0.69-0.69l0.69,0.69l-1.04,1.04L36.68,75.66l0.35-0.35L36.68,75.66
		l0.35,0.35l1.75-1.75l-2.1-2.1l-2.1,2.1l2.1,2.1l0.35-0.35L36.68,75.66z M61.59,27.14v-0.5h-0.92h-0.5v4.97v21.59h2.83V33.45h-0.5
		l-0.02,0.5c12.12,0.47,21.84,10.48,21.84,22.72c0,8.35-4.59,16-11.84,19.96l0.24,0.44l0.49,0.1c0.26-1.23,0.44-2.39,0.51-3.39
		c0.02-0.33,0.04-0.66,0.04-0.99c0-3.19-1.11-6.29-3.13-8.63c-1.38-1.6-3.08-2.74-4.94-3.35l-0.15,0.48l0.43,0.26
		c1.2-1.97,1.34-4.25,1.35-5.36c0-0.38-0.02-0.62-0.02-0.67l0,0l-0.06-0.77l-0.04-0.42L66,54.23l0,0c-0.05,0-0.3-0.02-0.68-0.02
		c-0.68,0-1.8,0.06-3.01,0.38c-1.21,0.32-2.54,0.89-3.6,1.96c-0.41,0.41-0.79,0.85-1.12,1.29l0.4,0.3l0.49-0.09
		c-0.5-2.86-1.88-5.54-3.97-7.6l-0.36-0.35l-1.99,2.02l0.36,0.35c2.12,2.09,3.34,5,3.34,7.98v1.41h0.5l0.22-0.45
		c-1.2-0.6-2.47-0.95-3.8-1.05c-0.26-0.02-0.52-0.03-0.77-0.03c-3.08,0-5.97,1.38-8.1,3.85c-1.18,1.37-2.05,3-2.57,4.76l0.48,0.14
		l0.35-0.35l-3.62-3.62l5.73-5.73l0,1.23v0.5h2.83v-9.29c0-3.97-1.57-7.71-4.4-10.49c-1.94-1.9-4.31-3.2-6.9-3.81l-0.11,0.49
		L36.2,38c0.08-5.36,1.38-9.04,2.65-11.38c0.64-1.17,1.27-2.01,1.74-2.55c0.23-0.27,0.43-0.47,0.56-0.6l0.15-0.14l0.04-0.03
		l0.01-0.01l-0.1-0.12l0.09,0.12l0,0l-0.1-0.12l0.09,0.12l0,0l3.29-2.54h-4.15c-1.85,0-3.55,0.23-5.09,0.69l0.14,0.48l0.5,0.05
		c0.46-4.5,1.77-7.61,2.97-9.6c0.6-0.99,1.17-1.71,1.58-2.17c0.21-0.23,0.38-0.4,0.5-0.51l0.13-0.12l0.03-0.03l0.01-0.01l-0.13-0.15
		l0.12,0.16l0,0l-0.13-0.15l0.12,0.16l0,0L44.54,7h-4.15c-3.75,0-6.61,0.9-8.76,2.28c-2.15,1.37-3.59,3.19-4.55,4.99l0.44,0.23
		l0.38-0.32c-2.23-2.69-5.55-4.05-9.73-4.04h-4.15l3.29,2.54l0,0l0.21-0.28l-0.22,0.27l0.01,0l0.21-0.28l-0.22,0.27
		c0.03,0.02,2.19,1.76,3.44,6.12l0.48-0.14l0.17-0.47c-2.1-0.75-4.45-1.12-7.06-1.12h-4.15l3.29,2.54l0,0l0.18-0.24l-0.19,0.24l0,0
		l0.18-0.24l-0.19,0.24c0.06,0.05,5.38,4.3,6.31,15.49l0.04,0.5l2.82-0.23l-0.04-0.5c-0.69-8.33-3.65-13.26-5.61-15.66l-0.39,0.32
		L16.55,20c3.81,0.39,6.77,1.78,8.9,4.16c3.48,3.86,3.99,9.59,3.99,12.45c0,0.38-0.01,0.71-0.02,0.98l0.5,0.02v-0.5h-6.84
		c-3.86,0-7.52,1.49-10.28,4.19l0,0c-2.85,2.78-4.42,6.52-4.42,10.51V78.3c0,4,1.59,7.75,4.46,10.54c2.76,2.68,6.4,4.16,10.24,4.16
		h9.34c3.85,0,7.5-1.48,10.26-4.17l0,0c0.88-0.86,1.65-1.81,2.28-2.85l-0.43-0.26l-0.46,0.21c1.04,2.29,2.2,4.04,3.5,5.24
		c1.3,1.2,2.76,1.84,4.32,1.84c2-0.01,3.75-1.2,5.2-2.25l0,0l0.16-0.06l0.18,0.06l0,0c1.2,0.9,2.9,2.23,4.99,2.24
		c1.65,0,3.2-0.71,4.57-2.05c1.37-1.34,2.6-3.29,3.72-5.84l-0.46-0.2l0.15,0.48c5.95-1.83,11.29-5.55,15.09-10.53
		c4.01-5.26,6.14-11.56,6.14-18.19c0-16.56-13.47-30.03-30.04-30.03V27.14v0.5c8.01,0,15.26,3.26,20.52,8.51
		c5.26,5.26,8.51,12.51,8.51,20.52c0,6.42-2.05,12.49-5.93,17.59c-3.67,4.81-8.84,8.41-14.59,10.18l-0.22,0.07l-0.09,0.21
		c-1.08,2.48-2.26,4.32-3.49,5.52c-1.24,1.2-2.51,1.76-3.87,1.76c-1.64,0.01-3.2-1.13-4.39-2.04l0,0c-0.23-0.17-0.5-0.27-0.78-0.27
		c-0.26,0-0.53,0.09-0.75,0.25l0,0c-1.42,1.04-3.04,2.07-4.62,2.06c-1.28,0-2.48-0.5-3.64-1.57c-1.16-1.07-2.26-2.71-3.27-4.92
		l-0.39-0.86l-0.49,0.8c-0.59,0.97-1.3,1.86-2.13,2.66l0,0C39.4,90.62,36.01,92,32.42,92h-9.34c-3.59,0-6.97-1.37-9.55-3.87
		c-2.68-2.61-4.15-6.09-4.16-9.83V51.81c0-3.72,1.46-7.19,4.12-9.79l0,0c2.58-2.52,5.98-3.91,9.58-3.91h7.32l0.02-0.48
		c0.01-0.28,0.02-0.62,0.02-1.02c-0.01-2.96-0.48-8.91-4.24-13.11c-2.32-2.59-5.55-4.09-9.55-4.49l-1.2-0.12l0.76,0.94
		c1.85,2.27,4.72,6.99,5.39,15.11l0.5-0.04l-0.04-0.5l-1.83,0.15l0.04,0.5l0.5-0.04c-0.48-5.79-2.12-9.82-3.66-12.41
		c-0.77-1.29-1.51-2.23-2.07-2.84c-0.56-0.62-0.93-0.91-0.97-0.95l0,0l-0.97-0.75l1.22,0c2.51,0,4.75,0.36,6.73,1.06l0.92,0.33
		l-0.27-0.93c-0.67-2.33-1.59-3.98-2.36-5.04c-0.38-0.53-0.73-0.92-0.98-1.18c-0.13-0.13-0.23-0.23-0.31-0.3l-0.14-0.12l-0.3,0.4
		l0.31-0.4l-0.97-0.75h1.22c3.98,0.01,6.94,1.25,8.96,3.68l0.48,0.57l0.35-0.66c0.89-1.68,2.22-3.35,4.2-4.61
		C34.15,8.86,36.8,8,40.39,8h1.22l-0.97,0.75l0,0c-0.04,0.03-0.34,0.28-0.8,0.78c-1.37,1.52-4.1,5.37-4.8,12.34l-0.08,0.74
		l0.71-0.21c1.44-0.43,3.05-0.64,4.81-0.64h1.22l-0.97,0.75l0,0c-0.05,0.04-0.39,0.32-0.9,0.91c-1.54,1.77-4.52,6.29-4.63,14.57
		l-0.01,0.4l0.39,0.09c2.41,0.57,4.62,1.78,6.43,3.55c2.65,2.6,4.1,6.07,4.1,9.78v8.29h-0.83v-3.15l-8.14,8.14l4.92,4.92l0.24-0.81
		c0.48-1.63,1.28-3.13,2.37-4.39c1.96-2.27,4.56-3.5,7.34-3.51c0.23,0,0.46,0.01,0.7,0.03c1.19,0.09,2.34,0.41,3.43,0.95l0.72,0.36
		v-2.22c0-3.25-1.32-6.41-3.63-8.69l-0.35,0.36l0.36,0.35l1.29-1.3l-0.36-0.35l-0.35,0.36c1.93,1.91,3.22,4.4,3.68,7.06l0.2,1.14
		l0.69-0.92c0.3-0.4,0.64-0.8,1.02-1.18c0.89-0.89,2.04-1.41,3.15-1.69c1.1-0.29,2.14-0.34,2.76-0.34c0.35,0,0.57,0.02,0.6,0.02l0,0
		l0.35,0.03l0.03,0.35l0,0c0,0.02,0.02,0.24,0.02,0.59c0,1.01-0.16,3.14-1.2,4.84l-0.33,0.54l0.6,0.2c1.68,0.55,3.22,1.58,4.49,3.05
		c1.85,2.15,2.89,5.02,2.89,7.98c0,0.31-0.01,0.61-0.03,0.92c-0.07,0.93-0.24,2.05-0.49,3.25l-0.22,1.06l0.95-0.52
		c7.57-4.14,12.36-12.11,12.36-20.84c0-12.78-10.14-23.22-22.8-23.72l-0.52-0.02v19.26h-0.83l0-20.59v-3.97l0.42,0V27.14z
		 M25.59,21.09l0.32-0.39c-0.72-0.59-1.49-1.11-2.32-1.55l-0.24,0.44l0.49-0.11c-0.73-3.39-2.01-5.71-3.06-7.16l-0.4,0.29
		l-0.08,0.49c2.67,0.41,4.62,1.6,5.96,3.57l0.41-0.28l-0.47-0.17c-0.62,1.68-0.94,3.36-1.11,4.8L25.59,21.09l0.32-0.39L25.59,21.09
		l0.5,0.06c0.16-1.38,0.47-2.98,1.05-4.56l0.09-0.24l-0.14-0.21c-1.48-2.21-3.75-3.57-6.64-4l-1.19-0.18l0.71,0.97
		c0.98,1.34,2.19,3.53,2.89,6.78l0.05,0.23l0.2,0.11c0.77,0.42,1.49,0.9,2.16,1.45l0.71,0.58l0.1-0.91L25.59,21.09z M60.35,58.18
		l0.35,0.35c0.58-0.58,1.36-0.95,2.16-1.18c0.79-0.22,1.58-0.3,2.13-0.32l-0.02-0.5l-0.5-0.02c-0.03,1.03-0.28,2.85-1.26,4.02
		l0.39,0.32l0.05-0.5c-0.37-0.04-0.74-0.06-1.11-0.06c-0.26,0-0.51,0.01-0.77,0.03l0,0c-1.31,0.1-2.57,0.45-3.76,1.03l0.22,0.45
		l0.49,0.08c0.13-0.86,0.78-2.17,1.98-3.36L60.35,58.18L60,57.83c-1.33,1.33-2.08,2.76-2.27,3.91l-0.15,0.95l0.87-0.43
		c1.08-0.53,2.21-0.84,3.39-0.93l0,0c0.23-0.02,0.47-0.03,0.7-0.03c0.34,0,0.67,0.02,1,0.05l0.27,0.03l0.17-0.21
		c1.23-1.5,1.45-3.5,1.49-4.63l0.02-0.54l-0.54,0.02c-0.61,0.02-1.47,0.1-2.37,0.36c-0.9,0.25-1.84,0.68-2.59,1.43L60.35,58.18z
		 M36.56,63.8l0.35-0.35l-7.15-7.15l6.79-6.79l6.79,6.79l-7.15,7.15L36.56,63.8l0.35-0.35L36.56,63.8l0.35,0.35l7.86-7.86
		l-8.21-8.21l-8.21,8.21l8.21,8.21l0.35-0.35L36.56,63.8z M26.46,73.89l-0.35-0.35l-7.15,7.15l-6.8-6.79l6.8-6.8l7.15,7.15
		L26.46,73.89l-0.35-0.35L26.46,73.89l0.35-0.35l-7.86-7.86l-8.21,8.21l8.21,8.21l8.21-8.21l-0.35-0.35L26.46,73.89z M11.46,56.29
		l0.35,0.35l7.15-7.15l6.79,6.79l-6.8,6.8l-7.15-7.15L11.46,56.29l0.35,0.35L11.46,56.29l-0.35,0.35l7.86,7.86l8.21-8.21l-8.21-8.21
		l-8.21,8.21l0.35,0.35L11.46,56.29z M20.26,65.09l0.35,0.35l7.15-7.15l6.79,6.79l-6.8,6.8l-7.15-7.15L20.26,65.09l0.35,0.35
		L20.26,65.09l-0.35,0.35l7.86,7.86l8.21-8.21l-8.21-8.21l-8.21,8.21l0.35,0.35L20.26,65.09z M44.79,51.81h-0.5v1.41l-5.73-5.72
		l3.5-3.5l-0.35-0.35l-0.38,0.33c1.91,2.17,2.96,4.91,2.96,7.83H44.79h0.5c0-3.16-1.14-6.15-3.21-8.49l-0.35-0.4l-4.58,4.58
		l8.14,8.14v-3.83H44.79z M27.3,22.73l0.5,0.02c0.07-1.58,0.35-3.8,1.21-5.92l0,0c0.82-2.04,1.99-3.61,3.52-4.75
		c1.53-1.14,3.41-1.85,5.69-2.13l-0.06-0.5l-0.39-0.31c-1.71,2.19-4.11,6.45-4.62,13.45l0.5,0.04l-0.21-0.45
		c-0.91,0.43-1.75,0.95-2.52,1.58l-0.39,0.32l1.78,2.2l0.39-0.32c1.48-1.2,3.36-1.95,5.63-2.24l-0.06-0.5l-0.4-0.31
		c-1.8,2.33-4.32,6.98-4.49,14.76l0.5,0.01l0.05-0.5c-0.5-0.05-1-0.08-1.51-0.08h-0.66v0.5l0.5,0.02c0.01-0.31,0.02-0.69,0.02-1.12
		c-0.01-3.23-0.56-9.47-4.61-14.1L27.3,22.73l0.5,0.02L27.3,22.73l-0.38,0.33c3.78,4.3,4.37,10.32,4.36,13.44
		c0,0.42-0.01,0.78-0.02,1.08l-0.02,0.52h1.18c0.47,0,0.94,0.02,1.4,0.07l0.54,0.05l0.01-0.54c0.16-7.57,2.6-11.99,4.28-14.17
		l0.73-0.95l-1.19,0.15c-2.42,0.31-4.49,1.12-6.14,2.46l0.32,0.39l0.39-0.32l-1.15-1.42l-0.39,0.32l0.32,0.39
		c0.7-0.57,1.47-1.05,2.31-1.45l0.26-0.12l0.02-0.29c0.51-6.8,2.81-10.85,4.42-12.91l0.74-0.95l-1.19,0.14
		c-2.41,0.29-4.48,1.06-6.17,2.32c-1.68,1.26-2.97,3-3.85,5.18l0,0c-0.91,2.28-1.2,4.59-1.28,6.25l-0.01,0.2l0.13,0.15L27.3,22.73z
		 M32.42,39.44v0.5c2.83,0,5.52,0.99,7.66,2.8l0.32-0.38l-0.35-0.35l-3.48,3.48l-5.55-5.55l1.41,0V39.44v-0.5h-3.82l7.97,7.97
		l4.57-4.57l-0.41-0.35c-2.32-1.96-5.23-3.04-8.3-3.04V39.44z M35.26,47.5l-0.35-0.35l-7.15,7.15l-6.79-6.8l6.79-6.79l7.15,7.15
		L35.26,47.5l-0.35-0.35L35.26,47.5l0.35-0.35l-7.86-7.86l-8.21,8.21l8.21,8.21l8.21-8.21l-0.35-0.35L35.26,47.5z M23.08,39.44v0.5
		h1.44l-5.55,5.55l-3.5-3.5l-0.35,0.35l0.32,0.38c2.14-1.8,4.81-2.79,7.64-2.79V39.44v-0.5c-3.06,0-5.97,1.07-8.28,3.03l-0.42,0.35
		l4.59,4.59l7.97-7.97h-3.85V39.44z M10.71,51.81h0.5c0-2.93,1.05-5.68,2.97-7.85l-0.37-0.33l-0.35,0.35l3.51,3.51l-5.76,5.76
		l0-1.44H10.71h-0.5v3.86l8.17-8.17l-4.6-4.6l-0.35,0.4c-2.08,2.35-3.22,5.34-3.22,8.51H10.71z M10.71,58.13l-0.35,0.35l6.61,6.61
		l-5.76,5.75V58.13H10.71l-0.35,0.35L10.71,58.13h-0.5v15.13l8.17-8.17l-8.17-8.17v1.21H10.71z M10.71,78.3h0.5v-1.37l5.75,5.75
		l-3.48,3.48l0.35,0.35l0.37-0.33c-1.94-2.18-3-4.94-3-7.89H10.71h-0.5c0,3.19,1.15,6.2,3.26,8.55l0.35,0.39l4.56-4.56l-8.17-8.17
		v3.78H10.71z M23.08,90.67v-0.5c-2.81,0-5.47-0.97-7.6-2.76l-0.32,0.38l0.35,0.35l3.46-3.46l5.48,5.48h-1.36V90.67v0.5h3.78
		l-7.89-7.89l-4.55,4.55l0.42,0.35c2.31,1.93,5.2,2.99,8.25,2.99V90.67z M20.26,82.69l0.35,0.35l7.15-7.15l6.8,6.8l-6.79,6.8
		l-7.15-7.15L20.26,82.69l0.35,0.35L20.26,82.69l-0.35,0.35l7.86,7.86l8.21-8.21l-8.21-8.21l-8.21,8.21l0.35,0.35L20.26,82.69z
		 M32.42,90.67v-0.5h-1.33l5.48-5.48L40,88.13l0.35-0.35l-0.32-0.38c-2.13,1.79-4.8,2.77-7.62,2.77V90.67v0.5
		c3.05,0,5.95-1.06,8.26-3.01l0.42-0.35l-4.54-4.54l-7.89,7.89h3.75V90.67z M41.67,86.5l0.35-0.35l-3.46-3.46l2.91-2.91l-2-2
		l-2.91,2.91l-6.8-6.8l6.8-6.79l4.47,4.47l0.35-0.35l-0.5-0.06c-0.07,0.54-0.1,1.09-0.1,1.64c0,0.33,0.01,0.66,0.04,0.99
		c0.17,2.26,0.96,6.17,2.34,9.91l0.47-0.17l-0.45-0.21c-0.49,1.04-1.12,2-1.88,2.86L41.67,86.5l0.35-0.35L41.67,86.5l0.37,0.33
		c0.83-0.93,1.51-1.97,2.04-3.1l0.09-0.19l-0.07-0.2c-1.35-3.64-2.13-7.51-2.28-9.64c-0.02-0.31-0.03-0.61-0.03-0.92
		c0-0.51,0.03-1.02,0.09-1.52l0.03-0.24l-5.35-5.35l-8.21,8.21l8.21,8.21l2.91-2.91l0.59,0.59l-2.91,2.91l4.54,4.54l0.35-0.4
		L41.67,86.5z M68.78,83.69l-0.46-0.19c-0.65,1.57-1.51,3.28-2.53,4.56c-0.51,0.64-1.06,1.18-1.62,1.54
		c-0.57,0.37-1.14,0.56-1.74,0.56c-0.46,0-0.96-0.16-1.51-0.46c-0.55-0.3-1.14-0.72-1.77-1.2c-0.56-0.42-1.22-0.64-1.89-0.64
		c-0.64,0-1.28,0.2-1.83,0.6l0,0c-0.6,0.43-1.23,0.87-1.84,1.19c-0.61,0.32-1.2,0.52-1.7,0.52c-0.6,0-1.17-0.2-1.73-0.56
		c-0.84-0.55-1.63-1.48-2.31-2.58c-0.69-1.1-1.27-2.36-1.74-3.53c-1.47-3.68-2.32-7.76-2.47-9.91c-0.02-0.26-0.03-0.53-0.03-0.79
		c0-2.52,0.88-4.96,2.44-6.78c1.61-1.86,3.72-2.87,5.95-2.87c0.19,0,0.37,0.01,0.56,0.02c1.13,0.09,2.21,0.43,3.23,1.02l0,0
		c0.13,0.07,0.25,0.13,0.38,0.18l0.19-0.46h-0.5v2.96h2.83V63.9h-0.5l0.19,0.46c0.12-0.05,0.25-0.11,0.38-0.18
		c1.01-0.59,2.09-0.93,3.23-1.02c0.19-0.01,0.38-0.02,0.56-0.02c2.23,0,4.34,1.01,5.95,2.87c1.57,1.81,2.44,4.25,2.44,6.78
		c0,0.26-0.01,0.53-0.03,0.79c-0.18,2.59-1.25,6.72-2.58,9.92L68.78,83.69l0.46,0.19c1.37-3.31,2.46-7.47,2.66-10.23
		c0.02-0.29,0.03-0.58,0.03-0.86c0-2.75-0.95-5.42-2.69-7.43c-1.77-2.06-4.16-3.22-6.7-3.22c-0.21,0-0.42,0.01-0.64,0.02
		c-1.28,0.1-2.52,0.49-3.65,1.15L58,63.43l-0.31,0.13v2.3h-0.83l0-2.29l-0.31-0.13c-0.09-0.04-0.17-0.08-0.25-0.12l0,0l0,0
		c-1.14-0.66-2.37-1.05-3.65-1.15c-0.21-0.02-0.43-0.02-0.64-0.02c-2.54,0-4.93,1.16-6.7,3.22c-1.73,2.01-2.68,4.68-2.68,7.43
		c0,0.29,0.01,0.57,0.03,0.86c0.17,2.3,1.03,6.41,2.54,10.21c0.65,1.62,1.5,3.4,2.6,4.81c0.55,0.71,1.15,1.32,1.84,1.77
		c0.68,0.45,1.45,0.73,2.28,0.73c0.75,0,1.47-0.27,2.16-0.63c0.69-0.36,1.36-0.83,1.96-1.27l0,0c0.37-0.27,0.81-0.4,1.24-0.4
		c0.45,0,0.9,0.14,1.28,0.44c0.64,0.49,1.27,0.94,1.9,1.29c0.63,0.34,1.29,0.58,1.99,0.58c0.83,0,1.6-0.28,2.28-0.72
		c1.03-0.67,1.9-1.71,2.65-2.88c0.75-1.17,1.37-2.47,1.88-3.68L68.78,83.69z M71.13,82.68l0.47,0.17c0.39-1.08,0.74-2.2,1.04-3.32
		l-0.48-0.13l0.21,0.45c9-4.19,14.79-13.24,14.79-23.18c0-13.79-10.96-25.05-24.63-25.55l-0.02,0.5h0.5v-2.64h-0.5l-0.02,0.5
		c14.58,0.48,26.31,12.49,26.3,27.19c0,11.4-7.25,21.66-17.84,25.54L71.13,82.68l0.47,0.17L71.13,82.68l0.17,0.47
		c10.98-4.03,18.49-14.65,18.49-26.48c0-15.24-12.15-27.69-27.27-28.19l-0.52-0.02v3.64l0.48,0.02
		c13.13,0.47,23.67,11.3,23.67,24.55c0,9.56-5.56,18.25-14.21,22.28l-0.21,0.1l-0.06,0.22c-0.3,1.09-0.64,2.19-1.02,3.25l-0.36,1.01
		l1-0.37L71.13,82.68z M66.21,67.59l-0.38,0.33c1.11,1.29,1.74,3.04,1.73,4.87c0,0.19-0.01,0.39-0.02,0.58
		c-0.07,0.94-0.28,2.18-0.62,3.59l-0.12,0.49l2.75,0.67l0.12-0.49c0.37-1.54,0.61-2.93,0.69-4.05c0.02-0.26,0.03-0.52,0.03-0.78
		c0-2.5-0.86-4.91-2.42-6.72l-0.33-0.38l-2.15,1.85l0.33,0.38L66.21,67.59l0.33,0.38l1.39-1.2l-0.33-0.38l-0.38,0.33
		c1.4,1.62,2.18,3.8,2.18,6.07c0,0.24-0.01,0.47-0.03,0.71c-0.07,1.04-0.31,2.39-0.67,3.88l0.49,0.12l0.12-0.49l-1.78-0.43
		l-0.12,0.49l0.49,0.12c0.35-1.44,0.57-2.73,0.65-3.75c0.02-0.22,0.02-0.44,0.02-0.66c0-2.06-0.7-4.04-1.98-5.52L66.21,67.59
		l0.33,0.38L66.21,67.59z M65.64,82.58l-0.19,0.46l2.15,0.89l0.19-0.46c0.39-0.95,0.77-1.99,1.12-3.09l0.15-0.48l-2.7-0.85
		l-0.15,0.48c-0.32,1.02-0.67,1.99-1.03,2.85l-0.19,0.46l0.46,0.19L65.64,82.58l0.46,0.19c0.37-0.9,0.73-1.89,1.06-2.94l-0.48-0.15
		l-0.15,0.48l1.75,0.55l0.15-0.48l-0.48-0.15c-0.34,1.08-0.7,2.09-1.09,3l0.46,0.19l0.19-0.46l-1.69-0.7L65.64,82.58l0.46,0.19
		L65.64,82.58z M82.03,27.01v0.5h2.33v-2.27l2.27,0v-2.83h-2.27l0-2.27h-2.83v2.27l-2.27,0v2.83h2.27l0,2.27h0.5V27.01h0.5v-2.77
		h-2.27l0-0.83l2.27,0v-2.27h0.83l0,2.27h2.27v0.83l-2.27,0v2.27h-1.33V27.01h0.5H82.03z M50.12,41.71v0.5h2.33v-2.27h2.27v-2.83
		h-2.27v-2.27h-2.83v2.27l-2.27,0v2.83h2.27l0,2.27h0.5V41.71h0.5v-2.77h-2.27v-0.83l2.27,0v-2.27h0.83l0,2.27h2.27l0,0.83h-2.27
		v2.27l-1.33,0V41.71h0.5H50.12z M57.67,20.2v0.5H60v-2.27h2.27V15.6H60l0-2.27h-2.83v2.27l-2.27,0v2.83h2.27l0,2.27h0.5V20.2h0.5
		v-2.77H55.9V16.6l2.27,0v-2.27H59l0,2.27h2.27l0,0.83H59v2.27h-1.33V20.2h0.5H57.67z"/>
</g>
<g>
</g>
<g>
</g>
<g>
</g>
<g>
</g>
<g>
</g>
<g>
</g>
<g>
</g>
<g>
</g>
<g>
</g>
<g>
</g>
<g>
</g>
<g>
</g>
<g>
</g>
<g>
</g>
<g>
</g>
</svg>
