<?xml version="1.0" encoding="utf-8"?>
<!-- Generator: Adobe Illustrator 24.1.0, SVG Export Plug-In . SVG Version: 6.00 Build 0)  -->
<svg version="1.1" id="Warstwa_1" xmlns="http://www.w3.org/2000/svg" xmlns:xlink="http://www.w3.org/1999/xlink" x="0px" y="0px"
	 viewBox="0 0 100 100" style="enable-background:new 0 0 100 100;" xml:space="preserve">
<g>
	<circle cx="50" cy="50" r="14.2"/>
	<path d="M67.7,7.5H32.3C18.6,7.5,7.5,18.6,7.5,32.3v35.4c0,13.7,11.1,24.8,24.8,24.8h35.4c13.7,0,24.8-11.1,24.8-24.8V32.3
		C92.5,18.6,81.4,7.5,67.7,7.5z M50,71.2c-11.7,0-21.2-9.5-21.2-21.2S38.3,28.7,50,28.7S71.2,38.3,71.2,50S61.7,71.2,50,71.2z
		 M74.8,28.7c-1.9,0-3.5-1.6-3.5-3.5s1.6-3.5,3.5-3.5c2,0,3.5,1.6,3.5,3.5S76.8,28.7,74.8,28.7z"/>
</g>
</svg>
