<?xml version="1.0" encoding="utf-8"?>
<!-- Generator: Adobe Illustrator 24.1.0, SVG Export Plug-In . SVG Version: 6.00 Build 0)  -->
<svg version="1.1" id="Warstwa_1" xmlns="http://www.w3.org/2000/svg" xmlns:xlink="http://www.w3.org/1999/xlink" x="0px" y="0px"
	 viewBox="0 0 252 57.6" style="enable-background:new 0 0 252 57.6;" xml:space="preserve">
<style type="text/css">
	.st0{fill:none;stroke:#FFFFFF;stroke-width:0.4108;stroke-miterlimit:10;}
	.st1{fill:#FFFFFF;}
	.st2{fill:#A4A3A3;}
	.st3{display:none;fill:#BB9947;}
	.st4{display:none;}
	.st5{display:inline;fill:#1A1A1A;}
	.st6{fill:#BB9947;}
</style>
<g>
	<line class="st0" x1="84.43" y1="0.4" x2="84.43" y2="57.2"/>
	<g>
		<g>
			<g>
				<path class="st1" d="M91.82,28.75V7.23h1.55V20.3l12.55-13.07h1.79l-8.94,9.43l9.4,12.1h-1.76L97.76,17.6l-4.4,4.52v6.64H91.82z
					"/>
				<path class="st1" d="M108.89,28.75l7.61-16.52h1.18l7.58,16.52h-1.52l-2.43-5.31h-8.43l-2.46,5.31H108.89z M117.11,14.02
					l-3.85,8.19h7.64L117.11,14.02z"/>
				<path class="st1" d="M123.59,20.36c0-0.99,0.19-1.98,0.56-2.96c0.37-0.98,0.92-1.86,1.65-2.64c0.73-0.78,1.62-1.41,2.67-1.9
					c1.05-0.48,2.25-0.73,3.61-0.73c1.6,0,2.96,0.34,4.09,1.02c1.13,0.68,1.98,1.54,2.55,2.59l-1.18,0.7
					c-0.3-0.57-0.67-1.04-1.09-1.42c-0.43-0.38-0.88-0.69-1.37-0.92s-1-0.4-1.53-0.5c-0.54-0.1-1.06-0.15-1.56-0.15
					c-1.13,0-2.13,0.21-2.99,0.62s-1.59,0.95-2.18,1.62s-1.05,1.42-1.35,2.26c-0.3,0.84-0.46,1.68-0.46,2.53
					c0,0.95,0.18,1.85,0.55,2.71c0.36,0.86,0.86,1.61,1.49,2.26c0.62,0.65,1.37,1.17,2.23,1.56c0.86,0.39,1.78,0.59,2.77,0.59
					c0.53,0,1.07-0.06,1.64-0.18s1.11-0.31,1.62-0.56c0.52-0.25,1-0.58,1.44-0.99c0.44-0.4,0.82-0.88,1.12-1.42l1.21,0.61
					c-0.3,0.63-0.72,1.18-1.24,1.65c-0.53,0.48-1.11,0.87-1.74,1.2s-1.31,0.57-2.03,0.74s-1.42,0.26-2.11,0.26
					c-1.23,0-2.36-0.25-3.38-0.74c-1.02-0.49-1.9-1.15-2.64-1.96c-0.74-0.81-1.31-1.72-1.73-2.74
					C123.8,22.44,123.59,21.41,123.59,20.36z"/>
				<path class="st1" d="M139.72,28.75V12.23h7.4c0.77,0,1.47,0.15,2.11,0.46c0.64,0.3,1.19,0.7,1.65,1.18s0.83,1.04,1.09,1.67
					c0.26,0.63,0.39,1.25,0.39,1.88c0,0.67-0.12,1.31-0.36,1.93c-0.24,0.62-0.59,1.17-1.03,1.65c-0.44,0.48-0.98,0.87-1.61,1.17
					c-0.63,0.29-1.31,0.44-2.06,0.44h-6.18v6.15H139.72z M141.12,21.33h6.09c0.57,0,1.08-0.11,1.55-0.32
					c0.46-0.21,0.86-0.5,1.18-0.86c0.32-0.36,0.57-0.78,0.74-1.26s0.26-0.97,0.26-1.47c0-0.53-0.1-1.02-0.3-1.49
					c-0.2-0.46-0.48-0.87-0.83-1.23c-0.35-0.35-0.76-0.64-1.23-0.85c-0.47-0.21-0.97-0.32-1.52-0.32h-5.94V21.33z"/>
				<path class="st1" d="M165.67,27.48v1.27h-12V12.23h11.76v1.3h-10.37v6.18h9.06v1.21h-9.06v6.55H165.67z"/>
				<path class="st1" d="M167.04,28.75V12.23h7.52c0.75,0,1.44,0.15,2.09,0.46c0.65,0.3,1.2,0.7,1.67,1.18s0.83,1.04,1.09,1.67
					c0.26,0.63,0.39,1.25,0.39,1.88c0,0.61-0.1,1.18-0.3,1.73c-0.2,0.55-0.49,1.04-0.85,1.49c-0.36,0.44-0.8,0.82-1.32,1.12
					s-1.08,0.51-1.68,0.61l4.43,6.4h-1.64l-4.27-6.15h-5.73v6.15H167.04z M168.43,21.33h6.18c0.57,0,1.08-0.11,1.55-0.33
					c0.46-0.22,0.86-0.52,1.18-0.88c0.32-0.36,0.58-0.78,0.76-1.24c0.18-0.46,0.27-0.95,0.27-1.46c0-0.5-0.1-1-0.3-1.47
					c-0.2-0.47-0.48-0.89-0.83-1.24c-0.35-0.35-0.77-0.64-1.24-0.85s-0.99-0.32-1.53-0.32h-6.03V21.33z"/>
				<path class="st1" d="M189.86,26.51c0.5,0.34,1.11,0.62,1.82,0.83c0.71,0.21,1.5,0.32,2.36,0.32c1.17,0,2.1-0.21,2.79-0.64
					c0.69-0.42,1.21-1.04,1.58-1.85c0.36-0.81,0.6-1.8,0.71-2.99s0.17-2.52,0.17-4.02V7.23h1.55v10.94c0,1.64-0.07,3.13-0.21,4.47
					c-0.14,1.34-0.45,2.49-0.92,3.44c-0.47,0.95-1.16,1.69-2.05,2.21c-0.89,0.53-2.09,0.79-3.61,0.79c-1.82,0-3.38-0.44-4.67-1.33
					L189.86,26.51z"/>
				<path class="st1" d="M199.69,28.75l7.61-16.52h1.18l7.58,16.52h-1.52l-2.42-5.31h-8.43l-2.46,5.31H199.69z M207.9,14.02
					l-3.85,8.19h7.64L207.9,14.02z"/>
				<path class="st1" d="M218.54,14.9v13.85h-1.39V12.23h1.09l12.4,14.1V12.26h1.39v16.49h-1.27L218.54,14.9z"/>
				<path class="st1" d="M234.03,28.75V12.26h1.39v16.49H234.03z"/>
				<path class="st1" d="M237.43,28.75V12.26h1.39v9.79l10.31-9.82h1.64l-7.43,7.25l7.79,9.28h-1.58l-7.09-8.4l-3.64,3.3v5.09
					H237.43z"/>
			</g>
			<g>
				<path class="st2" d="M97.81,36.38c-1.72,0.04-2.96-0.36-3.27-1.04c-0.09-0.16,0.03-0.26,0.32-0.24
					c2.55,0.13,7.32-0.55,8.96-0.51c1.21,0.02,2.3,0.22,2.73,0.93c0.09,0.15,0.03,0.29-0.34,0.27c-1.41-0.09-3.21,0.09-4.88,0.27
					c0.03,0.44-0.17,1.04-0.95,1.93c-1.72,1.99-4.16,4.54-6.4,7.87c-0.11,0.18-0.26,0.18-0.46,0.05c-0.4-0.24-0.75-0.78-0.37-1.66
					c0.66-1.49,3.76-5.45,6.43-8.02C98.9,36.33,98.33,36.36,97.81,36.38z"/>
				<path class="st2" d="M107.65,42.14c-0.6,1.55-2.41,3.39-4.53,3.84c-1.03,0.22-2.47,0.15-3.62-0.8c-1.26-1.06-0.83-2.64,0.46-4.1
					c1.09-1.24,2.84-2.29,4.56-2.37c0.89-0.04,1.38,0.13,1.95,0.62c0.66,0.57,1.52,0.69,1.35,2c-0.03,0.15-0.03,0.27-0.06,0.42
					c0.17,0,0.34-0.04,0.57-0.04c0.2,0,0.2,0.09,0.09,0.18C108.23,42.05,107.94,42.12,107.65,42.14z M105.22,41.68
					c-0.6-0.29-1.29-0.93-1.32-1.6c-0.77,0.42-1.61,1.02-2.21,1.71c-1.21,1.38-1.64,3.06-0.89,3.46c0.8,0.42,2.55-0.22,3.96-1.9
					c0.43-0.51,0.77-1.02,1-1.46C105.56,41.85,105.39,41.77,105.22,41.68z M106.19,40.06c-0.14-0.58-0.72-0.47-0.86,0.05
					c-0.14,0.49,0.17,1.02,0.63,1.29C106.19,40.84,106.28,40.39,106.19,40.06z"/>
				<path class="st2" d="M118.61,46.02c-1.52,0-2.5-0.49-3.01-1.29c-0.26,0.38-0.57,0.82-0.83,1.2c-0.12,0.18-0.29,0.2-0.46,0.05
					c-0.43-0.36-0.72-0.89-0.14-2c0.77-1.51,6.4-8.25,8.38-10c0.26-0.24,0.49-0.24,0.72,0.02c0.43,0.51,0.43,1.33-0.75,2.7
					c-0.43,0.51-1.67,1.77-2.55,2.77c0.83-0.47,1.72-0.77,2.47-0.77c2.44,0,2.55,2.15,0.98,4.37
					C122.06,44.98,120.28,46.02,118.61,46.02z M119.91,40.17c-1.29,0.86-2.67,2.37-3.73,3.77c0.06,0.53,0.43,1.11,1.21,1.22
					c1,0.15,2.32-0.4,3.99-2.51c1.64-2.06,1.29-3.17,0.63-3.21C121.4,39.4,120.77,39.6,119.91,40.17z"/>
				<path class="st2" d="M128.49,45.58c2.38,0.07,4.48-1.38,5.71-2.59c0.14-0.15,0.37-0.15,0.49,0.02c0.12,0.15,0.03,0.66-0.49,1.13
					c-1.21,1.11-3.42,1.95-5.63,1.97c-3.65,0.04-4.91-2.24-3.04-4.59c1.87-2.35,4.79-3.3,6.23-2.77c0.72,0.27,1.23,0.55,1.69,0.95
					c0.52,0.44,0.29,1.55-0.92,2.48c-1.41,1.09-3.33,1.57-5.34,0.53C126.28,44.38,126.96,45.53,128.49,45.58z M130.87,41.39
					c0.92-0.77,1.55-1.71,1.15-1.91c-0.6-0.31-2.99,0.78-4.33,2.51c-0.09,0.11-0.17,0.22-0.23,0.31
					C128.86,42.87,130.04,42.08,130.87,41.39z"/>
				<path class="st2" d="M147.25,46.11c-2.41,0-3.01-1.11-2.15-2.7c0.95-1.77,3.44-3.66,2.98-3.83c-0.4-0.15-3.53,1.09-5.19,2.82
					c-1.03,1.08-2.1,2.35-2.78,3.46c-0.12,0.16-0.32,0.2-0.49,0.07c-0.46-0.33-0.72-0.84-0.11-1.93c1-1.82,6.97-8.24,9.3-10.08
					c0.26-0.22,0.55-0.2,0.69,0.02c0.37,0.53,0.29,1.44-0.8,2.59c-0.69,0.73-2.21,2.2-3.44,3.42c1.18-0.73,2.67-1.33,3.44-1.28
					c0.98,0.07,1.87,0.98,1.12,1.91c-0.63,0.8-2.01,2.13-2.67,3.08c-0.72,1.06-0.57,1.91,0.49,1.88c1.18-0.04,2.76-1.35,3.65-2.51
					c0.11-0.16,0.4-0.16,0.52-0.02c0.14,0.2,0.14,0.58-0.29,1.13C150.7,45.2,148.95,46.11,147.25,46.11z"/>
				<path class="st2" d="M154.8,45.58c2.38,0.07,4.48-1.38,5.71-2.59c0.14-0.15,0.37-0.15,0.49,0.02c0.11,0.15,0.03,0.66-0.49,1.13
					c-1.21,1.11-3.42,1.95-5.62,1.97c-3.65,0.04-4.91-2.24-3.04-4.59c1.87-2.35,4.79-3.3,6.23-2.77c0.72,0.27,1.23,0.55,1.69,0.95
					c0.52,0.44,0.29,1.55-0.92,2.48c-1.41,1.09-3.33,1.57-5.34,0.53C152.59,44.38,153.28,45.53,154.8,45.58z M157.18,41.39
					c0.92-0.77,1.55-1.71,1.15-1.91c-0.6-0.31-2.99,0.78-4.33,2.51c-0.09,0.11-0.17,0.22-0.23,0.31
					C155.17,42.87,156.35,42.08,157.18,41.39z"/>
				<path class="st2" d="M170.38,38.79c0.26-0.24,0.49-0.27,0.69-0.11c0.43,0.33,0.66,1.11-0.03,2.02
					c-0.63,0.82-2.07,2.19-2.76,3.15c-0.72,1.02-0.75,1.8,0.23,1.77c1.18-0.04,2.76-1.28,3.76-2.53c0.14-0.16,0.34-0.18,0.46-0.02
					c0.11,0.16,0.11,0.62-0.26,1.13c-0.75,1-2.55,2-4.13,1.95c-1.55-0.05-2.35-0.64-2.35-1.49c-0.92,0.75-2.21,1.42-3.59,1.42
					c-2.67,0-3.21-2.31-0.83-4.52c2.32-2.15,4.59-2.97,6.03-2.97c1.23,0,1.81,0.6,1.75,1.31C169.72,39.46,170.07,39.08,170.38,38.79
					z M168.09,39.53c-0.92-0.05-3.01,1.13-4.59,2.75c-1.52,1.57-1.89,3.17-0.78,3.19c1.18,0.02,2.67-1.15,4.13-2.75
					C168.66,40.72,168.92,39.59,168.09,39.53z"/>
				<path class="st2" d="M174.37,45.54c1.38,0.07,3.39-1.24,4.51-2.64c0.2-0.24,0.52-0.25,0.63,0c0.14,0.29,0.03,0.69-0.29,1.13
					c-0.4,0.55-2.5,2.06-4.79,2.02c-1.98-0.04-3.04-0.91-2.38-2.88c1.06-3.17,4.33-6.47,7.26-8.4c0.43-0.29,0.83-0.33,1.23-0.09
					c0.83,0.47,1,1.15,0.66,2c-0.89,2.24-4.1,4.43-6.66,5.48C173.39,43.96,173.08,45.47,174.37,45.54z M180.23,36.31
					c-0.37-0.15-2.5,1.88-4.48,4.21c-0.26,0.29-0.49,0.58-0.69,0.88C178.99,39.37,180.6,36.45,180.23,36.31z"/>
				<path class="st2" d="M180.05,38.26c-0.29-0.26-0.11-0.38,0.32-0.36c0.8,0.02,1.61-0.02,2.38-0.07c0.89-1,1.69-1.86,2.18-2.26
					c0.26-0.24,0.54-0.22,0.69,0c0.32,0.51,0.32,1.11-0.37,2.06c1.12-0.02,1.55,0.31,1.78,0.55c0.2,0.22,0.09,0.35-0.34,0.35
					c-0.63-0.05-1.52,0-2.24,0.07c-1.12,1.22-2.75,2.99-3.85,4.52c-0.95,1.33-0.63,2.46,0.57,2.5c1.29,0.04,2.93-1.26,3.99-2.62
					c0.17-0.22,0.49-0.26,0.6,0c0.14,0.29,0,0.62-0.29,1.04c-0.37,0.53-2.27,2.13-4.56,2.08c-1.89-0.04-3.42-1.38-2.04-3.48
					c0.6-0.91,1.81-2.44,3.04-3.88C180.94,38.73,180.28,38.46,180.05,38.26z"/>
				<path class="st2" d="M191.67,46.11c-2.41,0-3.01-1.11-2.15-2.7c0.95-1.77,3.44-3.66,2.98-3.83c-0.4-0.15-3.53,1.09-5.19,2.82
					c-1.03,1.08-2.1,2.35-2.78,3.46c-0.12,0.16-0.32,0.2-0.49,0.07c-0.46-0.33-0.72-0.84-0.11-1.93c1-1.82,6.97-8.24,9.3-10.08
					c0.26-0.22,0.55-0.2,0.69,0.02c0.37,0.53,0.29,1.44-0.8,2.59c-0.69,0.73-2.21,2.2-3.44,3.42c1.18-0.73,2.67-1.33,3.44-1.28
					c0.98,0.07,1.87,0.98,1.12,1.91c-0.63,0.8-2.01,2.13-2.67,3.08c-0.72,1.06-0.57,1.91,0.49,1.88c1.18-0.04,2.76-1.35,3.65-2.51
					c0.11-0.16,0.4-0.16,0.52-0.02c0.14,0.2,0.14,0.58-0.29,1.13C195.12,45.2,193.37,46.11,191.67,46.11z"/>
				<path class="st2" d="M195.35,43.43c0.72-1.33,2.61-3.48,3.67-4.43c0.26-0.22,0.46-0.27,0.69-0.11c0.43,0.29,0.66,1.07-0.03,1.99
					c-0.6,0.8-1.81,2.04-2.41,2.95c-0.69,1.06-0.63,1.77,0.29,1.73c1.29-0.04,2.87-1.24,3.73-2.5c0.14-0.16,0.34-0.15,0.46,0
					c0.23,0.29,0.14,0.67-0.2,1.13c-0.86,1.13-2.67,1.89-4.28,1.89C195.09,46.09,194.54,44.92,195.35,43.43z M201.75,38.68
					c-0.37,0.25-1.18,0.2-1.61-0.27c-0.46-0.49-0.32-1.04,0.14-1.35s1.29-0.09,1.67,0.4C202.32,37.93,202.12,38.42,201.75,38.68z"/>
				<path class="st2" d="M216.18,46.09c-2.18-0.07-3.04-1.31-2.33-2.79c0.6-1.22,2.33-2.57,3.56-3.44
					c-1.26,0.51-2.55,0.69-3.44,0.69c-2.38,3.17-5.48,5.47-8.9,5.5c-3.65,0.04-4.88-2.22-3.01-4.56c1.81-2.26,4.74-3.28,6.17-2.75
					c0.72,0.27,1.23,0.53,1.69,0.93c0.49,0.44,0.2,1.51-0.95,2.44c-1.35,1.11-3.27,1.57-5.28,0.55c-0.92,1.66-0.2,2.84,1.26,2.88
					c3.16,0.09,6.31-2.79,7.89-5.1c-2.21-0.58,0.6-3.01,1.81-3.04c0.89-0.02,0.6,1.09-0.11,2.28c1-0.09,2.01-0.38,3.13-0.86
					c0.34-0.15,0.6-0.24,0.8-0.05c0.57,0.4,1.29,1.28,0.43,1.88c-1.35,0.95-2.81,2.19-3.3,3.17c-0.49,1-0.14,1.73,0.72,1.75
					c1.21,0.04,2.67-1.17,3.59-2.51c0.11-0.15,0.32-0.18,0.43-0.02c0.14,0.2,0.2,0.67-0.14,1.18
					C219.48,45.31,217.76,46.15,216.18,46.09z M207.34,41.37c0.92-0.75,1.52-1.69,1.15-1.89c-0.63-0.35-2.98,0.8-4.3,2.48
					c-0.09,0.09-0.14,0.22-0.23,0.31C205.36,42.81,206.48,42.06,207.34,41.37z"/>
			</g>
		</g>
		<g>
			<path id="tło" class="st3" d="M78.5,21.57c-0.4-0.87-0.96-4.96-7.2-10.6c-2.45-2.21-5.3-5.06-6.51-7.2
				c-0.63-1.11-4.49-3.02-8.44-2.69c0,0-1.11,0-1.58,0.79c-0.47,0.79-1.5,2.69-1.34,3.88s0.4,2.14,1.98,1.98
				c0,0,0.47,0.58,1.18-0.06c0,0,0.82,0.3,1.27-0.47c0,0,0.91,0.72,2.85-0.36c0.41-0.23,1.22-0.14,1.45,0.18
				c0.23,0.32,3.67,5.21,3.9,7.39c0.23,2.17,0.27,5.62,0.27,5.62s-6.75-3.22-10.78,1.77c0,0-0.63-1.5-5.71-0.86
				c0,0-1.77-1.4-4.85-2.54c0,0-0.46-0.32-0.35-1.11c0.11-0.79,0.47-0.58,0.79-2.47c0,0,1.79-0.26,1.79-3.16
				c0-0.53-0.53-1.63-1.32-1.16c0.1-0.22,0.15-0.7,0.03-0.96c-0.05-0.1-0.05-0.38,0.07-0.69c0.1-0.26,0.19-0.77,0.14-1.04
				c-0.05-0.27-0.16-1.18-0.08-1.54c0.16-0.73-0.01-1.41-0.13-1.64c-0.12-0.23-0.21-0.33-0.48-0.55c-0.04-0.03-0.08-0.08-0.11-0.12
				c-0.04-0.04-0.07-0.08-0.1-0.12c-0.17-0.24-0.28-0.53-0.32-0.73c-0.08-0.36-0.85-0.92-1.14-1c-0.12-0.03-0.27,0.05-0.73-0.49
				c-0.45-0.54-1.28-0.65-1.48-0.57c-0.2,0.08-0.49,0.19-0.9,0.03c-0.41-0.16-1-0.38-1.23-0.31c-0.29,0.09-0.68,0.25-1.17,0.44
				c0,0-0.62,0.15-1.01,0.17c-0.27,0.02-0.61,0.17-1.34,0.47c-0.52,0.21-0.4,0.95-1.08,1.13c-0.65,0.17-1.18,1.48-1.2,2.04
				s0.02,1.3-0.19,2.51c-0.22,1.22,0.12,1.76,0.12,1.76c-0.12,0.58,0,0.94,0.15,1.16c0,0.02,0,0.04,0,0.04
				c-0.79-0.47-1.32,0.63-1.32,1.16c0,2.9,1.79,3.16,1.79,3.16c0.32,1.9,0.68,1.68,0.79,2.47c0.11,0.79-0.35,1.11-0.35,1.11
				c-3.08,1.13-4.85,2.54-4.85,2.54c-5.07-0.63-5.71,0.86-5.71,0.86c-4.03-4.98-10.78-1.77-10.78-1.77s0.05-3.44,0.27-5.62
				c0.23-2.17,3.67-7.07,3.9-7.39c0.23-0.32,1.04-0.41,1.45-0.18c1.94,1.08,2.85,0.36,2.85,0.36c0.45,0.77,1.27,0.47,1.27,0.47
				c0.71,0.65,1.18,0.06,1.18,0.06c1.58,0.16,1.82-0.79,1.98-1.98c0.16-1.19-0.87-3.08-1.34-3.88c-0.47-0.79-1.58-0.79-1.58-0.79
				c-3.95-0.33-7.81,1.58-8.44,2.69c-1.21,2.14-4.06,4.98-6.51,7.2c-6.24,5.64-6.8,9.73-7.2,10.6c-0.4,0.87-0.24,1.9,0,2.5
				s4.83,3.51,5.54,4.3c6.72,7.47,11.31,5.77,12.34,5.7c1.03-0.08,1.66,0.47,2.21,1.58c2.55,5.1,3.24,5.46,4.19,6.33
				c0.95,0.87,2.94,2.49,3.34,3.08c1.88,2.79,0.98,12.13,0.98,12.13h7.98h4.21h7.98c0,0-0.9-9.35,0.98-12.13
				c0.4-0.59,2.39-2.21,3.34-3.08c0.95-0.87,1.64-1.23,4.19-6.33c0.55-1.11,1.19-1.66,2.21-1.58c1.03,0.08,5.62,1.77,12.34-5.7
				c0.71-0.79,5.3-3.7,5.54-4.3C78.74,23.47,78.9,22.44,78.5,21.57z"/>
			<g class="st4">
				<path class="st5" d="M18.06,32.8c-4.86-0.45-10.29-5.71-10.29-5.71C11.84,34.21,18.06,32.8,18.06,32.8z"/>
				<path class="st5" d="M8.73,25.39c0,0,0.28-1.87,2.49-2.03C11.22,23.36,7.94,22.91,8.73,25.39z"/>
				<path class="st5" d="M24.78,38.62c0.17,1.47,0.96,2.15,2.09,2.43c1.13,0.28,0.57-1.19,0.57-1.19
					C25.91,39.81,24.78,38.62,24.78,38.62z"/>
				<path class="st5" d="M27.83,42.24c1.58,1.87,2.6,2.03,3.62,1.64C32.47,43.48,27.83,42.24,27.83,42.24z"/>
				<path class="st5" d="M38.35,48.23c-1.59,0.71-3.33,0.17-3.96-0.28c-0.62-0.45-0.96-0.23-1.19,0.28c-0.23,0.51,0,4.92,0,4.92
					s5.48,2.37,5.82,0.79c0.34-1.58,0.28-3.73,0.28-5.14C39.31,47.38,38.85,48,38.35,48.23z"/>
				<path class="st5" d="M36.46,42.86c-1.27,0.68-2.28,0.84-2.84,1.01c0,0-0.71,0.28-0.8,0.6c-0.09,0.32,0.8,1.74,1.44,2.39
					c1.74,1.74,3.74,0.77,4.54,0.24c0.8-0.54,0.64-1.96,0.64-3.73C39.45,41.59,37.3,42.41,36.46,42.86z"/>
				<path class="st5" d="M36.58,39.85c0,0-2.84,1.33-6.59-0.73c-0.62-0.34-1.69-0.75-1.08,0.4c0.4,0.75,3.02,4.87,5.23,3.62
					c1.81-1.02,3.82-2,5.66-2.11c1.84,0.11,3.85,1.09,5.66,2.11c2.22,1.25,4.83-2.87,5.23-3.62c0.61-1.15-0.46-0.74-1.08-0.4
					c-3.74,2.06-6.59,0.73-6.59,0.73c-0.72-0.36-1.42-0.5-2.45-0.47c0,0,0,0-0.01-0.01c-0.41-0.02-0.85-0.02-1.33,0.01
					C38.21,39.44,37.94,39.26,36.58,39.85z"/>
				<path class="st5" d="M37.66,38.62c1.12-0.94,2.78-2.59,0.43-5.1c-0.8-0.85-2.56-1.92-4.11-1.87c0,0,2.3-0.78,4.97,1.27
					c0,0,0.29,0.17,0.35,0.18c0.16,0.03,0.23-0.18,0.23-0.18s0.57-3.45-3.33-4.32c-3.1-0.69-6.02-2.04-8.63-3.47
					c-1.4-0.77-3.91-1.6-3.54,1.12c0.37,2.72,2.09,4.96,2.67,7.96c0.32,1.66,0.59,2.83,2.72,3.79
					C31.58,38.96,35.52,40.4,37.66,38.62z"/>
				<path class="st5" d="M9.74,16.96c0.17-0.78,1.32-2.72,2.02-3.01c0,0-1.61,2.85-1.73,5.32c-0.12,2.48,0.54,3.05,1.36,2.27
					c0.51-0.48,0.97-1.19,1.28-5.53c0.04-0.58,0.55-4.86,2.32-6.45c0,0-6.75,1.8-9.41,7.12c-0.29,0.57-1.15,4.44,0.29,4.44
					C7.3,21.12,8.8,21.2,9.74,16.96z"/>
				<path class="st5" d="M25.56,23.1c1.5,1.2,1.96,1.55,3.84,0.12c1.88-1.43,4.29-2.7,4.56-1.9c0.27,0.81-0.13,3.06,1.68,4.67
					c1.81,1.61,1.52,1.41,2.02,1.61c0.5,0.2,1.3,0.48,1.74,0.94c0.42,0.57,0.8,0,0.8,0c0.44-0.48,1.24-0.74,1.74-0.94
					c0.5-0.2,0.21,0,2.02-1.61c1.81-1.61,1.41-3.86,1.68-4.67c0.27-0.81,2.69,0.47,4.56,1.9c1.88,1.43,2.34,1.08,3.84-0.12
					c1.5-1.2-1.05-1.41-2.27-1.53s-0.91,0.46-0.65,0.55c0.26,0.09,0.66,0.5,0.65,0.67c-0.01,0.52-0.39,0.27-0.72-0.1
					c-2.08-2.34-6.64-3.42-6.64-3.42c-0.25,1.99-1.36,2.71-1.36,2.71v-2.71l-0.45,0.25c-0.12,4.21-2.06,4.79-2.35,5.03
					c-0.05,0.04-0.1,0.05-0.15,0.07c-0.07,0.02-0.15,0.04-0.24,0.05c-0.13,0-0.26-0.02-0.36-0.06c-0.05-0.02-0.09-0.03-0.14-0.06
					c-0.29-0.25-2.23-0.83-2.35-5.03l-0.45-0.25v2.71c0,0-1.11-0.72-1.36-2.71c0,0-4.57,1.09-6.64,3.42
					c-0.33,0.37-0.71,0.62-0.72,0.1c0-0.17,0.4-0.59,0.65-0.67c0.26-0.09,0.57-0.67-0.65-0.55S24.07,21.9,25.56,23.1z"/>
				<path class="st5" d="M22.32,21.19c-4.91-3.68-9.41,0.18-9.41,0.18c-0.56,0.41,0.2,0.74,0.76,0.5c0.98-0.41,2.88-0.36,3.86-0.25
					c0.98,0.11,0.77,0.56,0,0.49c-2.09-0.19-2.78-0.04-4.25,0.67c-1.48,0.7,0.88,2.67,2.39,3.72s3.72,0.95,4.92,0.74
					c2.31-0.41,2.07-2.32,1.83-2.82c-0.44-0.9,0.14-0.62,0.56-0.21c0.42,0.41,0.67,0.17,0.77-0.34
					C24.03,22.52,22.88,21.61,22.32,21.19z"/>
				<path class="st5" d="M34.57,14.12c0.01,0.48,0.08,2.29,1.47,3.69c0.64,0.65,1.53,1.17,2.42,1.45c0,0,0.01,0.01,0.01,0.01
					c0.37,0.18,0.81,0.23,1.29,0.19c0.32,0,0.61-0.06,0.89-0.16c0.98-0.26,2.02-0.81,2.93-1.49c1.63-1.22,1.47-3.69,1.47-3.69
					c1.03,0.15,1.47-0.83,1.59-1.44c0.49-2.47-1.03-1.51-1.03-1.51c0,0.75-0.61,1.26-0.61,1.26s0.19-2.15,0-2.58
					c-0.41-0.92-0.45-2.01-0.52-3.47c-0.38-1.03-2.12-0.92-2.53-0.8c-0.41,0.12-1,0.68-1.43,0.78c-0.2,0.04-0.51,0.01-0.71,0.02
					c-0.2,0-0.4-0.03-0.6-0.06c-0.43-0.09-0.89-0.62-1.54-0.73c-0.65-0.11-2.22-0.22-2.53,0.8c-0.05,1.45-0.11,2.55-0.52,3.47
					c-0.19,0.42,0,2.58,0,2.58s-0.61-0.51-0.61-1.26c0,0-1.52-0.96-1.03,1.51C33.1,13.29,33.54,14.27,34.57,14.12z"/>
				<path class="st5" d="M24.28,4.66c0.26,0.39,0.18,1.78,0.04,2.23c-0.15,0.44,0.42,0.63,0.63,0.33c0.21-0.3,0.81-1.96,0.16-3.54
					s-0.3-1.8-2.93-2.03c-2.63-0.24-4.65,1.11-5.58,1.48c-0.92,0.37-1.37,1.85-0.81,2.33c0.38,0.33,0.59,1.03,0.44,1.37
					c-0.44,1-0.07,0.96,0,0.81c0.07-0.15,1.02-1.03,1.18-1.14c0.22-0.17,0.35-0.32-0.21-1.08c-0.56-0.76,1.21-0.84,1.71-0.35
					c1.08,1.08,1.7,0.58,1.92,0.31c-0.07,0.19-0.08,0.53-0.04,0.86c0.06,0.43-0.45-0.15-1.12-0.3s-0.45,0.5-0.43,0.63
					c0.02,0.13,0.6,0.72,1.92,0.58s0.78-2.47,0.78-2.47c0.69,0.38,0.45,1.57,0.37,2.02c-0.04,0.2-0.01,0.33,0.07,0.38
					c0.41,0.09,0.55-0.25,0.58-0.28c0.33-0.8,0.24-2.4,0.24-2.4s0.46,1.34,0.13,2.57c0,0.07-0.01,0.24,0.09,0.35
					c0.17,0.18,0.52,0.11,0.64-0.13C24.23,6.83,24.28,4.66,24.28,4.66z"/>
				<path class="st5" d="M71.84,27.09c0,0-5.43,5.26-10.29,5.71C61.56,32.8,67.77,34.21,71.84,27.09z"/>
				<path class="st5" d="M68.39,23.36c2.2,0.17,2.49,2.03,2.49,2.03C71.67,22.91,68.39,23.36,68.39,23.36z"/>
				<path class="st5" d="M52.74,41.05c1.13-0.28,1.92-0.96,2.09-2.43c0,0-1.13,1.19-2.66,1.24C52.17,39.86,51.61,41.33,52.74,41.05z
					"/>
				<path class="st5" d="M48.16,43.87c1.02,0.4,2.03,0.23,3.62-1.64C51.78,42.24,47.14,43.48,48.16,43.87z"/>
				<path class="st5" d="M45.22,47.94c-0.62,0.45-2.37,0.99-3.96,0.28c-0.51-0.23-0.96-0.85-0.96,0.57c0,1.41-0.06,3.56,0.28,5.14
					c0.34,1.58,5.82-0.79,5.82-0.79s0.23-4.41,0-4.92C46.18,47.72,45.84,47.49,45.22,47.94z"/>
				<path class="st5" d="M45.99,43.87c-0.56-0.17-1.57-0.33-2.84-1.01c-0.84-0.45-2.99-1.27-2.99,0.51c0,1.77-0.15,3.19,0.64,3.73
					c0.8,0.54,2.79,1.51,4.54-0.24c0.64-0.64,1.53-2.06,1.44-2.39C46.7,44.15,45.99,43.87,45.99,43.87z"/>
				<path class="st5" d="M52.03,25.13c-2.61,1.43-5.52,2.78-8.63,3.47c-3.89,0.87-3.33,4.32-3.33,4.32s0.07,0.21,0.23,0.18
					c0.07-0.01,0.35-0.18,0.35-0.18c2.67-2.05,4.97-1.27,4.97-1.27c-1.55-0.05-3.31,1.02-4.11,1.87c-2.35,2.51-0.69,4.17,0.43,5.1
					c2.14,1.79,6.09,0.35,8.23-0.62c2.14-0.96,2.4-2.14,2.72-3.79c0.58-3,2.3-5.24,2.67-7.96C55.94,23.52,53.43,24.36,52.03,25.13z"
					/>
				<path class="st5" d="M74.03,16.68c-2.66-5.32-9.41-7.12-9.41-7.12c1.77,1.59,2.28,5.87,2.32,6.45c0.31,4.34,0.77,5.05,1.28,5.53
					c0.83,0.78,1.49,0.21,1.36-2.27s-1.73-5.32-1.73-5.32c0.7,0.29,1.85,2.23,2.02,3.01c0.94,4.24,2.44,4.16,3.87,4.16
					C75.18,21.12,74.32,17.25,74.03,16.68z"/>
				<path class="st5" d="M66.32,22.77c-1.48-0.7-2.16-0.86-4.25-0.67c-0.77,0.07-0.98-0.39,0-0.49c0.98-0.11,2.88-0.16,3.86,0.25
					c0.56,0.24,1.33-0.09,0.76-0.5c0,0-4.5-3.86-9.41-0.18c-0.56,0.42-1.72,1.33-1.44,2.67c0.11,0.52,0.35,0.76,0.77,0.34
					c0.42-0.41,1-0.69,0.56,0.21c-0.25,0.5-0.48,2.41,1.83,2.82c1.19,0.21,3.41,0.32,4.92-0.74C65.44,25.44,67.8,23.47,66.32,22.77z
					"/>
				<path class="st5" d="M56.2,7.3c0.1-0.1,0.1-0.28,0.09-0.35c-0.33-1.24,0.13-2.57,0.13-2.57s-0.09,1.6,0.24,2.4
					c0.03,0.02,0.17,0.37,0.58,0.28c0.08-0.05,0.11-0.19,0.07-0.38c-0.09-0.45-0.32-1.64,0.37-2.02c0,0-0.54,2.34,0.78,2.47
					c1.32,0.13,1.9-0.45,1.92-0.58c0.02-0.13,0.24-0.78-0.43-0.63s-1.19,0.73-1.12,0.3c0.05-0.32,0.04-0.67-0.04-0.86
					c0.22,0.27,0.84,0.77,1.92-0.31c0.5-0.5,2.27-0.41,1.71,0.35c-0.56,0.76-0.44,0.91-0.21,1.08c0.16,0.12,1.11,1,1.18,1.14
					c0.07,0.15,0.44,0.18,0-0.81c-0.15-0.33,0.07-1.04,0.44-1.37c0.55-0.48,0.11-1.96-0.81-2.33c-0.92-0.37-2.95-1.71-5.58-1.48
					c-2.63,0.24-2.27,0.44-2.93,2.03c-0.66,1.59-0.06,3.24,0.16,3.54c0.21,0.3,0.78,0.11,0.63-0.33s-0.22-1.83,0.04-2.23
					c0,0,0.06,2.17,0.23,2.52C55.68,7.42,56.03,7.48,56.2,7.3z"/>
			</g>
			<path class="st6" d="M78.5,21.57c-0.4-0.87-0.96-4.96-7.2-10.6c-2.45-2.21-5.3-5.06-6.51-7.2c-0.63-1.11-4.49-3.02-8.44-2.69
				c0,0-1.11,0-1.58,0.79c-0.47,0.79-1.5,2.69-1.34,3.88c0.16,1.19,0.4,2.14,1.98,1.98c0,0,0.47,0.58,1.18-0.06
				c0,0,0.82,0.3,1.27-0.47c0,0,0.91,0.72,2.85-0.36c0.41-0.23,1.22-0.14,1.45,0.18s3.67,5.21,3.9,7.39s0.27,5.62,0.27,5.62
				s-6.75-3.22-10.78,1.77c0,0-0.63-1.5-5.71-0.86c0,0-1.77-1.4-4.85-2.54c0,0-0.46-0.32-0.35-1.11c0.11-0.79,0.47-0.58,0.79-2.47
				c0,0,1.79-0.26,1.79-3.16c0-0.53-0.53-1.63-1.32-1.16c0.1-0.22,0.15-0.7,0.03-0.96c-0.05-0.1-0.05-0.38,0.07-0.69
				c0.1-0.26,0.19-0.77,0.14-1.04c-0.05-0.27-0.16-1.18-0.08-1.54c0.16-0.73-0.01-1.41-0.13-1.64c-0.12-0.23-0.21-0.33-0.48-0.55
				c-0.04-0.03-0.08-0.08-0.11-0.12c-0.04-0.04-0.07-0.08-0.1-0.12c-0.17-0.24-0.28-0.53-0.32-0.73c-0.08-0.36-0.85-0.92-1.14-1
				c-0.12-0.03-0.27,0.05-0.73-0.49c-0.45-0.54-1.28-0.65-1.48-0.57c-0.2,0.08-0.49,0.19-0.9,0.03c-0.41-0.16-1-0.38-1.23-0.31
				c-0.29,0.09-0.68,0.25-1.17,0.44c0,0-0.62,0.15-1.01,0.17c-0.27,0.02-0.61,0.17-1.34,0.47c-0.52,0.21-0.4,0.95-1.08,1.13
				c-0.65,0.17-1.18,1.48-1.2,2.04c-0.02,0.56,0.02,1.3-0.19,2.51c-0.22,1.22,0.12,1.76,0.12,1.76c-0.12,0.58,0,0.94,0.15,1.16
				c0,0.02,0,0.04,0,0.04c-0.79-0.47-1.32,0.63-1.32,1.16c0,2.9,1.79,3.16,1.79,3.16c0.32,1.9,0.68,1.68,0.79,2.47
				c0.11,0.79-0.35,1.11-0.35,1.11c-3.08,1.13-4.85,2.54-4.85,2.54c-5.07-0.63-5.71,0.86-5.71,0.86
				c-4.03-4.98-10.78-1.77-10.78-1.77s0.05-3.44,0.27-5.62c0.23-2.17,3.67-7.07,3.9-7.39s1.04-0.41,1.45-0.18
				c1.94,1.08,2.85,0.36,2.85,0.36c0.45,0.77,1.27,0.47,1.27,0.47c0.71,0.65,1.18,0.06,1.18,0.06c1.58,0.16,1.82-0.79,1.98-1.98
				s-0.87-3.08-1.34-3.88c-0.47-0.79-1.58-0.79-1.58-0.79c-3.95-0.33-7.81,1.58-8.44,2.69c-1.21,2.14-4.06,4.98-6.51,7.2
				c-6.24,5.64-6.8,9.73-7.2,10.6c-0.4,0.87-0.24,1.9,0,2.5c0.24,0.6,4.83,3.51,5.54,4.3c6.72,7.47,11.31,5.77,12.34,5.7
				c1.03-0.08,1.66,0.47,2.21,1.58c2.55,5.1,3.24,5.46,4.19,6.33c0.95,0.87,2.94,2.49,3.34,3.08c1.88,2.79,0.98,12.13,0.98,12.13
				h7.98h4.21h7.98c0,0-0.9-9.35,0.98-12.13c0.4-0.59,2.39-2.21,3.34-3.08c0.95-0.87,1.64-1.23,4.19-6.33
				c0.55-1.11,1.19-1.66,2.21-1.58c1.03,0.08,5.62,1.77,12.34-5.7c0.71-0.79,5.3-3.7,5.54-4.3C78.74,23.47,78.9,22.44,78.5,21.57z
				 M63.82,5.44c-0.38,0.33-0.59,1.03-0.44,1.37c0.44,1,0.07,0.96,0,0.81C63.3,7.47,62.36,6.6,62.2,6.48
				c-0.22-0.17-0.35-0.32,0.21-1.08c0.56-0.76-1.21-0.84-1.71-0.35c-1.08,1.08-1.7,0.58-1.92,0.31c0.07,0.19,0.08,0.53,0.04,0.86
				c-0.06,0.43,0.45-0.15,1.12-0.3c0.67-0.15,0.45,0.5,0.43,0.63c-0.02,0.13-0.6,0.72-1.92,0.58C57.14,7,57.68,4.66,57.68,4.66
				c-0.69,0.38-0.45,1.57-0.37,2.02c0.04,0.2,0.01,0.33-0.07,0.38c-0.41,0.09-0.55-0.25-0.58-0.28c-0.33-0.8-0.24-2.4-0.24-2.4
				s-0.46,1.34-0.13,2.57c0,0.07,0.01,0.24-0.09,0.35c-0.17,0.18-0.52,0.11-0.64-0.13c-0.17-0.35-0.23-2.52-0.23-2.52
				c-0.26,0.39-0.18,1.78-0.04,2.23c0.15,0.44-0.42,0.63-0.63,0.33c-0.21-0.3-0.81-1.96-0.16-3.54c0.66-1.59,0.3-1.8,2.93-2.03
				c2.63-0.24,4.65,1.11,5.58,1.48C63.93,3.49,64.37,4.96,63.82,5.44z M16.6,3.12c0.92-0.37,2.95-1.71,5.58-1.48
				c2.63,0.24,2.27,0.44,2.93,2.03c0.66,1.59,0.06,3.24-0.16,3.54c-0.21,0.3-0.78,0.11-0.63-0.33c0.15-0.44,0.22-1.83-0.04-2.23
				c0,0-0.06,2.17-0.23,2.52c-0.12,0.24-0.47,0.31-0.64,0.13c-0.1-0.1-0.1-0.28-0.09-0.35c0.33-1.24-0.13-2.57-0.13-2.57
				s0.09,1.6-0.24,2.4c-0.03,0.02-0.17,0.37-0.58,0.28c-0.08-0.05-0.11-0.19-0.07-0.38c0.09-0.45,0.32-1.64-0.37-2.02
				c0,0,0.54,2.34-0.78,2.47c-1.32,0.13-1.9-0.45-1.92-0.58C19.21,6.42,19,5.77,19.67,5.92c0.67,0.15,1.19,0.73,1.12,0.3
				c-0.05-0.32-0.04-0.67,0.04-0.86c-0.22,0.27-0.84,0.77-1.92-0.31c-0.5-0.5-2.27-0.41-1.71,0.35c0.56,0.76,0.44,0.91,0.21,1.08
				c-0.16,0.12-1.11,1-1.18,1.14c-0.07,0.15-0.44,0.18,0-0.81c0.15-0.33-0.07-1.04-0.44-1.37C15.24,4.96,15.68,3.49,16.6,3.12z
				 M34.57,14.12c-1.03,0.15-1.47-0.83-1.59-1.44c-0.49-2.47,1.03-1.51,1.03-1.51c0,0.75,0.61,1.26,0.61,1.26s-0.19-2.15,0-2.58
				c0.41-0.92,0.47-2.01,0.52-3.47c0.31-1.02,1.88-0.91,2.53-0.8c0.65,0.11,1.11,0.64,1.54,0.73c0.2,0.04,0.4,0.06,0.6,0.06
				c0.2,0,0.51,0.02,0.71-0.02c0.43-0.1,1.02-0.66,1.43-0.78c0.41-0.12,2.15-0.23,2.53,0.8c0.07,1.45,0.11,2.55,0.52,3.47
				c0.19,0.42,0,2.58,0,2.58s0.61-0.51,0.61-1.26c0,0,1.52-0.96,1.03,1.51c-0.12,0.61-0.56,1.59-1.59,1.44c0,0,0.16,2.47-1.47,3.69
				c-0.91,0.68-1.96,1.23-2.93,1.49c-0.27,0.1-0.57,0.15-0.89,0.16c-0.48,0.03-0.92-0.02-1.29-0.19c0,0-0.01-0.01-0.01-0.01
				c-0.9-0.28-1.78-0.8-2.42-1.45C34.65,16.41,34.57,14.6,34.57,14.12z M27.83,21.57c1.22-0.12,0.91,0.46,0.65,0.55
				s-0.66,0.5-0.65,0.67c0.01,0.52,0.39,0.27,0.72-0.1c2.08-2.34,6.64-3.42,6.64-3.42c0.25,1.99,1.36,2.71,1.36,2.71v-2.71
				l0.45,0.25c0.12,4.21,2.06,4.79,2.35,5.03c0.04,0.04,0.09,0.04,0.14,0.06c0.11,0.03,0.23,0.06,0.36,0.06
				c0.09-0.01,0.17-0.03,0.24-0.05c0.05-0.02,0.1-0.03,0.15-0.07c0.29-0.25,2.23-0.83,2.35-5.03l0.45-0.25v2.71
				c0,0,1.11-0.72,1.36-2.71c0,0,4.57,1.09,6.64,3.42c0.33,0.37,0.71,0.62,0.72,0.1c0-0.17-0.4-0.59-0.65-0.67s-0.57-0.67,0.65-0.55
				c1.22,0.12,3.77,0.33,2.27,1.53c-1.5,1.2-1.96,1.55-3.84,0.12c-1.88-1.43-4.29-2.7-4.56-1.9c-0.27,0.81,0.13,3.06-1.68,4.67
				c-1.81,1.61-1.52,1.41-2.02,1.61c-0.5,0.2-1.3,0.46-1.74,0.94c0,0-0.38,0.57-0.8,0c-0.44-0.46-1.24-0.74-1.74-0.94
				c-0.5-0.2-0.21,0-2.02-1.61c-1.81-1.61-1.41-3.86-1.68-4.67c-0.27-0.81-2.69,0.47-4.56,1.9c-1.88,1.43-2.34,1.08-3.84-0.12
				C24.07,21.9,26.61,21.69,27.83,21.57z M5.87,21.12c-1.43,0-0.57-3.87-0.29-4.44c2.66-5.32,9.41-7.12,9.41-7.12
				c-1.77,1.59-2.28,5.87-2.32,6.45c-0.31,4.34-0.77,5.05-1.28,5.53c-0.83,0.78-1.49,0.21-1.36-2.27c0.12-2.48,1.73-5.32,1.73-5.32
				c-0.7,0.29-1.85,2.23-2.02,3.01C8.8,21.2,7.3,21.12,5.87,21.12z M11.22,23.36c-2.2,0.17-2.49,2.03-2.49,2.03
				C7.94,22.91,11.22,23.36,11.22,23.36z M7.77,27.09c0,0,5.43,5.26,10.29,5.71C18.06,32.8,11.84,34.21,7.77,27.09z M23.76,23.86
				c-0.11,0.52-0.35,0.76-0.77,0.34c-0.42-0.41-1-0.69-0.56,0.21c0.25,0.5,0.48,2.41-1.83,2.82c-1.19,0.21-3.41,0.32-4.92-0.74
				c-1.51-1.05-3.86-3.02-2.39-3.72s2.16-0.86,4.25-0.67c0.77,0.07,0.98-0.39,0-0.49c-0.98-0.11-2.88-0.16-3.86,0.25
				c-0.56,0.24-1.33-0.09-0.76-0.5c0,0,4.5-3.86,9.41-0.18C22.88,21.61,24.03,22.52,23.76,23.86z M26.87,41.05
				c-1.13-0.28-1.92-0.96-2.09-2.43c0,0,1.13,1.19,2.66,1.24C27.44,39.86,28,41.33,26.87,41.05z M26.71,34.21
				c-0.58-3-2.3-5.24-2.67-7.96c-0.37-2.72,2.14-1.89,3.54-1.12c2.61,1.43,5.52,2.78,8.63,3.47c3.89,0.87,3.33,4.32,3.33,4.32
				s-0.07,0.21-0.23,0.18c-0.07-0.01-0.35-0.18-0.35-0.18c-2.67-2.05-4.97-1.27-4.97-1.27c1.55-0.05,3.31,1.02,4.11,1.87
				c2.35,2.51,0.69,4.17-0.43,5.1c-2.14,1.79-6.09,0.35-8.23-0.62C27.3,37.04,27.03,35.87,26.71,34.21z M31.45,43.87
				c-1.02,0.4-2.03,0.23-3.62-1.64C27.83,42.24,32.47,43.48,31.45,43.87z M39.02,53.93c-0.34,1.58-5.82-0.79-5.82-0.79
				s-0.23-4.41,0-4.92c0.23-0.51,0.57-0.73,1.19-0.28c0.62,0.45,2.37,0.99,3.96,0.28c0.51-0.23,0.96-0.85,0.96,0.57
				C39.31,50.2,39.36,52.35,39.02,53.93z M38.8,47.09c-0.8,0.54-2.79,1.51-4.54-0.24c-0.64-0.64-1.53-2.06-1.44-2.39
				c0.09-0.32,0.8-0.6,0.8-0.6c0.56-0.17,1.57-0.33,2.84-1.01c0.84-0.45,2.99-1.27,2.99,0.51C39.45,45.14,39.6,46.56,38.8,47.09z
				 M34.15,43.14c-2.22,1.25-4.83-2.87-5.23-3.62c-0.61-1.15,0.46-0.74,1.08-0.4c3.74,2.06,6.59,0.73,6.59,0.73
				c1.36-0.59,1.63-0.41,2.67-0.47c0.47-0.03,0.92-0.03,1.33-0.01c0,0,0,0,0.01,0.01c1.03-0.03,1.73,0.11,2.45,0.47
				c0,0,2.84,1.33,6.59-0.73c0.62-0.34,1.69-0.75,1.08,0.4c-0.4,0.75-3.02,4.87-5.23,3.62c-1.81-1.02-3.82-2-5.66-2.11
				C37.97,41.14,35.96,42.12,34.15,43.14z M46.41,53.14c0,0-5.48,2.37-5.82,0.79c-0.34-1.58-0.28-3.73-0.28-5.14
				c0-1.41,0.45-0.79,0.96-0.57c1.59,0.71,3.33,0.17,3.96-0.28c0.62-0.45,0.96-0.23,1.19,0.28C46.63,48.73,46.41,53.14,46.41,53.14z
				 M45.35,46.86c-1.74,1.74-3.74,0.77-4.54,0.24c-0.8-0.54-0.64-1.96-0.64-3.73c0-1.77,2.15-0.96,2.99-0.51
				c1.27,0.68,2.28,0.84,2.84,1.01c0,0,0.71,0.28,0.8,0.6C46.87,44.79,45.99,46.21,45.35,46.86z M48.16,43.87
				c-1.02-0.4,3.62-1.64,3.62-1.64C50.2,44.1,49.18,44.27,48.16,43.87z M52.74,41.05c-1.13,0.28-0.57-1.19-0.57-1.19
				c1.53-0.06,2.66-1.24,2.66-1.24C54.66,40.09,53.87,40.77,52.74,41.05z M55.57,26.25c-0.37,2.72-2.09,4.96-2.67,7.96
				c-0.32,1.66-0.59,2.83-2.72,3.79c-2.14,0.96-6.08,2.4-8.23,0.62c-1.12-0.94-2.78-2.59-0.43-5.1c0.8-0.85,2.56-1.92,4.11-1.87
				c0,0-2.3-0.78-4.97,1.27c0,0-0.29,0.17-0.35,0.18c-0.16,0.03-0.23-0.18-0.23-0.18s-0.57-3.45,3.33-4.32
				c3.1-0.69,6.02-2.04,8.63-3.47C53.43,24.36,55.94,23.52,55.57,26.25z M59.01,27.23c-2.31-0.41-2.07-2.32-1.83-2.82
				c0.44-0.9-0.14-0.62-0.56-0.21c-0.42,0.41-0.67,0.17-0.77-0.34c-0.27-1.34,0.88-2.25,1.44-2.67c4.91-3.68,9.41,0.18,9.41,0.18
				c0.56,0.41-0.2,0.74-0.76,0.5c-0.98-0.41-2.88-0.36-3.86-0.25c-0.98,0.11-0.77,0.56,0,0.49c2.09-0.19,2.78-0.04,4.25,0.67
				c1.48,0.7-0.88,2.67-2.39,3.72C62.42,27.55,60.21,27.44,59.01,27.23z M61.56,32.8c4.86-0.45,10.29-5.71,10.29-5.71
				C67.77,34.21,61.56,32.8,61.56,32.8z M68.39,23.36c0,0,3.28-0.45,2.49,2.03C70.88,25.39,70.6,23.53,68.39,23.36z M73.74,21.12
				c-1.43,0-2.93,0.08-3.87-4.16c-0.17-0.78-1.32-2.72-2.02-3.01c0,0,1.61,2.85,1.73,5.32c0.12,2.48-0.54,3.05-1.36,2.27
				c-0.51-0.48-0.97-1.19-1.28-5.53c-0.04-0.58-0.55-4.86-2.32-6.45c0,0,6.75,1.8,9.41,7.12C74.32,17.25,75.18,21.12,73.74,21.12z"
				/>
		</g>
	</g>
</g>
<g>
</g>
<g>
</g>
<g>
</g>
<g>
</g>
<g>
</g>
<g>
</g>
<g>
</g>
<g>
</g>
<g>
</g>
<g>
</g>
<g>
</g>
<g>
</g>
<g>
</g>
<g>
</g>
<g>
</g>
</svg>
