<?xml version="1.0" encoding="utf-8"?>
<!-- Generator: Adobe Illustrator 24.1.0, SVG Export Plug-In . SVG Version: 6.00 Build 0)  -->
<svg version="1.1" id="Warstwa_1" xmlns="http://www.w3.org/2000/svg" xmlns:xlink="http://www.w3.org/1999/xlink" x="0px" y="0px"
	 viewBox="0 0 100 100" style="enable-background:new 0 0 100 100;" xml:space="preserve">
<path d="M71.2,62.5c-1.5-0.9-3.3-0.9-4.8,0L58.8,67c-1.7,1-3.8,0.9-5.4-0.3c-2.7-2.1-7-5.6-10.8-9.4c-3.8-3.8-7.3-8.1-9.4-10.8
	c-1.2-1.5-1.3-3.7-0.3-5.4l4.5-7.6c0.9-1.5,0.9-3.4,0-4.9l-11.1-19c-1.1-1.8-3.2-2.7-5.3-2.2c-2,0.5-4.6,1.7-7.3,4.4
	C5.2,20.6,0.6,35,32.8,67.2s46.6,27.6,55.1,19.1c2.7-2.7,3.9-5.3,4.4-7.4c0.5-2.1-0.4-4.2-2.2-5.3C85.6,71,75.7,65.2,71.2,62.5z"/>
</svg>
